<?xml version="1.0" encoding="UTF-8" standalone="no"?>
<!DOCTYPE svg PUBLIC "-//W3C//DTD SVG 1.1//EN" "http://www.w3.org/Graphics/SVG/1.1/DTD/svg11.dtd">
<svg width="100%" height="100%" viewBox="0 0 595 2373" version="1.1" xmlns="http://www.w3.org/2000/svg" xmlns:xlink="http://www.w3.org/1999/xlink" xml:space="preserve" xmlns:serif="http://www.serif.com/" style="fill-rule:evenodd;clip-rule:evenodd;stroke-linejoin:round;stroke-miterlimit:2;">
    <g transform="matrix(1,0,0,1,-4270.87,-862.393)">
        <g transform="matrix(1,0,0,1,-77.9517,155.146)">
            <g transform="matrix(1,0,0,2.14713,509.974,-5281.33)">
                <path d="M4221.4,3390.65C4248.43,3389.32 4275.43,3389.54 4302.38,3390.94C4300.34,3356.9 4298.4,3323.75 4296.6,3292.15C4293.46,3291.48 4290.33,3290.83 4287.19,3290.21C4190.9,3271.2 4091.57,3283.76 3993.43,3282.74C3987.51,3282.67 3981.59,3282.56 3975.67,3282.39C3973.58,3319.38 3971.29,3358.65 3968.85,3399.06C3996.69,3399.01 4025.22,3401.64 4052.71,3402.05C4109.09,3402.89 4165.09,3393.41 4221.4,3390.65Z" style="fill:rgb(237,112,72);fill-rule:nonzero;"/>
            </g>
            <g transform="matrix(1,0,0,2.14713,509.974,-5281.33)">
                <path d="M4312.71,3665.94C4315.32,3665.76 4317.93,3665.59 4320.54,3665.43C4317.37,3622.57 4314.3,3578.25 4311.37,3533.85C4308.21,3533.76 4305.04,3533.59 4301.87,3533.34C4255.47,3529.81 4211.71,3510.58 4165.82,3502.82C4098.58,3491.44 4030.19,3505.02 3961.95,3509.49C3958.75,3558.83 3955.37,3608.37 3951.85,3656.23C4000.26,3659.33 4049.67,3671.08 4098.26,3675.24C4169.64,3681.36 4241.23,3670.83 4312.71,3665.94Z" style="fill:rgb(237,112,72);fill-rule:nonzero;"/>
            </g>
            <g transform="matrix(1,0,0,2.14713,509.974,-5281.33)">
                <path d="M4330.66,3792.15C4235.44,3780.94 4140.52,3765.31 4044.99,3770.43C4010.61,3772.27 3976.33,3776.79 3942.06,3780.65C3938.51,3822.16 3934.9,3860.56 3931.26,3894.21L4340.47,3894.21C4337.17,3863.69 4333.88,3829.26 4330.66,3792.15Z" style="fill:rgb(237,112,72);fill-rule:nonzero;"/>
            </g>
            <g transform="matrix(1,0,0,2.14713,509.974,-5281.33)">
                <path d="M4017.1,3168.5C4063.29,3170.22 4109.26,3177.85 4155.46,3176.65C4199.87,3175.51 4243.74,3166.24 4288.13,3164.57C4288.62,3164.55 4289.11,3164.53 4289.6,3164.52C4284.95,3076.81 4282.22,3019.21 4282.22,3019.21L3989.5,3019.21C3989.5,3019.21 3986.69,3078.61 3981.91,3168.63C3993.66,3168.04 4005.45,3168.06 4017.1,3168.5Z" style="fill:rgb(237,112,72);fill-rule:nonzero;"/>
            </g>
            <g transform="matrix(1,0,0,2.14713,509.974,-5281.33)">
                <path d="M4287.19,3290.21C4290.33,3290.83 4293.46,3291.48 4296.6,3292.15C4293.96,3245.49 4291.6,3202.22 4289.6,3164.52C4289.11,3164.53 4288.62,3164.55 4288.13,3164.57C4243.74,3166.24 4199.87,3175.51 4155.46,3176.65C4109.26,3177.85 4063.29,3170.22 4017.1,3168.5C4005.45,3168.06 3993.66,3168.04 3981.91,3168.63C3980.09,3202.69 3977.99,3241.13 3975.67,3282.39C3981.59,3282.56 3987.51,3282.67 3993.43,3282.74C4091.57,3283.76 4190.9,3271.2 4287.19,3290.21Z" style="fill:rgb(250,239,220);fill-rule:nonzero;"/>
            </g>
            <g transform="matrix(1,0,0,2.14713,509.974,-5281.33)">
                <path d="M4165.82,3502.82C4211.71,3510.58 4255.47,3529.81 4301.87,3533.34C4305.04,3533.59 4308.21,3533.76 4311.37,3533.85C4308.19,3485.74 4305.18,3437.52 4302.38,3390.94C4275.43,3389.54 4248.43,3389.32 4221.4,3390.65C4165.09,3393.41 4109.09,3402.89 4052.71,3402.05C4025.22,3401.64 3996.69,3399.01 3968.85,3399.06C3966.67,3435.21 3964.37,3472.29 3961.95,3509.49C4030.19,3505.02 4098.58,3491.44 4165.82,3502.82Z" style="fill:rgb(250,239,220);fill-rule:nonzero;"/>
            </g>
            <g transform="matrix(1,0,0,2.14713,509.974,-5281.33)">
                <path d="M4330.66,3792.15C4327.21,3752.47 4323.82,3709.73 4320.54,3665.43C4317.93,3665.59 4315.32,3665.76 4312.71,3665.94C4241.23,3670.83 4169.64,3681.36 4098.26,3675.24C4049.67,3671.08 4000.26,3659.33 3951.85,3656.23C3948.68,3699.54 3945.4,3741.48 3942.06,3780.65C3976.33,3776.79 4010.61,3772.27 4044.99,3770.43C4140.52,3765.31 4235.44,3780.94 4330.66,3792.15Z" style="fill:rgb(250,239,220);fill-rule:nonzero;"/>
            </g>
            <g transform="matrix(1,0,0,1,509.974,-1817.9)">
                <path d="M4018.12,2633.87L4039.76,2630.29C4043.17,2565.25 4024.17,2525.15 4024.17,2525.15C4009.18,2578.5 4018.12,2633.87 4018.12,2633.87Z" style="fill:rgb(219,219,219);fill-rule:nonzero;"/>
            </g>
            <g transform="matrix(1,0,0,1,509.974,-1817.9)">
                <path d="M4253.61,2633.87L4231.97,2630.29C4228.56,2565.25 4247.55,2525.15 4247.55,2525.15C4262.54,2578.5 4253.61,2633.87 4253.61,2633.87Z" style="fill:rgb(219,219,219);fill-rule:nonzero;"/>
            </g>
            <g transform="matrix(1,0,0,1,509.974,-1817.9)">
                <path d="M3900.29,2787.22L3916.25,2772.17C3882.81,2716.29 3844.68,2693.59 3844.68,2693.59C3861.99,2746.24 3900.29,2787.22 3900.29,2787.22Z" style="fill:rgb(219,219,219);fill-rule:nonzero;"/>
            </g>
            <g transform="matrix(1,0,0,1,509.974,-1817.9)">
                <path d="M4371.44,2787.22L4355.47,2772.17C4388.91,2716.29 4427.04,2693.59 4427.04,2693.59C4409.73,2746.24 4371.44,2787.22 4371.44,2787.22Z" style="fill:rgb(219,219,219);fill-rule:nonzero;"/>
            </g>
            <g transform="matrix(1,0,0,1,509.974,-1817.9)">
                <path d="M4432.83,2821.64C4432.52,2807.77 4430.26,2794.59 4426.13,2782.46C4415.71,2751.93 4393.95,2730.5 4366.41,2723.68C4360.37,2722.18 4354.14,2721.42 4347.89,2721.42C4342.59,2721.42 4337.31,2721.96 4332.09,2723.02C4334.97,2691.96 4329.97,2661.43 4317.87,2636.59C4310.72,2621.93 4301.38,2609.69 4290.13,2600.21C4276.82,2589.01 4261.05,2582.05 4244.5,2580.09C4241.25,2579.71 4237.93,2579.51 4234.65,2579.51C4226.6,2579.51 4218.52,2580.68 4210.65,2582.98C4203.41,2585.1 4196.31,2588.2 4189.55,2592.18C4177.56,2599.25 4166.71,2609 4157.31,2621.18C4148.78,2632.23 4141.68,2644.97 4136.21,2659.04C4136.09,2659.34 4135.98,2659.64 4135.86,2659.95C4135.75,2659.64 4135.63,2659.34 4135.51,2659.04C4130.04,2644.97 4122.94,2632.23 4114.41,2621.18C4105.01,2609 4094.16,2599.25 4082.17,2592.18C4075.41,2588.2 4068.31,2585.1 4061.07,2582.98C4053.2,2580.68 4045.13,2579.51 4037.07,2579.51C4033.79,2579.51 4030.48,2579.71 4027.22,2580.09C4010.67,2582.05 3994.9,2589.01 3981.6,2600.21C3970.34,2609.69 3961.01,2621.93 3953.86,2636.59C3941.75,2661.43 3936.75,2691.96 3939.63,2723.02C3934.41,2721.96 3929.13,2721.42 3923.83,2721.42C3917.58,2721.42 3911.35,2722.18 3905.31,2723.68C3877.78,2730.5 3856.01,2751.93 3845.6,2782.46C3841.46,2794.59 3839.21,2807.77 3838.89,2821.64C3838.58,2835.21 3840.15,2849.05 3843.55,2862.76C3846.54,2874.85 3850.79,2886.04 3856.17,2895.99C3861.84,2906.48 3868.78,2915.67 3876.82,2923.32C3885.31,2931.4 3894.91,2937.68 3905.35,2941.98C3915.97,2946.35 3927.18,2948.57 3938.66,2948.57L3938.94,2948.57C3938.75,2952.26 3938.65,2955.93 3938.65,2959.55C3938.65,2987.67 3944.62,3013.03 3956.4,3034.91C3967.92,3056.32 3984.69,3073.98 4006.26,3087.41C4024.07,3098.49 4045.27,3106.66 4069.29,3111.67C4089.19,3115.83 4111.59,3117.93 4135.86,3117.93C4160.14,3117.93 4182.54,3115.83 4202.44,3111.67C4226.45,3106.66 4247.65,3098.49 4265.47,3087.41C4287.03,3073.98 4303.8,3056.32 4315.33,3034.91C4327.1,3013.03 4333.08,2987.67 4333.08,2959.55C4333.08,2955.93 4332.97,2952.26 4332.78,2948.57L4333.06,2948.57C4344.54,2948.57 4355.75,2946.35 4366.37,2941.98C4376.81,2937.68 4386.41,2931.41 4394.91,2923.32C4402.94,2915.67 4409.89,2906.48 4415.55,2895.99C4420.93,2886.04 4425.18,2874.85 4428.18,2862.76C4431.58,2849.05 4433.14,2835.21 4432.83,2821.64Z" style="fill:rgb(237,112,72);fill-rule:nonzero;"/>
            </g>
            <g transform="matrix(1,0,0,1,509.974,-1817.9)">
                <path d="M3981,2828.7C3990.96,2868.87 3975.35,2895.62 3949.51,2902.02C3923.67,2908.42 3897.38,2892.06 3887.42,2851.89C3877.47,2811.71 3890.34,2773.96 3916.18,2767.55C3942.02,2761.15 3971.04,2788.52 3981,2828.7Z" style="fill:rgb(250,239,220);fill-rule:nonzero;"/>
            </g>
            <g transform="matrix(1,0,0,1,509.974,-1817.9)">
                <path d="M4101.55,2708.65C4107.49,2758.67 4084.59,2788.61 4052.41,2792.43C4020.23,2796.25 3990.96,2772.5 3985.03,2722.47C3979.09,2672.45 4000.37,2628.8 4032.54,2624.98C4064.72,2621.16 4095.62,2658.62 4101.55,2708.65Z" style="fill:rgb(250,239,220);fill-rule:nonzero;"/>
            </g>
            <g transform="matrix(1,0,0,1,509.974,-1817.9)">
                <path d="M4290.72,2828.7C4280.77,2868.87 4296.37,2895.62 4322.21,2902.02C4348.05,2908.42 4374.34,2892.06 4384.3,2851.89C4394.26,2811.71 4381.38,2773.96 4355.54,2767.55C4329.7,2761.15 4300.68,2788.52 4290.72,2828.7Z" style="fill:rgb(250,239,220);fill-rule:nonzero;"/>
            </g>
            <g transform="matrix(1,0,0,1,509.974,-1817.9)">
                <path d="M4170.17,2708.65C4164.23,2758.67 4187.13,2788.61 4219.31,2792.43C4251.49,2796.25 4280.76,2772.5 4286.7,2722.47C4292.63,2672.45 4271.36,2628.8 4239.18,2624.98C4207,2621.16 4176.1,2658.62 4170.17,2708.65Z" style="fill:rgb(250,239,220);fill-rule:nonzero;"/>
            </g>
            <g transform="matrix(1,0,0,1,509.974,-1817.9)">
                <path d="M4252.38,2978.43C4252.38,3042.79 4200.21,3063.11 4135.86,3063.11C4071.51,3063.11 4019.34,3042.79 4019.34,2978.43C4019.34,2914.08 4071.51,2822.23 4135.86,2822.23C4200.21,2822.23 4252.38,2914.08 4252.38,2978.43Z" style="fill:rgb(250,239,220);fill-rule:nonzero;"/>
            </g>
        </g>
    </g>
</svg>
