<?xml version="1.0" encoding="UTF-8" standalone="no"?>
<!DOCTYPE svg PUBLIC "-//W3C//DTD SVG 1.1//EN" "http://www.w3.org/Graphics/SVG/1.1/DTD/svg11.dtd">
<svg width="100%" height="100%" viewBox="0 0 595 2522" version="1.1" xmlns="http://www.w3.org/2000/svg" xmlns:xlink="http://www.w3.org/1999/xlink" xml:space="preserve" xmlns:serif="http://www.serif.com/" style="fill-rule:evenodd;clip-rule:evenodd;stroke-linejoin:round;stroke-miterlimit:2;">
    <g transform="matrix(1,0,0,1,-391.994,-924.287)">
        <g transform="matrix(1,0,0,1,-242.492,569.774)">
            <g transform="matrix(1,0,0,2.31661,455.92,-6145.76)">
                <path d="M621.932,3019.21L329.217,3019.21C329.217,3019.21 300.902,3617.45 270.969,3894.21L680.18,3894.21C650.247,3617.45 621.932,3019.21 621.932,3019.21Z" style="fill:rgb(93,77,63);fill-rule:nonzero;"/>
            </g>
            <g transform="matrix(1,0,0,1,455.92,-2170.64)">
                <path d="M357.828,2633.87L379.471,2630.29C382.879,2565.26 363.884,2525.15 363.884,2525.15C348.896,2578.51 357.828,2633.87 357.828,2633.87Z" style="fill:rgb(219,219,219);fill-rule:nonzero;"/>
            </g>
            <g transform="matrix(1,0,0,1,455.92,-2170.64)">
                <path d="M593.321,2633.87L571.678,2630.29C568.27,2565.26 587.265,2525.15 587.265,2525.15C602.253,2578.51 593.321,2633.87 593.321,2633.87Z" style="fill:rgb(219,219,219);fill-rule:nonzero;"/>
            </g>
            <g transform="matrix(1,0,0,1,455.92,-2170.64)">
                <path d="M239.999,2787.22L255.964,2772.17C222.525,2716.29 184.391,2693.6 184.391,2693.6C201.707,2746.24 239.999,2787.22 239.999,2787.22Z" style="fill:rgb(219,219,219);fill-rule:nonzero;"/>
            </g>
            <g transform="matrix(1,0,0,1,455.92,-2170.64)">
                <path d="M711.15,2787.22L695.185,2772.17C728.623,2716.29 766.758,2693.6 766.758,2693.6C749.442,2746.24 711.15,2787.22 711.15,2787.22Z" style="fill:rgb(219,219,219);fill-rule:nonzero;"/>
            </g>
            <g transform="matrix(1,0,0,1,455.92,-2170.64)">
                <path d="M772.545,2821.64C772.23,2807.77 769.975,2794.59 765.84,2782.47C755.426,2751.93 733.66,2730.5 706.125,2723.68C700.083,2722.18 693.852,2721.42 687.603,2721.42C682.303,2721.42 677.021,2721.96 671.804,2723.02C674.685,2691.96 669.686,2661.44 657.578,2636.6C650.43,2621.93 641.097,2609.69 629.839,2600.21C616.538,2589.01 600.762,2582.06 584.217,2580.09C580.959,2579.71 577.644,2579.51 574.364,2579.51C566.311,2579.51 558.237,2580.68 550.367,2582.98C543.125,2585.1 536.026,2588.2 529.268,2592.18C517.274,2599.25 506.427,2609 497.026,2621.18C488.493,2632.23 481.392,2644.97 475.921,2659.05C475.804,2659.35 475.689,2659.65 475.574,2659.95C475.459,2659.65 475.345,2659.35 475.228,2659.05C469.756,2644.97 462.656,2632.23 454.122,2621.18C444.722,2609 433.875,2599.25 421.881,2592.18C415.123,2588.2 408.024,2585.1 400.782,2582.98C392.912,2580.68 384.838,2579.51 376.784,2579.51C373.505,2579.51 370.189,2579.71 366.932,2580.09C350.387,2582.06 334.611,2589.01 321.31,2600.21C310.052,2609.69 300.719,2621.93 293.571,2636.6C281.463,2661.44 276.464,2691.96 279.345,2723.02C274.127,2721.96 268.846,2721.42 263.546,2721.42C257.297,2721.42 251.065,2722.18 245.023,2723.68C217.488,2730.5 195.723,2751.93 185.309,2782.47C181.174,2794.59 178.918,2807.77 178.604,2821.64C178.295,2835.22 179.861,2849.05 183.259,2862.76C186.256,2874.86 190.504,2886.04 195.883,2895.99C201.549,2906.48 208.496,2915.67 216.531,2923.32C225.021,2931.41 234.622,2937.68 245.063,2941.98C255.685,2946.36 266.893,2948.57 278.375,2948.57L278.657,2948.57C278.462,2952.27 278.36,2955.93 278.36,2959.55C278.36,2987.68 284.332,3013.03 296.11,3034.92C307.632,3056.33 324.407,3073.99 345.97,3087.41C363.782,3098.5 384.988,3106.66 408.998,3111.67C428.899,3115.83 451.299,3117.94 475.574,3117.94C499.85,3117.94 522.25,3115.83 542.151,3111.67C566.161,3106.66 587.367,3098.5 605.179,3087.41C626.742,3073.99 643.517,3056.33 655.039,3034.92C666.817,3013.03 672.789,2987.68 672.789,2959.55C672.789,2955.93 672.687,2952.27 672.491,2948.57L672.777,2948.57C684.257,2948.57 695.465,2946.36 706.085,2941.99C716.527,2937.69 726.127,2931.41 734.618,2923.32C742.653,2915.68 749.6,2906.48 755.266,2895.99C760.645,2886.04 764.893,2874.86 767.89,2862.76C771.288,2849.05 772.854,2835.22 772.545,2821.64Z" style="fill:rgb(93,77,63);fill-rule:nonzero;"/>
            </g>
            <g transform="matrix(1,0,0,1,455.92,-2170.64)">
                <path d="M320.712,2828.7C330.668,2868.87 315.063,2895.62 289.222,2902.02C263.381,2908.43 237.091,2892.06 227.135,2851.89C217.179,2811.72 230.056,2773.96 255.897,2767.55C281.738,2761.15 310.756,2788.53 320.712,2828.7Z" style="fill:rgb(184,161,169);fill-rule:nonzero;"/>
            </g>
            <g transform="matrix(1,0,0,1,455.92,-2170.64)">
                <path d="M441.268,2708.65C447.203,2758.68 424.301,2788.62 392.123,2792.43C359.943,2796.25 330.673,2772.5 324.738,2722.48C318.803,2672.45 340.078,2628.8 372.257,2624.98C404.436,2621.17 435.333,2658.63 441.268,2708.65Z" style="fill:rgb(184,161,169);fill-rule:nonzero;"/>
            </g>
            <g transform="matrix(1,0,0,1,455.92,-2170.64)">
                <path d="M630.437,2828.7C620.481,2868.87 636.086,2895.62 661.927,2902.02C687.768,2908.43 714.058,2892.06 724.014,2851.89C733.97,2811.72 721.092,2773.96 695.252,2767.55C669.411,2761.15 640.393,2788.53 630.437,2828.7Z" style="fill:rgb(184,161,169);fill-rule:nonzero;"/>
            </g>
            <g transform="matrix(1,0,0,1,455.92,-2170.64)">
                <path d="M509.881,2708.65C503.946,2758.68 526.848,2788.62 559.026,2792.43C591.205,2796.25 620.476,2772.5 626.411,2722.48C632.346,2672.45 611.071,2628.8 578.892,2624.98C546.713,2621.17 515.815,2658.63 509.881,2708.65Z" style="fill:rgb(184,161,169);fill-rule:nonzero;"/>
            </g>
            <g transform="matrix(1,0,0,1,455.92,-2170.64)">
                <path d="M592.095,2978.44C592.095,3042.79 539.927,3063.12 475.574,3063.12C411.222,3063.12 359.054,3042.79 359.054,2978.44C359.054,2914.08 411.222,2822.23 475.574,2822.23C539.927,2822.23 592.095,2914.08 592.095,2978.44Z" style="fill:rgb(184,161,169);fill-rule:nonzero;"/>
            </g>
            <g transform="matrix(1,0,0,1,455.92,-2170.64)">
                <path d="M405.461,3161.25C406.073,3162.96 406.472,3164.7 406.789,3166.46C407.013,3168.21 407.125,3169.96 407.177,3171.74C407.133,3173.48 407.023,3175.24 406.828,3176.98C406.563,3178.69 406.251,3180.42 405.848,3182.12C404.158,3188.87 401.049,3195.11 397.208,3200.62C393.346,3206.15 388.729,3210.98 383.513,3215.04C380.901,3217.07 378.131,3218.91 375.186,3220.55C372.209,3222.15 369.141,3223.63 365.606,3224.65C365.991,3222.84 366.526,3221.17 367.107,3219.56C367.672,3217.93 368.316,3216.38 368.978,3214.85C369.634,3213.33 370.336,3211.85 371.071,3210.42C371.787,3208.97 372.534,3207.56 373.319,3206.19C376.403,3200.69 379.76,3195.66 383.164,3190.8C386.582,3185.94 390.024,3181.27 393.625,3176.51C394.501,3175.31 395.385,3174.1 396.361,3172.9C397.257,3171.67 398.174,3170.43 399.193,3169.19C400.128,3167.92 401.085,3166.63 402.175,3165.32C403.151,3163.99 404.197,3162.63 405.461,3161.25Z" style="fill:rgb(184,161,169);fill-rule:nonzero;"/>
            </g>
            <g transform="matrix(1,0,0,1,455.92,-2170.64)">
                <path d="M523.943,3160.18C526.189,3161.5 528.256,3162.93 530.262,3164.38C532.325,3165.79 534.288,3167.25 536.221,3168.73C538.194,3170.17 540.103,3171.65 541.97,3173.15C543.886,3174.61 545.749,3176.1 547.573,3177.61C554.966,3183.58 562.09,3189.64 569.181,3195.75C576.264,3201.86 583.289,3208.03 590.272,3214.48C592.038,3216.06 593.779,3217.69 595.5,3219.37C597.254,3221 598.992,3222.68 600.703,3224.42C602.441,3226.12 604.175,3227.86 605.866,3229.7C607.594,3231.47 609.302,3233.31 610.929,3235.35C608.371,3234.99 605.894,3234.43 603.437,3233.81C601.005,3233.14 598.618,3232.37 596.234,3231.57C593.889,3230.7 591.571,3229.76 589.27,3228.78C587.002,3227.75 584.757,3226.67 582.535,3225.54C573.708,3220.92 565.491,3215.22 557.974,3208.72C550.466,3202.21 543.633,3194.9 537.789,3186.84C536.35,3184.8 534.949,3182.74 533.6,3180.64C532.296,3178.51 531.033,3176.35 529.835,3174.16C528.69,3171.92 527.578,3169.67 526.563,3167.36C525.589,3165.03 524.677,3162.66 523.943,3160.18Z" style="fill:rgb(184,161,169);fill-rule:nonzero;"/>
            </g>
            <g transform="matrix(1,0,0,1,455.92,-2170.64)">
                <path d="M459.684,3234.44C460.141,3235.97 460.388,3237.48 460.564,3238.99C460.698,3240.49 460.716,3241.97 460.698,3243.45C460.62,3244.91 460.466,3246.36 460.262,3247.81C460.011,3249.23 459.697,3250.65 459.336,3252.05C457.801,3257.61 455.109,3262.76 451.627,3267.29C448.136,3271.81 443.824,3275.72 438.833,3278.61C437.57,3279.31 436.28,3279.97 434.966,3280.57C433.617,3281.13 432.25,3281.65 430.855,3282.09C429.419,3282.48 427.982,3282.83 426.501,3283.08C424.994,3283.28 423.469,3283.42 421.862,3283.36C422.418,3281.82 423.058,3280.47 423.715,3279.19C424.333,3277.86 424.995,3276.64 425.657,3275.46C426.293,3274.24 426.957,3273.09 427.638,3271.99C428.284,3270.85 428.953,3269.76 429.649,3268.72C432.351,3264.46 435.137,3260.59 438.067,3256.81C441.005,3253.03 444.055,3249.36 447.495,3245.67C448.33,3244.74 449.211,3243.81 450.156,3242.9C451.049,3241.96 451.991,3241.03 453.011,3240.11C453.987,3239.17 455.001,3238.22 456.13,3237.28C457.198,3236.33 458.336,3235.37 459.684,3234.44Z" style="fill:rgb(184,161,169);fill-rule:nonzero;"/>
            </g>
            <g transform="matrix(1,0,0,1,455.92,-2170.64)">
                <path d="M376.976,3355.35C376.818,3359.2 376.093,3362.73 375.234,3366.19C374.341,3369.63 373.224,3372.94 371.921,3376.15C369.32,3382.56 366.007,3388.56 362.181,3394.2C358.343,3399.83 353.972,3405.11 348.957,3409.88C346.449,3412.26 343.769,3414.51 340.894,3416.6C337.984,3418.66 334.961,3420.62 331.429,3422.17C331.686,3420.25 332.105,3418.45 332.575,3416.7C333.027,3414.94 333.568,3413.25 334.129,3411.58C334.689,3409.91 335.306,3408.28 335.959,3406.69C336.601,3405.08 337.287,3403.52 338.012,3401.98C340.888,3395.82 344.262,3390.05 348.018,3384.55C351.787,3379.05 355.919,3373.8 360.611,3368.87C361.777,3367.64 362.983,3366.42 364.241,3365.24C365.488,3364.05 366.774,3362.88 368.124,3361.75C369.471,3360.61 370.845,3359.49 372.318,3358.42C373.772,3357.35 375.284,3356.3 376.976,3355.35Z" style="fill:rgb(184,161,169);fill-rule:nonzero;"/>
            </g>
            <g transform="matrix(1,0,0,1,455.92,-2170.64)">
                <path d="M513.038,3302.82C514.94,3303.75 516.661,3304.77 518.317,3305.82C520.026,3306.83 521.635,3307.9 523.21,3308.97C524.823,3310.01 526.368,3311.09 527.871,3312.18C529.418,3313.24 530.911,3314.33 532.365,3315.45C538.266,3319.82 543.847,3324.3 549.366,3328.87C554.876,3333.44 560.297,3338.11 565.675,3343.11C567.037,3344.34 568.377,3345.61 569.7,3346.94C571.053,3348.21 572.391,3349.54 573.708,3350.93C575.047,3352.29 576.387,3353.68 577.69,3355.18C579.025,3356.62 580.347,3358.13 581.601,3359.83C579.507,3359.85 577.481,3359.66 575.469,3359.41C573.478,3359.12 571.522,3358.71 569.567,3358.27C567.646,3357.78 565.746,3357.21 563.859,3356.59C562.002,3355.93 560.163,3355.21 558.345,3354.45C551.123,3351.3 544.434,3347.06 538.407,3342.04C532.388,3337.02 527.004,3331.22 522.594,3324.69C521.512,3323.04 520.469,3321.36 519.479,3319.66C518.531,3317.91 517.624,3316.15 516.784,3314.35C515.995,3312.51 515.239,3310.67 514.583,3308.76C513.965,3306.83 513.409,3304.88 513.038,3302.82Z" style="fill:rgb(184,161,169);fill-rule:nonzero;"/>
            </g>
            <g transform="matrix(1,0,0,1,455.92,-2170.64)">
                <path d="M500.802,3371.07C502.703,3372.03 504.412,3373.07 506.055,3374.14C507.767,3375.15 509.371,3376.22 510.942,3377.28C512.563,3378.31 514.111,3379.37 515.62,3380.45C517.182,3381.49 518.684,3382.57 520.154,3383.66C526.121,3387.95 531.829,3392.36 537.457,3397C543.072,3401.64 548.587,3406.52 553.857,3411.92C555.184,3413.26 556.482,3414.65 557.752,3416.08C559.036,3417.5 560.294,3418.96 561.515,3420.49C562.738,3422.01 563.947,3423.56 565.092,3425.21C566.25,3426.84 567.37,3428.53 568.372,3430.39C566.279,3430.1 564.304,3429.64 562.366,3429.13C560.423,3428.62 558.543,3428.02 556.678,3427.39C552.968,3426.09 549.392,3424.56 545.93,3422.84C539.009,3419.4 532.517,3415.16 526.527,3410.2C520.552,3405.23 515.059,3399.54 510.516,3393.04C509.397,3391.39 508.327,3389.71 507.307,3388.01C506.328,3386.26 505.4,3384.49 504.538,3382.69C503.732,3380.83 502.967,3378.97 502.306,3377.06C501.695,3375.11 501.153,3373.13 500.802,3371.07Z" style="fill:rgb(184,161,169);fill-rule:nonzero;"/>
            </g>
            <g transform="matrix(1,0,0,1,455.92,-2170.64)">
                <path d="M460.491,3436.76C461.465,3439.77 461.769,3442.64 461.889,3445.48C461.921,3446.89 461.88,3448.29 461.794,3449.68C461.683,3451.06 461.513,3452.42 461.298,3453.78C460.392,3459.17 458.547,3464.29 456.024,3469.03C453.489,3473.77 450.251,3478.13 446.263,3481.88C445.257,3482.81 444.211,3483.71 443.124,3484.56C442.016,3485.4 440.873,3486.21 439.678,3486.96C437.241,3488.44 434.68,3489.77 431.627,3490.62C431.661,3489.01 431.846,3487.55 432.077,3486.14C432.274,3484.71 432.555,3483.35 432.851,3482.03C433.133,3480.69 433.467,3479.41 433.834,3478.16C434.177,3476.89 434.56,3475.66 434.982,3474.47C436.615,3469.66 438.615,3465.22 440.917,3460.93C443.23,3456.65 445.82,3452.53 448.927,3448.5C449.689,3447.49 450.496,3446.49 451.362,3445.5C452.199,3444.51 453.082,3443.52 454.038,3442.54C454.975,3441.56 455.944,3440.58 457.024,3439.62C458.068,3438.64 459.178,3437.68 460.491,3436.76Z" style="fill:rgb(184,161,169);fill-rule:nonzero;"/>
            </g>
            <g transform="matrix(1,0,0,1,455.92,-2170.64)">
                <path d="M380.569,3506.48C381.284,3509.75 381.355,3512.83 381.258,3515.86C381.187,3517.37 381.044,3518.86 380.857,3520.33C380.652,3521.8 380.389,3523.25 380.083,3524.68C378.823,3530.4 376.695,3535.8 373.939,3540.84C371.17,3545.88 367.751,3550.57 363.602,3554.7C362.558,3555.73 361.473,3556.73 360.345,3557.69C359.2,3558.63 358.019,3559.55 356.784,3560.42C354.269,3562.13 351.63,3563.71 348.478,3564.85C348.52,3563.15 348.722,3561.59 348.972,3560.08C349.195,3558.55 349.504,3557.09 349.833,3555.66C350.151,3554.22 350.524,3552.83 350.933,3551.46C351.321,3550.09 351.752,3548.75 352.224,3547.45C354.062,3542.19 356.324,3537.3 358.919,3532.58C361.527,3527.88 364.445,3523.35 367.902,3518.98C368.755,3517.88 369.65,3516.8 370.604,3515.74C371.535,3514.66 372.509,3513.6 373.555,3512.56C374.586,3511.51 375.649,3510.47 376.821,3509.46C377.961,3508.44 379.166,3507.43 380.569,3506.48Z" style="fill:rgb(184,161,169);fill-rule:nonzero;"/>
            </g>
            <g transform="matrix(1,0,0,1,455.92,-2170.64)">
                <path d="M524.06,3505.26C526.138,3506.15 528.043,3507.15 529.889,3508.18C531.783,3509.17 533.583,3510.22 535.35,3511.28C537.152,3512.31 538.891,3513.37 540.59,3514.47C542.33,3515.52 544.02,3516.61 545.672,3517.72C552.361,3522.09 558.75,3526.6 565.081,3531.2C571.405,3535.81 577.646,3540.51 583.854,3545.54C585.421,3546.78 586.971,3548.06 588.503,3549.39C590.063,3550.67 591.61,3552.01 593.138,3553.41C594.687,3554.77 596.235,3556.17 597.752,3557.67C599.297,3559.12 600.831,3560.63 602.303,3562.34C600.067,3562.38 597.892,3562.23 595.728,3562C593.583,3561.73 591.472,3561.35 589.359,3560.94C587.277,3560.47 585.214,3559.92 583.164,3559.33C581.14,3558.69 579.132,3558 577.142,3557.25C569.232,3554.19 561.802,3550.03 554.979,3545.05C548.165,3540.05 541.931,3534.25 536.604,3527.65C535.29,3525.98 534.014,3524.29 532.788,3522.55C531.599,3520.78 530.45,3518.98 529.365,3517.15C528.325,3515.26 527.317,3513.37 526.404,3511.41C525.525,3509.42 524.707,3507.4 524.06,3505.26Z" style="fill:rgb(184,161,169);fill-rule:nonzero;"/>
            </g>
            <g transform="matrix(1,0,0,1,455.92,-2170.64)">
                <path d="M581.557,3467.29C582.924,3467.26 584.144,3467.38 585.314,3467.54C586.498,3467.68 587.601,3467.9 588.681,3468.14C590.823,3468.65 592.819,3469.28 594.674,3470.06C598.402,3471.6 601.662,3473.6 604.636,3475.97C607.601,3478.35 610.263,3481.1 612.57,3484.41C613.731,3486.05 614.781,3487.86 615.73,3489.85C616.197,3490.85 616.651,3491.88 617.045,3493.01C617.45,3494.12 617.823,3495.29 618.083,3496.64C615.413,3497.08 613.087,3496.95 610.833,3496.7C608.606,3496.41 606.498,3495.92 604.518,3495.24C600.552,3493.88 597.029,3491.85 593.901,3489.33C590.782,3486.81 588.04,3483.8 585.863,3480.22C584.77,3478.43 583.837,3476.48 583.071,3474.37C582.338,3472.23 581.715,3469.99 581.557,3467.29Z" style="fill:rgb(184,161,169);fill-rule:nonzero;"/>
            </g>
            <g transform="matrix(1,0,0,1,455.92,-2170.64)">
                <path d="M479.064,3549.06C480.016,3550.2 480.76,3551.34 481.44,3552.49C482.13,3553.63 482.707,3554.77 483.255,3555.92C484.322,3558.2 485.152,3560.49 485.788,3562.78C487.069,3567.35 487.617,3571.92 487.634,3576.5C487.637,3581.07 487.088,3585.65 485.812,3590.22C485.179,3592.51 484.345,3594.79 483.276,3597.08C482.726,3598.22 482.146,3599.37 481.453,3600.51C480.771,3601.65 480.022,3602.8 479.064,3603.94C478.105,3602.8 477.357,3601.65 476.675,3600.51C475.981,3599.37 475.402,3598.22 474.852,3597.08C473.783,3594.79 472.949,3592.51 472.315,3590.22C471.04,3585.65 470.491,3581.07 470.494,3576.5C470.511,3571.92 471.059,3567.35 472.34,3562.78C472.976,3560.49 473.806,3558.2 474.873,3555.92C475.421,3554.77 475.998,3553.63 476.688,3552.49C477.367,3551.34 478.112,3550.2 479.064,3549.06Z" style="fill:rgb(184,161,169);fill-rule:nonzero;"/>
            </g>
            <g transform="matrix(1,0,0,1,455.92,-2170.64)">
                <path d="M419.415,3599.09C420.394,3602.53 420.742,3605.82 420.947,3609.08C421.114,3612.33 421.035,3615.52 420.751,3618.65C420.188,3624.93 418.839,3630.99 416.913,3636.87C414.973,3642.74 412.436,3648.41 409.15,3653.79C407.509,3656.47 405.667,3659.08 403.594,3661.59C401.482,3664.08 399.236,3666.51 396.387,3668.68C396.042,3666.91 395.89,3665.22 395.798,3663.55C395.687,3661.88 395.682,3660.25 395.701,3658.64C395.722,3657.03 395.809,3655.44 395.939,3653.88C396.059,3652.3 396.229,3650.76 396.448,3649.23C397.293,3643.1 398.741,3637.22 400.641,3631.48C402.555,3625.76 404.899,3620.17 407.882,3614.75C409.366,3612.04 411.022,3609.37 412.896,3606.75C413.839,3605.44 414.812,3604.14 415.895,3602.86C416.958,3601.58 418.085,3600.31 419.415,3599.09Z" style="fill:rgb(184,161,169);fill-rule:nonzero;"/>
            </g>
            <g transform="matrix(1,0,0,1,455.92,-2170.64)">
                <path d="M355.872,3640.53C356.394,3642.19 356.708,3643.83 356.954,3645.47C357.167,3647.1 357.268,3648.71 357.335,3650.33C357.352,3651.94 357.295,3653.53 357.19,3655.13C357.047,3656.7 356.843,3658.27 356.592,3659.83C355.516,3666.04 353.366,3671.98 350.429,3677.49C347.48,3682.99 343.718,3688.06 339.138,3692.39C337.979,3693.46 336.781,3694.5 335.545,3695.49C334.276,3696.46 332.977,3697.39 331.629,3698.26C330.239,3699.1 328.836,3699.9 327.357,3700.62C325.854,3701.32 324.311,3701.96 322.629,3702.44C322.878,3700.69 323.267,3699.09 323.694,3697.55C324.08,3695.98 324.54,3694.5 325.014,3693.04C325.462,3691.57 325.958,3690.15 326.484,3688.77C326.975,3687.36 327.502,3686 328.069,3684.67C330.251,3679.31 332.685,3674.29 335.327,3669.38C337.981,3664.47 340.818,3659.67 344.085,3654.89C344.881,3653.68 345.722,3652.49 346.625,3651.3C347.484,3650.1 348.39,3648.9 349.372,3647.72C350.32,3646.52 351.302,3645.31 352.397,3644.12C353.441,3642.91 354.552,3641.71 355.872,3640.53Z" style="fill:rgb(184,161,169);fill-rule:nonzero;"/>
            </g>
            <g transform="matrix(1,0,0,1,455.92,-2170.64)">
                <path d="M402.904,3748.77C402.621,3751.15 402.149,3753.45 401.615,3755.72C401.05,3757.97 400.383,3760.18 399.684,3762.39C398.94,3764.56 398.128,3766.71 397.274,3768.83C396.384,3770.94 395.439,3773.02 394.453,3775.07C390.44,3783.26 385.464,3790.91 379.793,3797.99C374.11,3805.07 367.709,3811.57 360.58,3817.25C358.783,3818.66 356.954,3820.03 355.091,3821.35C353.197,3822.64 351.275,3823.9 349.311,3825.09C347.307,3826.24 345.292,3827.37 343.208,3828.4C341.1,3829.41 338.957,3830.36 336.687,3831.15C337.675,3828.94 338.79,3826.9 339.94,3824.92C341.052,3822.89 342.233,3820.96 343.427,3819.06C344.596,3817.13 345.809,3815.26 347.049,3813.44C348.256,3811.58 349.498,3809.76 350.772,3807.98C355.796,3800.81 361.032,3793.97 366.434,3787.25C371.846,3780.55 377.4,3773.96 383.33,3767.52C384.792,3765.89 386.296,3764.29 387.855,3762.71C389.375,3761.1 390.937,3759.52 392.566,3757.96C394.166,3756.38 395.796,3754.81 397.53,3753.29C399.216,3751.74 400.965,3750.21 402.904,3748.77Z" style="fill:rgb(184,161,169);fill-rule:nonzero;"/>
            </g>
            <g transform="matrix(1,0,0,1,455.92,-2170.64)">
                <path d="M486.297,3780.78C487.034,3782.66 487.565,3784.52 488.032,3786.36C488.521,3788.21 488.897,3790.04 489.245,3791.86C489.596,3793.69 489.874,3795.5 490.108,3797.3C490.355,3799.11 490.543,3800.91 490.686,3802.7C491.288,3809.87 491.249,3816.95 490.769,3824C490.275,3831.04 489.319,3838.06 487.722,3845.07C487.332,3846.83 486.89,3848.58 486.392,3850.33C485.907,3852.09 485.375,3853.84 484.771,3855.6C484.168,3857.36 483.537,3859.11 482.79,3860.87C482.066,3862.63 481.275,3864.4 480.275,3866.16C478.479,3862.55 477.34,3858.94 476.352,3855.32C475.405,3851.7 474.713,3848.08 474.24,3844.46C473.292,3837.21 473.162,3829.98 473.671,3822.79C474.196,3815.6 475.339,3808.46 477.299,3801.42C478.278,3797.9 479.469,3794.41 480.912,3790.96C482.395,3787.51 484.024,3784.1 486.297,3780.78Z" style="fill:rgb(184,161,169);fill-rule:nonzero;"/>
            </g>
            <g transform="matrix(1,0,0,1,455.92,-2170.64)">
                <path d="M558.557,3635.07C560.718,3636.66 562.698,3638.36 564.62,3640.09C566.576,3641.79 568.435,3643.54 570.264,3645.31C572.099,3647.08 573.9,3648.85 575.636,3650.67C577.425,3652.45 579.135,3654.28 580.821,3656.12C587.607,3663.45 593.968,3671.01 600.116,3678.74C606.252,3686.48 612.155,3694.4 617.744,3702.67C619.154,3704.73 620.538,3706.82 621.864,3708.97C623.234,3711.07 624.554,3713.23 625.851,3715.42C627.151,3717.61 628.435,3719.82 629.643,3722.12C630.881,3724.38 632.078,3726.7 633.133,3729.18C628.296,3726.89 623.925,3724.09 619.675,3721.15C615.476,3718.16 611.451,3714.97 607.615,3711.59C599.955,3704.83 592.998,3697.36 586.683,3689.38C580.378,3681.4 574.695,3672.92 569.862,3663.91C567.45,3659.41 565.265,3654.76 563.31,3649.99C561.413,3645.18 559.684,3640.29 558.557,3635.07Z" style="fill:rgb(184,161,169);fill-rule:nonzero;"/>
            </g>
            <g transform="matrix(1,0,0,1,455.92,-2170.64)">
                <path d="M505.55,3685.81C507.174,3687.05 508.597,3688.35 509.953,3689.65C511.37,3690.93 512.675,3692.24 513.945,3693.55C515.26,3694.83 516.5,3696.14 517.695,3697.46C518.942,3698.74 520.129,3700.05 521.271,3701.37C525.943,3706.59 530.277,3711.84 534.529,3717.17C538.772,3722.51 542.907,3727.92 546.938,3733.65C547.968,3735.05 548.968,3736.51 549.94,3738.01C550.952,3739.48 551.94,3740.98 552.894,3742.55C553.878,3744.09 554.856,3745.66 555.778,3747.33C556.744,3748.95 557.682,3750.63 558.518,3752.5C556.527,3752.16 554.639,3751.64 552.777,3751.05C550.945,3750.42 549.168,3749.7 547.397,3748.94C545.671,3748.13 543.979,3747.25 542.311,3746.33C540.679,3745.37 539.076,3744.35 537.502,3743.3C531.277,3739 525.787,3733.73 521.107,3727.83C516.438,3721.93 512.552,3715.39 509.777,3708.35C509.106,3706.58 508.48,3704.79 507.913,3702.98C507.394,3701.15 506.92,3699.3 506.521,3697.44C506.179,3695.54 505.872,3693.65 505.675,3691.72C505.521,3689.78 505.435,3687.82 505.55,3685.81Z" style="fill:rgb(184,161,169);fill-rule:nonzero;"/>
            </g>
            <g transform="matrix(1,0,0,1,455.92,-2170.64)">
                <path d="M597.407,3792.94C599.181,3793.35 600.797,3793.9 602.36,3794.49C603.949,3795.05 605.451,3795.69 606.927,3796.34C608.414,3796.98 609.844,3797.66 611.239,3798.38C612.653,3799.08 614.021,3799.81 615.355,3800.58C620.729,3803.6 625.688,3806.98 630.441,3810.64C635.187,3814.3 639.707,3818.25 643.991,3822.68C645.07,3823.78 646.125,3824.92 647.155,3826.11C648.2,3827.28 649.224,3828.49 650.217,3829.77C651.218,3831.04 652.21,3832.33 653.152,3833.73C654.113,3835.1 655.048,3836.53 655.89,3838.14C652.281,3838.19 648.971,3837.63 645.728,3836.9C644.121,3836.51 642.545,3836.06 640.99,3835.56C639.447,3835.04 637.929,3834.48 636.436,3833.86C630.483,3831.38 624.989,3828.09 619.96,3824.2C614.939,3820.3 610.365,3815.81 606.469,3810.67C605.501,3809.38 604.568,3808.06 603.68,3806.69C602.808,3805.31 601.97,3803.91 601.189,3802.45C599.664,3799.5 598.278,3796.44 597.407,3792.94Z" style="fill:rgb(184,161,169);fill-rule:nonzero;"/>
            </g>
            <g transform="matrix(1,0,0,1,455.92,-2170.64)">
                <path d="M459.072,3330.88C459.502,3332.53 459.724,3334.15 459.875,3335.77C459.978,3337.37 459.965,3338.96 459.915,3340.56C459.802,3342.13 459.612,3343.69 459.373,3345.24C459.081,3346.77 458.726,3348.29 458.324,3349.8C456.616,3355.8 453.712,3361.38 449.982,3366.31C446.243,3371.24 441.646,3375.53 436.335,3378.79C434.99,3379.59 433.617,3380.33 432.22,3381.03C430.785,3381.67 429.331,3382.27 427.849,3382.8C426.321,3383.28 424.793,3383.71 423.22,3384.04C421.617,3384.33 419.997,3384.55 418.292,3384.57C418.934,3382.95 419.659,3381.53 420.403,3380.18C421.104,3378.78 421.85,3377.48 422.597,3376.22C423.314,3374.92 424.059,3373.69 424.822,3372.5C425.546,3371.28 426.294,3370.1 427.069,3368.98C430.08,3364.38 433.15,3360.13 436.333,3355.94C439.526,3351.77 442.799,3347.67 446.428,3343.53C447.307,3342.49 448.234,3341.45 449.224,3340.42C450.157,3339.37 451.14,3338.32 452.2,3337.28C453.212,3336.22 454.261,3335.15 455.426,3334.1C456.524,3333.02 457.693,3331.94 459.072,3330.88Z" style="fill:rgb(184,161,169);fill-rule:nonzero;"/>
            </g>
            <g transform="matrix(1,0,0,1,461.35,-1411.4)">
                <path d="M405.461,3161.25C406.073,3162.96 406.472,3164.7 406.789,3166.46C407.013,3168.21 407.125,3169.96 407.177,3171.74C407.133,3173.48 407.023,3175.24 406.828,3176.98C406.563,3178.69 406.251,3180.42 405.848,3182.12C404.158,3188.87 401.049,3195.11 397.208,3200.62C393.346,3206.15 388.729,3210.98 383.513,3215.04C380.901,3217.07 378.131,3218.91 375.186,3220.55C372.209,3222.15 369.141,3223.63 365.606,3224.65C365.991,3222.84 366.526,3221.17 367.107,3219.56C367.672,3217.93 368.316,3216.38 368.978,3214.85C369.634,3213.33 370.336,3211.85 371.071,3210.42C371.787,3208.97 372.534,3207.56 373.319,3206.19C376.403,3200.69 379.76,3195.66 383.164,3190.8C386.582,3185.94 390.024,3181.27 393.625,3176.51C394.501,3175.31 395.385,3174.1 396.361,3172.9C397.257,3171.67 398.174,3170.43 399.193,3169.19C400.128,3167.92 401.085,3166.63 402.175,3165.32C403.151,3163.99 404.197,3162.63 405.461,3161.25Z" style="fill:rgb(184,161,169);fill-rule:nonzero;"/>
            </g>
            <g transform="matrix(1,0,0,1,461.35,-1411.4)">
                <path d="M523.943,3160.18C526.189,3161.5 528.256,3162.93 530.262,3164.38C532.325,3165.79 534.288,3167.25 536.221,3168.73C538.194,3170.17 540.103,3171.65 541.97,3173.15C543.886,3174.61 545.749,3176.1 547.573,3177.61C554.966,3183.58 562.09,3189.64 569.181,3195.75C576.264,3201.86 583.289,3208.03 590.272,3214.48C592.038,3216.06 593.779,3217.69 595.5,3219.37C597.254,3221 598.992,3222.68 600.703,3224.42C602.441,3226.12 604.175,3227.86 605.866,3229.7C607.594,3231.47 609.302,3233.31 610.929,3235.35C608.371,3234.99 605.894,3234.43 603.437,3233.81C601.005,3233.14 598.618,3232.37 596.234,3231.57C593.889,3230.7 591.571,3229.76 589.27,3228.78C587.002,3227.75 584.757,3226.67 582.535,3225.54C573.708,3220.92 565.491,3215.22 557.974,3208.72C550.466,3202.21 543.633,3194.9 537.789,3186.84C536.35,3184.8 534.949,3182.74 533.6,3180.64C532.296,3178.51 531.033,3176.35 529.835,3174.16C528.69,3171.92 527.578,3169.67 526.563,3167.36C525.589,3165.03 524.677,3162.66 523.943,3160.18Z" style="fill:rgb(184,161,169);fill-rule:nonzero;"/>
            </g>
            <g transform="matrix(1,0,0,1,461.35,-1411.4)">
                <path d="M459.684,3234.44C460.141,3235.97 460.388,3237.48 460.564,3238.99C460.698,3240.49 460.716,3241.97 460.698,3243.45C460.62,3244.91 460.466,3246.36 460.262,3247.81C460.011,3249.23 459.697,3250.65 459.336,3252.05C457.801,3257.61 455.109,3262.76 451.627,3267.29C448.136,3271.81 443.824,3275.72 438.833,3278.61C437.57,3279.31 436.28,3279.97 434.966,3280.57C433.617,3281.13 432.25,3281.65 430.855,3282.09C429.419,3282.48 427.982,3282.83 426.501,3283.08C424.994,3283.28 423.469,3283.42 421.862,3283.36C422.418,3281.82 423.058,3280.47 423.715,3279.19C424.333,3277.86 424.995,3276.64 425.657,3275.46C426.293,3274.24 426.957,3273.09 427.638,3271.99C428.284,3270.85 428.953,3269.76 429.649,3268.72C432.351,3264.46 435.137,3260.59 438.067,3256.81C441.005,3253.03 444.055,3249.36 447.495,3245.67C448.33,3244.74 449.211,3243.81 450.156,3242.9C451.049,3241.96 451.991,3241.03 453.011,3240.11C453.987,3239.17 455.001,3238.22 456.13,3237.28C457.198,3236.33 458.336,3235.37 459.684,3234.44Z" style="fill:rgb(184,161,169);fill-rule:nonzero;"/>
            </g>
            <g transform="matrix(1,0,0,1,461.35,-1411.4)">
                <path d="M376.976,3355.35C376.818,3359.2 376.093,3362.73 375.234,3366.19C374.341,3369.63 373.224,3372.94 371.921,3376.15C369.32,3382.56 366.007,3388.56 362.181,3394.2C358.343,3399.83 353.972,3405.11 348.957,3409.88C346.449,3412.26 343.769,3414.51 340.894,3416.6C337.984,3418.66 334.961,3420.62 331.429,3422.17C331.686,3420.25 332.105,3418.45 332.575,3416.7C333.027,3414.94 333.568,3413.25 334.129,3411.58C334.689,3409.91 335.306,3408.28 335.959,3406.69C336.601,3405.08 337.287,3403.52 338.012,3401.98C340.888,3395.82 344.262,3390.05 348.018,3384.55C351.787,3379.05 355.919,3373.8 360.611,3368.87C361.777,3367.64 362.983,3366.42 364.241,3365.24C365.488,3364.05 366.774,3362.88 368.124,3361.75C369.471,3360.61 370.845,3359.49 372.318,3358.42C373.772,3357.35 375.284,3356.3 376.976,3355.35Z" style="fill:rgb(184,161,169);fill-rule:nonzero;"/>
            </g>
            <g transform="matrix(1,0,0,1,461.35,-1411.4)">
                <path d="M513.038,3302.82C514.94,3303.75 516.661,3304.77 518.317,3305.82C520.026,3306.83 521.635,3307.9 523.21,3308.97C524.823,3310.01 526.368,3311.09 527.871,3312.18C529.418,3313.24 530.911,3314.33 532.365,3315.45C538.266,3319.82 543.847,3324.3 549.366,3328.87C554.876,3333.44 560.297,3338.11 565.675,3343.11C567.037,3344.34 568.377,3345.61 569.7,3346.94C571.053,3348.21 572.391,3349.54 573.708,3350.93C575.047,3352.29 576.387,3353.68 577.69,3355.18C579.025,3356.62 580.347,3358.13 581.601,3359.83C579.507,3359.85 577.481,3359.66 575.469,3359.41C573.478,3359.12 571.522,3358.71 569.567,3358.27C567.646,3357.78 565.746,3357.21 563.859,3356.59C562.002,3355.93 560.163,3355.21 558.345,3354.45C551.123,3351.3 544.434,3347.06 538.407,3342.04C532.388,3337.02 527.004,3331.22 522.594,3324.69C521.512,3323.04 520.469,3321.36 519.479,3319.66C518.531,3317.91 517.624,3316.15 516.784,3314.35C515.995,3312.51 515.239,3310.67 514.583,3308.76C513.965,3306.83 513.409,3304.88 513.038,3302.82Z" style="fill:rgb(184,161,169);fill-rule:nonzero;"/>
            </g>
            <g transform="matrix(1,0,0,1,461.35,-1411.4)">
                <path d="M500.802,3371.07C502.703,3372.03 504.412,3373.07 506.055,3374.14C507.767,3375.15 509.371,3376.22 510.942,3377.28C512.563,3378.31 514.111,3379.37 515.62,3380.45C517.182,3381.49 518.684,3382.57 520.154,3383.66C526.121,3387.95 531.829,3392.36 537.457,3397C543.072,3401.64 548.587,3406.52 553.857,3411.92C555.184,3413.26 556.482,3414.65 557.752,3416.08C559.036,3417.5 560.294,3418.96 561.515,3420.49C562.738,3422.01 563.947,3423.56 565.092,3425.21C566.25,3426.84 567.37,3428.53 568.372,3430.39C566.279,3430.1 564.304,3429.64 562.366,3429.13C560.423,3428.62 558.543,3428.02 556.678,3427.39C552.968,3426.09 549.392,3424.56 545.93,3422.84C539.009,3419.4 532.517,3415.16 526.527,3410.2C520.552,3405.23 515.059,3399.54 510.516,3393.04C509.397,3391.39 508.327,3389.71 507.307,3388.01C506.328,3386.26 505.4,3384.49 504.538,3382.69C503.732,3380.83 502.967,3378.97 502.306,3377.06C501.695,3375.11 501.153,3373.13 500.802,3371.07Z" style="fill:rgb(184,161,169);fill-rule:nonzero;"/>
            </g>
            <g transform="matrix(1,0,0,1,461.35,-1411.4)">
                <path d="M460.491,3436.76C461.465,3439.77 461.769,3442.64 461.889,3445.48C461.921,3446.89 461.88,3448.29 461.794,3449.68C461.683,3451.06 461.513,3452.42 461.298,3453.78C460.392,3459.17 458.547,3464.29 456.024,3469.03C453.489,3473.77 450.251,3478.13 446.263,3481.88C445.257,3482.81 444.211,3483.71 443.124,3484.56C442.016,3485.4 440.873,3486.21 439.678,3486.96C437.241,3488.44 434.68,3489.77 431.627,3490.62C431.661,3489.01 431.846,3487.55 432.077,3486.14C432.274,3484.71 432.555,3483.35 432.851,3482.03C433.133,3480.69 433.467,3479.41 433.834,3478.16C434.177,3476.89 434.56,3475.66 434.982,3474.47C436.615,3469.66 438.615,3465.22 440.917,3460.93C443.23,3456.65 445.82,3452.53 448.927,3448.5C449.689,3447.49 450.496,3446.49 451.362,3445.5C452.199,3444.51 453.082,3443.52 454.038,3442.54C454.975,3441.56 455.944,3440.58 457.024,3439.62C458.068,3438.64 459.178,3437.68 460.491,3436.76Z" style="fill:rgb(184,161,169);fill-rule:nonzero;"/>
            </g>
            <g transform="matrix(1,0,0,1,461.35,-1411.4)">
                <path d="M380.569,3506.48C381.284,3509.75 381.355,3512.83 381.258,3515.86C381.187,3517.37 381.044,3518.86 380.857,3520.33C380.652,3521.8 380.389,3523.25 380.083,3524.68C378.823,3530.4 376.695,3535.8 373.939,3540.84C371.17,3545.88 367.751,3550.57 363.602,3554.7C362.558,3555.73 361.473,3556.73 360.345,3557.69C359.2,3558.63 358.019,3559.55 356.784,3560.42C354.269,3562.13 351.63,3563.71 348.478,3564.85C348.52,3563.15 348.722,3561.59 348.972,3560.08C349.195,3558.55 349.504,3557.09 349.833,3555.66C350.151,3554.22 350.524,3552.83 350.933,3551.46C351.321,3550.09 351.752,3548.75 352.224,3547.45C354.062,3542.19 356.324,3537.3 358.919,3532.58C361.527,3527.88 364.445,3523.35 367.902,3518.98C368.755,3517.88 369.65,3516.8 370.604,3515.74C371.535,3514.66 372.509,3513.6 373.555,3512.56C374.586,3511.51 375.649,3510.47 376.821,3509.46C377.961,3508.44 379.166,3507.43 380.569,3506.48Z" style="fill:rgb(184,161,169);fill-rule:nonzero;"/>
            </g>
            <g transform="matrix(1,0,0,1,461.35,-1411.4)">
                <path d="M524.06,3505.26C526.138,3506.15 528.043,3507.15 529.889,3508.18C531.783,3509.17 533.583,3510.22 535.35,3511.28C537.152,3512.31 538.891,3513.37 540.59,3514.47C542.33,3515.52 544.02,3516.61 545.672,3517.72C552.361,3522.09 558.75,3526.6 565.081,3531.2C571.405,3535.81 577.646,3540.51 583.854,3545.54C585.421,3546.78 586.971,3548.06 588.503,3549.39C590.063,3550.67 591.61,3552.01 593.138,3553.41C594.687,3554.77 596.235,3556.17 597.752,3557.67C599.297,3559.12 600.831,3560.63 602.303,3562.34C600.067,3562.38 597.892,3562.23 595.728,3562C593.583,3561.73 591.472,3561.35 589.359,3560.94C587.277,3560.47 585.214,3559.92 583.164,3559.33C581.14,3558.69 579.132,3558 577.142,3557.25C569.232,3554.19 561.802,3550.03 554.979,3545.05C548.165,3540.05 541.931,3534.25 536.604,3527.65C535.29,3525.98 534.014,3524.29 532.788,3522.55C531.599,3520.78 530.45,3518.98 529.365,3517.15C528.325,3515.26 527.317,3513.37 526.404,3511.41C525.525,3509.42 524.707,3507.4 524.06,3505.26Z" style="fill:rgb(184,161,169);fill-rule:nonzero;"/>
            </g>
            <g transform="matrix(1,0,0,1,461.35,-1411.4)">
                <path d="M581.557,3467.29C582.924,3467.26 584.144,3467.38 585.314,3467.54C586.498,3467.68 587.601,3467.9 588.681,3468.14C590.823,3468.65 592.819,3469.28 594.674,3470.06C598.402,3471.6 601.662,3473.6 604.636,3475.97C607.601,3478.35 610.263,3481.1 612.57,3484.41C613.731,3486.05 614.781,3487.86 615.73,3489.85C616.197,3490.85 616.651,3491.88 617.045,3493.01C617.45,3494.12 617.823,3495.29 618.083,3496.64C615.413,3497.08 613.087,3496.95 610.833,3496.7C608.606,3496.41 606.498,3495.92 604.518,3495.24C600.552,3493.88 597.029,3491.85 593.901,3489.33C590.782,3486.81 588.04,3483.8 585.863,3480.22C584.77,3478.43 583.837,3476.48 583.071,3474.37C582.338,3472.23 581.715,3469.99 581.557,3467.29Z" style="fill:rgb(184,161,169);fill-rule:nonzero;"/>
            </g>
            <g transform="matrix(1,0,0,1,461.35,-1411.4)">
                <path d="M479.064,3549.06C480.016,3550.2 480.76,3551.34 481.44,3552.49C482.13,3553.63 482.707,3554.77 483.255,3555.92C484.322,3558.2 485.152,3560.49 485.788,3562.78C487.069,3567.35 487.617,3571.92 487.634,3576.5C487.637,3581.07 487.088,3585.65 485.812,3590.22C485.179,3592.51 484.345,3594.79 483.276,3597.08C482.726,3598.22 482.146,3599.37 481.453,3600.51C480.771,3601.65 480.022,3602.8 479.064,3603.94C478.105,3602.8 477.357,3601.65 476.675,3600.51C475.981,3599.37 475.402,3598.22 474.852,3597.08C473.783,3594.79 472.949,3592.51 472.315,3590.22C471.04,3585.65 470.491,3581.07 470.494,3576.5C470.511,3571.92 471.059,3567.35 472.34,3562.78C472.976,3560.49 473.806,3558.2 474.873,3555.92C475.421,3554.77 475.998,3553.63 476.688,3552.49C477.367,3551.34 478.112,3550.2 479.064,3549.06Z" style="fill:rgb(184,161,169);fill-rule:nonzero;"/>
            </g>
            <g transform="matrix(1,0,0,1,461.35,-1411.4)">
                <path d="M419.415,3599.09C420.394,3602.53 420.742,3605.82 420.947,3609.08C421.114,3612.33 421.035,3615.52 420.751,3618.65C420.188,3624.93 418.839,3630.99 416.913,3636.87C414.973,3642.74 412.436,3648.41 409.15,3653.79C407.509,3656.47 405.667,3659.08 403.594,3661.59C401.482,3664.08 399.236,3666.51 396.387,3668.68C396.042,3666.91 395.89,3665.22 395.798,3663.55C395.687,3661.88 395.682,3660.25 395.701,3658.64C395.722,3657.03 395.809,3655.44 395.939,3653.88C396.059,3652.3 396.229,3650.76 396.448,3649.23C397.293,3643.1 398.741,3637.22 400.641,3631.48C402.555,3625.76 404.899,3620.17 407.882,3614.75C409.366,3612.04 411.022,3609.37 412.896,3606.75C413.839,3605.44 414.812,3604.14 415.895,3602.86C416.958,3601.58 418.085,3600.31 419.415,3599.09Z" style="fill:rgb(184,161,169);fill-rule:nonzero;"/>
            </g>
            <g transform="matrix(1,0,0,1,461.35,-1411.4)">
                <path d="M355.872,3640.53C356.394,3642.19 356.708,3643.83 356.954,3645.47C357.167,3647.1 357.268,3648.71 357.335,3650.33C357.352,3651.94 357.295,3653.53 357.19,3655.13C357.047,3656.7 356.843,3658.27 356.592,3659.83C355.516,3666.04 353.366,3671.98 350.429,3677.49C347.48,3682.99 343.718,3688.06 339.138,3692.39C337.979,3693.46 336.781,3694.5 335.545,3695.49C334.276,3696.46 332.977,3697.39 331.629,3698.26C330.239,3699.1 328.836,3699.9 327.357,3700.62C325.854,3701.32 324.311,3701.96 322.629,3702.44C322.878,3700.69 323.267,3699.09 323.694,3697.55C324.08,3695.98 324.54,3694.5 325.014,3693.04C325.462,3691.57 325.958,3690.15 326.484,3688.77C326.975,3687.36 327.502,3686 328.069,3684.67C330.251,3679.31 332.685,3674.29 335.327,3669.38C337.981,3664.47 340.818,3659.67 344.085,3654.89C344.881,3653.68 345.722,3652.49 346.625,3651.3C347.484,3650.1 348.39,3648.9 349.372,3647.72C350.32,3646.52 351.302,3645.31 352.397,3644.12C353.441,3642.91 354.552,3641.71 355.872,3640.53Z" style="fill:rgb(184,161,169);fill-rule:nonzero;"/>
            </g>
            <g transform="matrix(1,0,0,1,461.35,-1411.4)">
                <path d="M402.904,3748.77C402.621,3751.15 402.149,3753.45 401.615,3755.72C401.05,3757.97 400.383,3760.18 399.684,3762.39C398.94,3764.56 398.128,3766.71 397.274,3768.83C396.384,3770.94 395.439,3773.02 394.453,3775.07C390.44,3783.26 385.464,3790.91 379.793,3797.99C374.11,3805.07 367.709,3811.57 360.58,3817.25C358.783,3818.66 356.954,3820.03 355.091,3821.35C353.197,3822.64 351.275,3823.9 349.311,3825.09C347.307,3826.24 345.292,3827.37 343.208,3828.4C341.1,3829.41 338.957,3830.36 336.687,3831.15C337.675,3828.94 338.79,3826.9 339.94,3824.92C341.052,3822.89 342.233,3820.96 343.427,3819.06C344.596,3817.13 345.809,3815.26 347.049,3813.44C348.256,3811.58 349.498,3809.76 350.772,3807.98C355.796,3800.81 361.032,3793.97 366.434,3787.25C371.846,3780.55 377.4,3773.96 383.33,3767.52C384.792,3765.89 386.296,3764.29 387.855,3762.71C389.375,3761.1 390.937,3759.52 392.566,3757.96C394.166,3756.38 395.796,3754.81 397.53,3753.29C399.216,3751.74 400.965,3750.21 402.904,3748.77Z" style="fill:rgb(184,161,169);fill-rule:nonzero;"/>
            </g>
            <g transform="matrix(1,0,0,1,461.35,-1411.4)">
                <path d="M486.297,3780.78C487.034,3782.66 487.565,3784.52 488.032,3786.36C488.521,3788.21 488.897,3790.04 489.245,3791.86C489.596,3793.69 489.874,3795.5 490.108,3797.3C490.355,3799.11 490.543,3800.91 490.686,3802.7C491.288,3809.87 491.249,3816.95 490.769,3824C490.275,3831.04 489.319,3838.06 487.722,3845.07C487.332,3846.83 486.89,3848.58 486.392,3850.33C485.907,3852.09 485.375,3853.84 484.771,3855.6C484.168,3857.36 483.537,3859.11 482.79,3860.87C482.066,3862.63 481.275,3864.4 480.275,3866.16C478.479,3862.55 477.34,3858.94 476.352,3855.32C475.405,3851.7 474.713,3848.08 474.24,3844.46C473.292,3837.21 473.162,3829.98 473.671,3822.79C474.196,3815.6 475.339,3808.46 477.299,3801.42C478.278,3797.9 479.469,3794.41 480.912,3790.96C482.395,3787.51 484.024,3784.1 486.297,3780.78Z" style="fill:rgb(184,161,169);fill-rule:nonzero;"/>
            </g>
            <g transform="matrix(1,0,0,1,461.35,-1411.4)">
                <path d="M558.557,3635.07C560.718,3636.66 562.698,3638.36 564.62,3640.09C566.576,3641.79 568.435,3643.54 570.264,3645.31C572.099,3647.08 573.9,3648.85 575.636,3650.67C577.425,3652.45 579.135,3654.28 580.821,3656.12C587.607,3663.45 593.968,3671.01 600.116,3678.74C606.252,3686.48 612.155,3694.4 617.744,3702.67C619.154,3704.73 620.538,3706.82 621.864,3708.97C623.234,3711.07 624.554,3713.23 625.851,3715.42C627.151,3717.61 628.435,3719.82 629.643,3722.12C630.881,3724.38 632.078,3726.7 633.133,3729.18C628.296,3726.89 623.925,3724.09 619.675,3721.15C615.476,3718.16 611.451,3714.97 607.615,3711.59C599.955,3704.83 592.998,3697.36 586.683,3689.38C580.378,3681.4 574.695,3672.92 569.862,3663.91C567.45,3659.41 565.265,3654.76 563.31,3649.99C561.413,3645.18 559.684,3640.29 558.557,3635.07Z" style="fill:rgb(184,161,169);fill-rule:nonzero;"/>
            </g>
            <g transform="matrix(1,0,0,1,461.35,-1411.4)">
                <path d="M505.55,3685.81C507.174,3687.05 508.597,3688.35 509.953,3689.65C511.37,3690.93 512.675,3692.24 513.945,3693.55C515.26,3694.83 516.5,3696.14 517.695,3697.46C518.942,3698.74 520.129,3700.05 521.271,3701.37C525.943,3706.59 530.277,3711.84 534.529,3717.17C538.772,3722.51 542.907,3727.92 546.938,3733.65C547.968,3735.05 548.968,3736.51 549.94,3738.01C550.952,3739.48 551.94,3740.98 552.894,3742.55C553.878,3744.09 554.856,3745.66 555.778,3747.33C556.744,3748.95 557.682,3750.63 558.518,3752.5C556.527,3752.16 554.639,3751.64 552.777,3751.05C550.945,3750.42 549.168,3749.7 547.397,3748.94C545.671,3748.13 543.979,3747.25 542.311,3746.33C540.679,3745.37 539.076,3744.35 537.502,3743.3C531.277,3739 525.787,3733.73 521.107,3727.83C516.438,3721.93 512.552,3715.39 509.777,3708.35C509.106,3706.58 508.48,3704.79 507.913,3702.98C507.394,3701.15 506.92,3699.3 506.521,3697.44C506.179,3695.54 505.872,3693.65 505.675,3691.72C505.521,3689.78 505.435,3687.82 505.55,3685.81Z" style="fill:rgb(184,161,169);fill-rule:nonzero;"/>
            </g>
            <g transform="matrix(1,0,0,1,461.35,-1411.4)">
                <path d="M597.407,3792.94C599.181,3793.35 600.797,3793.9 602.36,3794.49C603.949,3795.05 605.451,3795.69 606.927,3796.34C608.414,3796.98 609.844,3797.66 611.239,3798.38C612.653,3799.08 614.021,3799.81 615.355,3800.58C620.729,3803.6 625.688,3806.98 630.441,3810.64C635.187,3814.3 639.707,3818.25 643.991,3822.68C645.07,3823.78 646.125,3824.92 647.155,3826.11C648.2,3827.28 649.224,3828.49 650.217,3829.77C651.218,3831.04 652.21,3832.33 653.152,3833.73C654.113,3835.1 655.048,3836.53 655.89,3838.14C652.281,3838.19 648.971,3837.63 645.728,3836.9C644.121,3836.51 642.545,3836.06 640.99,3835.56C639.447,3835.04 637.929,3834.48 636.436,3833.86C630.483,3831.38 624.989,3828.09 619.96,3824.2C614.939,3820.3 610.365,3815.81 606.469,3810.67C605.501,3809.38 604.568,3808.06 603.68,3806.69C602.808,3805.31 601.97,3803.91 601.189,3802.45C599.664,3799.5 598.278,3796.44 597.407,3792.94Z" style="fill:rgb(184,161,169);fill-rule:nonzero;"/>
            </g>
            <g transform="matrix(1,0,0,1,461.35,-1411.4)">
                <path d="M459.072,3330.88C459.502,3332.53 459.724,3334.15 459.875,3335.77C459.978,3337.37 459.965,3338.96 459.915,3340.56C459.802,3342.13 459.612,3343.69 459.373,3345.24C459.081,3346.77 458.726,3348.29 458.324,3349.8C456.616,3355.8 453.712,3361.38 449.982,3366.31C446.243,3371.24 441.646,3375.53 436.335,3378.79C434.99,3379.59 433.617,3380.33 432.22,3381.03C430.785,3381.67 429.331,3382.27 427.849,3382.8C426.321,3383.28 424.793,3383.71 423.22,3384.04C421.617,3384.33 419.997,3384.55 418.292,3384.57C418.934,3382.95 419.659,3381.53 420.403,3380.18C421.104,3378.78 421.85,3377.48 422.597,3376.22C423.314,3374.92 424.059,3373.69 424.822,3372.5C425.546,3371.28 426.294,3370.1 427.069,3368.98C430.08,3364.38 433.15,3360.13 436.333,3355.94C439.526,3351.77 442.799,3347.67 446.428,3343.53C447.307,3342.49 448.234,3341.45 449.224,3340.42C450.157,3339.37 451.14,3338.32 452.2,3337.28C453.212,3336.22 454.261,3335.15 455.426,3334.1C456.524,3333.02 457.693,3331.94 459.072,3330.88Z" style="fill:rgb(184,161,169);fill-rule:nonzero;"/>
            </g>
        </g>
    </g>
</svg>
