<?xml version="1.0" encoding="UTF-8" standalone="no"?>
<!DOCTYPE svg PUBLIC "-//W3C//DTD SVG 1.1//EN" "http://www.w3.org/Graphics/SVG/1.1/DTD/svg11.dtd">
<svg width="100%" height="100%" viewBox="0 0 641 2521" version="1.1" xmlns="http://www.w3.org/2000/svg" xmlns:xlink="http://www.w3.org/1999/xlink" xml:space="preserve" xmlns:serif="http://www.serif.com/" style="fill-rule:evenodd;clip-rule:evenodd;stroke-linejoin:round;stroke-miterlimit:2;">
    <g transform="matrix(1,0,0,1,-510.319,-721.222)">
        <g transform="matrix(1,0,0,1,-1082.98,298.178)">
            <g transform="matrix(1,0,0,2.10478,-1397.11,-2211.34)">
                <path d="M3521.77,2347.18C3438.76,2342.61 3356.32,2327.67 3277.05,2302.64C3357.3,2294.58 3438.2,2284.01 3514.38,2258.14C3511.59,2222.62 3508.87,2185.73 3506.23,2148.21C3447.13,2141.34 3388.84,2127.38 3333.09,2106.57C3389.66,2103.65 3446.11,2098.79 3502.35,2092.02C3500.78,2068.81 3499.25,2045.5 3497.75,2022.25C3439.02,2017.36 3380.83,2005.92 3324.64,1988.16C3365.07,1983.83 3405.32,1977.82 3445.25,1970.14C3461.51,1967.01 3477.9,1963.55 3493.73,1958.65C3491.71,1926.06 3489.79,1893.94 3487.95,1862.75C3428.31,1868.05 3368.27,1864.45 3311.72,1845.67C3371.7,1848.16 3432.25,1833.4 3484.56,1804C3482.48,1767.5 3480.56,1732.87 3478.84,1700.99C3438.08,1700.79 3396.51,1697.29 3356.11,1700.39C3398.05,1690.19 3438.58,1674.29 3476.29,1653.32C3471.54,1563.38 3468.77,1504.88 3468.77,1504.88L3152.95,1504.88C3152.95,1504.88 3150.58,1554.66 3146.5,1632.97C3156.76,1637.06 3167.45,1640.06 3178.18,1642.73C3219.06,1652.91 3261.05,1658.61 3303.17,1659.69C3301.29,1662.79 3297.79,1664.47 3294.44,1665.87C3261.76,1679.57 3226,1683.67 3190.79,1687.63C3175.06,1689.4 3159.19,1691.17 3143.38,1691.61C3141.98,1717.59 3140.45,1745.51 3138.81,1774.89C3196.29,1795.43 3257.41,1805.84 3318.48,1805.4C3282.54,1816.35 3245.61,1824.84 3208.08,1826.51C3184.01,1827.57 3159.62,1825.74 3136.23,1820.13C3134.46,1851.12 3132.57,1883.34 3130.58,1916.25C3180.75,1937.87 3237.27,1943.61 3292.3,1945.47C3288.9,1949.45 3283.5,1951 3278.44,1952.34C3247.24,1960.63 3215.88,1968.94 3183.76,1972.05C3164.99,1973.88 3145.84,1973.84 3127.22,1971.04C3125.74,1994.67 3124.23,2018.49 3122.67,2042.33C3174.49,2059.81 3230.61,2063.6 3285.61,2065.31C3259.68,2071.23 3233.66,2076.79 3207.56,2081.98C3178.72,2087.72 3148.38,2092.86 3119.5,2090.09C3117.08,2125.93 3114.59,2161.56 3112.02,2196.33C3168.63,2211.9 3227.27,2220.12 3285.99,2220.68C3230.04,2242.77 3168.14,2249.38 3108.73,2240.15C3106.15,2273.61 3103.53,2306 3100.87,2336.7C3158.67,2359.09 3220.48,2371.13 3282.47,2371.95C3280.14,2377.49 3273.93,2380.12 3268.26,2382.1C3212.74,2401.47 3153.24,2409.19 3094.59,2405.09C3093.11,2420.39 3091.61,2435.05 3090.1,2448.94L3531.61,2448.94C3528.3,2418.32 3525,2384.03 3521.77,2347.18Z" style="fill:rgb(244,145,43);fill-rule:nonzero;"/>
            </g>
            <g transform="matrix(1,0,0,2.10478,-1397.11,-2211.34)">
                <path d="M3208.08,1826.51C3245.61,1824.84 3282.54,1816.35 3318.48,1805.4C3257.41,1805.84 3196.29,1795.43 3138.81,1774.89C3137.97,1789.62 3137.12,1804.73 3136.23,1820.13C3159.62,1825.74 3184.01,1827.57 3208.08,1826.51Z" style="fill:rgb(108,63,38);fill-rule:nonzero;"/>
            </g>
            <g transform="matrix(1,0,0,2.10478,-1397.11,-2211.34)">
                <path d="M3183.76,1972.05C3215.88,1968.94 3247.24,1960.63 3278.44,1952.34C3283.5,1951 3288.9,1949.45 3292.3,1945.47C3237.27,1943.61 3180.75,1937.87 3130.58,1916.25C3129.49,1934.33 3128.37,1952.62 3127.22,1971.04C3145.84,1973.84 3164.99,1973.88 3183.76,1972.05Z" style="fill:rgb(108,63,38);fill-rule:nonzero;"/>
            </g>
            <g transform="matrix(1,0,0,2.10478,-1397.11,-2211.34)">
                <path d="M3207.56,2081.98C3233.66,2076.79 3259.68,2071.23 3285.61,2065.31C3230.61,2063.6 3174.49,2059.81 3122.67,2042.33C3121.63,2058.26 3120.57,2074.2 3119.5,2090.09C3148.38,2092.86 3178.72,2087.72 3207.56,2081.98Z" style="fill:rgb(108,63,38);fill-rule:nonzero;"/>
            </g>
            <g transform="matrix(1,0,0,2.10478,-1397.11,-2211.34)">
                <path d="M3285.99,2220.68C3227.27,2220.12 3168.63,2211.9 3112.02,2196.33C3110.94,2211.11 3109.84,2225.74 3108.73,2240.15C3168.14,2249.38 3230.04,2242.77 3285.99,2220.68Z" style="fill:rgb(108,63,38);fill-rule:nonzero;"/>
            </g>
            <g transform="matrix(1,0,0,2.10478,-1397.11,-2211.34)">
                <path d="M3268.26,2382.1C3273.93,2380.12 3280.14,2377.49 3282.47,2371.95C3220.48,2371.13 3158.67,2359.09 3100.87,2336.7C3098.8,2360.61 3096.7,2383.5 3094.59,2405.09C3153.24,2409.19 3212.74,2401.47 3268.26,2382.1Z" style="fill:rgb(108,63,38);fill-rule:nonzero;"/>
            </g>
            <g transform="matrix(1,0,0,2.10478,-1397.11,-2211.34)">
                <path d="M3506.23,2148.21C3504.91,2129.6 3503.62,2110.84 3502.35,2092.02C3446.11,2098.79 3389.66,2103.65 3333.09,2106.57C3388.84,2127.38 3447.13,2141.34 3506.23,2148.21Z" style="fill:rgb(108,63,38);fill-rule:nonzero;"/>
            </g>
            <g transform="matrix(1,0,0,2.10478,-1397.11,-2211.34)">
                <path d="M3324.64,1988.16C3380.83,2005.92 3439.02,2017.36 3497.75,2022.25C3496.37,2000.95 3495.03,1979.7 3493.73,1958.65C3477.9,1963.55 3461.51,1967.01 3445.25,1970.14C3405.32,1977.82 3365.07,1983.83 3324.64,1988.16Z" style="fill:rgb(108,63,38);fill-rule:nonzero;"/>
            </g>
            <g transform="matrix(1,0,0,2.10478,-1397.11,-2211.34)">
                <path d="M3311.72,1845.67C3368.27,1864.45 3428.31,1868.05 3487.95,1862.75C3486.78,1842.74 3485.64,1823.11 3484.56,1804C3432.25,1833.4 3371.7,1848.16 3311.72,1845.67Z" style="fill:rgb(108,63,38);fill-rule:nonzero;"/>
            </g>
            <g transform="matrix(1,0,0,2.10478,-1397.11,-2211.34)">
                <path d="M3478.84,1700.99C3477.94,1684.3 3477.09,1668.37 3476.29,1653.32C3438.58,1674.29 3398.05,1690.19 3356.11,1700.39C3396.51,1697.29 3438.08,1700.79 3478.84,1700.99Z" style="fill:rgb(108,63,38);fill-rule:nonzero;"/>
            </g>
            <g transform="matrix(1,0,0,2.10478,-1397.11,-2211.34)">
                <path d="M3294.44,1665.87C3297.79,1664.47 3301.29,1662.79 3303.17,1659.69C3261.05,1658.61 3219.06,1652.91 3178.18,1642.73C3167.45,1640.06 3156.76,1637.06 3146.5,1632.97C3146.21,1638.42 3145.92,1644.01 3145.62,1649.73C3145.05,1660.34 3144.46,1671.4 3143.85,1682.87C3143.7,1685.76 3143.54,1688.67 3143.38,1691.61C3159.19,1691.17 3175.06,1689.4 3190.79,1687.63C3226,1683.67 3261.76,1679.57 3294.44,1665.87Z" style="fill:rgb(108,63,38);fill-rule:nonzero;"/>
            </g>
            <g transform="matrix(1,0,0,2.10478,-1397.11,-2211.34)">
                <path d="M3521.77,2347.18C3521.69,2346.34 3521.62,2345.49 3521.54,2344.64C3520.07,2327.88 3518.61,2310.61 3517.16,2292.9C3516.23,2281.48 3515.3,2269.88 3514.38,2258.14C3438.2,2284.01 3357.3,2294.58 3277.05,2302.64C3356.32,2327.67 3438.76,2342.61 3521.77,2347.18Z" style="fill:rgb(108,63,38);fill-rule:nonzero;"/>
            </g>
            <g transform="matrix(1,0,0,1,-1397.11,-548.777)">
                <path d="M3183.82,1089.13L3207.17,1085.26C3210.85,1015.09 3190.35,971.82 3190.35,971.82C3174.18,1029.39 3183.82,1089.13 3183.82,1089.13Z" style="fill:rgb(219,219,219);fill-rule:nonzero;"/>
            </g>
            <g transform="matrix(1,0,0,1,-1397.11,-548.777)">
                <path d="M3437.9,1089.13L3414.55,1085.26C3410.87,1015.09 3431.36,971.82 3431.36,971.82C3447.54,1029.39 3437.9,1089.13 3437.9,1089.13Z" style="fill:rgb(219,219,219);fill-rule:nonzero;"/>
            </g>
            <g transform="matrix(1,0,0,1,-1397.11,-548.777)">
                <path d="M3056.69,1254.57L3073.91,1238.34C3037.84,1178.05 2996.69,1153.56 2996.69,1153.56C3015.37,1210.36 3056.69,1254.57 3056.69,1254.57Z" style="fill:rgb(219,219,219);fill-rule:nonzero;"/>
            </g>
            <g transform="matrix(1,0,0,1,-1397.11,-548.777)">
                <path d="M3565.03,1254.57L3547.8,1238.34C3583.88,1178.05 3625.02,1153.56 3625.02,1153.56C3606.34,1210.36 3565.03,1254.57 3565.03,1254.57Z" style="fill:rgb(219,219,219);fill-rule:nonzero;"/>
            </g>
            <g transform="matrix(1,0,0,1,-1397.11,-548.777)">
                <path d="M3631.27,1291.71C3630.93,1276.75 3628.5,1262.53 3624.03,1249.45C3612.8,1216.5 3589.31,1193.38 3559.61,1186.02C3553.09,1184.4 3546.36,1183.58 3539.62,1183.58C3533.9,1183.58 3528.21,1184.17 3522.58,1185.31C3525.68,1151.79 3520.29,1118.86 3507.23,1092.06C3499.51,1076.24 3489.45,1063.03 3477.3,1052.81C3462.95,1040.72 3445.93,1033.22 3428.08,1031.1C3424.56,1030.68 3420.98,1030.47 3417.45,1030.47C3408.76,1030.47 3400.04,1031.73 3391.55,1034.22C3383.74,1036.51 3376.08,1039.85 3368.79,1044.14C3355.85,1051.77 3344.15,1062.29 3334,1075.43C3324.8,1087.35 3317.13,1101.1 3311.23,1116.28C3311.11,1116.61 3310.98,1116.93 3310.86,1117.26C3310.73,1116.93 3310.61,1116.61 3310.48,1116.28C3304.58,1101.1 3296.92,1087.35 3287.71,1075.43C3277.57,1062.29 3265.87,1051.77 3252.93,1044.14C3245.63,1039.85 3237.98,1036.51 3230.16,1034.22C3221.67,1031.73 3212.96,1030.47 3204.27,1030.47C3200.73,1030.47 3197.16,1030.68 3193.64,1031.1C3175.79,1033.22 3158.77,1040.72 3144.42,1052.81C3132.27,1063.03 3122.2,1076.24 3114.49,1092.06C3101.43,1118.86 3096.03,1151.79 3099.14,1185.31C3093.51,1184.17 3087.81,1183.58 3082.09,1183.58C3075.35,1183.58 3068.63,1184.4 3062.11,1186.02C3032.4,1193.38 3008.92,1216.5 2997.68,1249.45C2993.22,1262.53 2990.79,1276.75 2990.45,1291.71C2990.11,1306.36 2991.8,1321.29 2995.47,1336.08C2998.7,1349.13 3003.29,1361.19 3009.09,1371.93C3015.2,1383.25 3022.7,1393.17 3031.37,1401.42C3040.53,1410.14 3050.89,1416.92 3062.15,1421.55C3073.61,1426.27 3085.71,1428.67 3098.09,1428.67C3098.19,1428.67 3098.3,1428.66 3098.4,1428.66C3098.19,1432.65 3098.08,1436.6 3098.08,1440.51C3098.08,1470.85 3104.52,1498.21 3117.23,1521.82C3129.66,1544.92 3147.76,1563.97 3171.02,1578.46C3190.24,1590.42 3213.12,1599.23 3239.03,1604.64C3260.5,1609.12 3284.67,1611.4 3310.86,1611.4C3337.05,1611.4 3361.22,1609.12 3382.69,1604.64C3408.59,1599.23 3431.47,1590.42 3450.69,1578.46C3473.96,1563.97 3492.06,1544.92 3504.49,1521.82C3517.2,1498.21 3523.64,1470.85 3523.64,1440.51C3523.64,1436.6 3523.53,1432.65 3523.32,1428.66C3523.42,1428.66 3523.52,1428.67 3523.62,1428.67L3523.63,1428.67C3536.01,1428.67 3548.1,1426.27 3559.56,1421.56C3570.83,1416.92 3581.19,1410.14 3590.35,1401.42C3599.02,1393.17 3606.51,1383.25 3612.63,1371.93C3618.43,1361.19 3623.01,1349.13 3626.25,1336.08C3629.91,1321.29 3631.6,1306.36 3631.27,1291.71Z" style="fill:rgb(244,145,43);fill-rule:nonzero;"/>
            </g>
            <g transform="matrix(1,0,0,1,-1397.11,-548.777)">
                <path d="M3143.77,1299.33C3154.51,1342.67 3137.68,1371.53 3109.8,1378.44C3081.92,1385.35 3053.55,1367.69 3042.81,1324.35C3032.07,1281 3045.96,1240.27 3073.84,1233.36C3101.72,1226.45 3133.03,1255.98 3143.77,1299.33Z" style="fill:rgb(108,63,38);fill-rule:nonzero;"/>
            </g>
            <g transform="matrix(1,0,0,1,-1397.11,-548.777)">
                <path d="M3273.84,1169.8C3280.25,1223.78 3255.54,1256.08 3220.82,1260.2C3186.1,1264.32 3154.52,1238.69 3148.12,1184.72C3141.71,1130.75 3164.67,1083.65 3199.39,1079.53C3234.1,1075.41 3267.44,1115.83 3273.84,1169.8Z" style="fill:rgb(108,63,38);fill-rule:nonzero;"/>
            </g>
            <g transform="matrix(1,0,0,1,-1397.11,-548.777)">
                <path d="M3477.94,1299.33C3467.2,1342.67 3484.04,1371.53 3511.92,1378.44C3539.8,1385.35 3568.17,1367.69 3578.91,1324.35C3589.65,1281 3575.75,1240.27 3547.87,1233.36C3519.99,1226.45 3488.68,1255.98 3477.94,1299.33Z" style="fill:rgb(108,63,38);fill-rule:nonzero;"/>
            </g>
            <g transform="matrix(1,0,0,1,-1397.11,-548.777)">
                <path d="M3347.87,1169.8C3341.47,1223.78 3366.18,1256.08 3400.9,1260.2C3435.62,1264.32 3467.2,1238.69 3473.6,1184.72C3480,1130.75 3457.05,1083.65 3422.33,1079.53C3387.61,1075.41 3354.28,1115.83 3347.87,1169.8Z" style="fill:rgb(108,63,38);fill-rule:nonzero;"/>
            </g>
            <g transform="matrix(1,0,0,1,-1397.11,-548.777)">
                <path d="M3436.58,1460.89C3436.58,1530.32 3380.29,1552.25 3310.86,1552.25C3241.43,1552.25 3185.14,1530.32 3185.14,1460.89C3185.14,1391.45 3241.43,1292.35 3310.86,1292.35C3380.29,1292.35 3436.58,1391.45 3436.58,1460.89Z" style="fill:rgb(108,63,38);fill-rule:nonzero;"/>
            </g>
        </g>
    </g>
</svg>
