<?xml version="1.0" encoding="UTF-8" standalone="no"?>
<!DOCTYPE svg PUBLIC "-//W3C//DTD SVG 1.1//EN" "http://www.w3.org/Graphics/SVG/1.1/DTD/svg11.dtd">
<svg width="100%" height="100%" viewBox="0 0 641 2461" version="1.1" xmlns="http://www.w3.org/2000/svg" xmlns:xlink="http://www.w3.org/1999/xlink" xml:space="preserve" xmlns:serif="http://www.serif.com/" style="fill-rule:evenodd;clip-rule:evenodd;stroke-linejoin:round;stroke-miterlimit:2;">
    <g transform="matrix(1,0,0,1,-873.076,-641.515)">
        <g transform="matrix(1,0,0,1,-1702.84,162.455)">
            <g transform="matrix(1,0,0,2.0418,-1181.89,-2060.53)">
                <path d="M4053.58,2081.81C4053.58,1998.96 4095.34,1931.8 4146.86,1931.8C4198.37,1931.8 4240.13,1998.96 4240.13,2081.81C4240.13,2164.66 4198.37,2231.82 4146.86,2231.82C4095.34,2231.82 4053.58,2164.66 4053.58,2081.81ZM4089.38,1631.77C4115.4,1631.77 4136.5,1656.07 4136.5,1686.05C4136.5,1716.03 4115.4,1740.33 4089.38,1740.33C4063.35,1740.33 4042.25,1716.03 4042.25,1686.05C4042.25,1656.07 4063.35,1631.77 4089.38,1631.77ZM4244.17,2279.2C4258.05,2279.2 4271.42,2281.37 4283.95,2285.4C4275.71,2183.58 4267.92,2068.36 4261.1,1958.31L4261.1,1958.3C4216.09,1950.67 4181.5,1905.04 4181.5,1849.89C4181.5,1799.95 4209.85,1757.82 4248.63,1744.62C4240.91,1604.99 4236.17,1504.87 4236.17,1504.87L3920.34,1504.87C3920.34,1504.87 3917.53,1564.35 3912.7,1655.56C3914.22,1655.49 3915.75,1655.45 3917.29,1655.45C3980.58,1655.45 4031.89,1719.52 4031.89,1798.56C4031.89,1877.6 3980.58,1941.67 3917.29,1941.67C3910.22,1941.67 3903.29,1940.87 3896.58,1939.33C3894.42,1974.45 3892.17,2010.2 3889.83,2045.99C3902.69,2036.04 3917.05,2030.49 3932.21,2030.49C3987.26,2030.49 4031.89,2103.84 4031.89,2194.32C4031.89,2284.79 3987.26,2358.15 3932.21,2358.15C3908.46,2358.15 3886.67,2344.51 3869.55,2321.74C3865.6,2368.31 3861.56,2411.37 3857.5,2448.94L4120.48,2448.94C4116.44,2436.39 4114.25,2423 4114.25,2409.1C4114.25,2337.36 4172.42,2279.2 4244.17,2279.2Z" style="fill:rgb(229,229,229);fill-rule:nonzero;"/>
            </g>
            <g transform="matrix(1,0,0,2.0418,-1181.89,-2060.53)">
                <path d="M4031.89,1798.56C4031.89,1719.52 3980.58,1655.45 3917.29,1655.45C3915.75,1655.45 3914.22,1655.49 3912.7,1655.56C3908.61,1732.96 3903.07,1833.21 3896.58,1939.33C3903.29,1940.87 3910.22,1941.67 3917.29,1941.67C3980.58,1941.67 4031.89,1877.6 4031.89,1798.56Z" style="fill:rgb(254,150,149);fill-rule:nonzero;"/>
            </g>
            <g transform="matrix(1,0,0,2.0418,-1181.89,-2060.53)">
                <path d="M4089.38,1740.33C4115.4,1740.33 4136.5,1716.03 4136.5,1686.05C4136.5,1656.07 4115.4,1631.77 4089.38,1631.77C4063.35,1631.77 4042.25,1656.07 4042.25,1686.05C4042.25,1716.03 4063.35,1740.33 4089.38,1740.33Z" style="fill:rgb(254,150,149);fill-rule:nonzero;"/>
            </g>
            <g transform="matrix(1,0,0,2.0418,-1181.89,-2060.53)">
                <path d="M4181.5,1849.89C4181.5,1905.04 4216.09,1950.67 4261.1,1958.3C4256.42,1882.61 4252.2,1809.37 4248.63,1744.62C4209.85,1757.82 4181.5,1799.95 4181.5,1849.89Z" style="fill:rgb(254,150,149);fill-rule:nonzero;"/>
            </g>
            <g transform="matrix(1,0,0,2.0418,-1181.89,-2060.53)">
                <path d="M4240.13,2081.81C4240.13,1998.96 4198.37,1931.8 4146.86,1931.8C4095.34,1931.8 4053.58,1998.96 4053.58,2081.81C4053.58,2164.66 4095.34,2231.82 4146.86,2231.82C4198.37,2231.82 4240.13,2164.66 4240.13,2081.81Z" style="fill:rgb(254,150,149);fill-rule:nonzero;"/>
            </g>
            <g transform="matrix(1,0,0,2.0418,-1181.89,-2060.53)">
                <path d="M3932.21,2358.15C3987.26,2358.15 4031.89,2284.79 4031.89,2194.32C4031.89,2103.84 3987.26,2030.49 3932.21,2030.49C3917.05,2030.49 3902.69,2036.04 3889.83,2045.99L3889.83,2046C3883.57,2141.61 3876.7,2237.43 3869.55,2321.73L3869.55,2321.74C3886.67,2344.51 3908.46,2358.15 3932.21,2358.15Z" style="fill:rgb(254,150,149);fill-rule:nonzero;"/>
            </g>
            <g transform="matrix(1,0,0,2.0418,-1181.89,-2060.53)">
                <path d="M4283.95,2285.4C4271.42,2281.37 4258.05,2279.2 4244.17,2279.2C4172.42,2279.2 4114.25,2337.36 4114.25,2409.1C4114.25,2423 4116.44,2436.39 4120.48,2448.94L4299.01,2448.94C4293.91,2401.78 4288.85,2345.97 4283.95,2285.4Z" style="fill:rgb(254,150,149);fill-rule:nonzero;"/>
            </g>
            <g transform="matrix(1,0,0,1,-1181.89,-492.76)">
                <path d="M3951.21,1089.13L3974.57,1085.26C3978.24,1015.09 3957.75,971.82 3957.75,971.82C3941.58,1029.39 3951.21,1089.13 3951.21,1089.13Z" style="fill:rgb(219,219,219);fill-rule:nonzero;"/>
            </g>
            <g transform="matrix(1,0,0,1,-1181.89,-492.76)">
                <path d="M4205.3,1089.13L4181.95,1085.26C4178.27,1015.09 4198.76,971.82 4198.76,971.82C4214.93,1029.39 4205.3,1089.13 4205.3,1089.13Z" style="fill:rgb(219,219,219);fill-rule:nonzero;"/>
            </g>
            <g transform="matrix(1,0,0,1,-1181.89,-492.76)">
                <path d="M3824.09,1254.57L3841.31,1238.34C3805.23,1178.05 3764.09,1153.56 3764.09,1153.56C3782.77,1210.36 3824.09,1254.57 3824.09,1254.57Z" style="fill:rgb(219,219,219);fill-rule:nonzero;"/>
            </g>
            <g transform="matrix(1,0,0,1,-1181.89,-492.76)">
                <path d="M4332.43,1254.57L4315.2,1238.34C4351.28,1178.05 4392.42,1153.56 4392.42,1153.56C4373.74,1210.36 4332.43,1254.57 4332.43,1254.57Z" style="fill:rgb(219,219,219);fill-rule:nonzero;"/>
            </g>
            <g transform="matrix(1,0,0,1,-1181.89,-492.76)">
                <path d="M4398.67,1291.71C4398.33,1276.75 4395.89,1262.53 4391.43,1249.45C4380.2,1216.5 4356.71,1193.38 4327,1186.02C4320.49,1184.4 4313.76,1183.58 4307.02,1183.58C4301.3,1183.58 4295.6,1184.17 4289.97,1185.31C4293.08,1151.79 4287.69,1118.86 4274.63,1092.06C4266.91,1076.24 4256.84,1063.03 4244.7,1052.81C4230.35,1040.72 4213.32,1033.22 4195.47,1031.1C4191.96,1030.68 4188.38,1030.47 4184.84,1030.47C4176.15,1030.47 4167.44,1031.73 4158.95,1034.22C4151.14,1036.51 4143.48,1039.85 4136.19,1044.14C4123.25,1051.77 4111.54,1062.29 4101.4,1075.43C4092.19,1087.35 4084.53,1101.1 4078.63,1116.28C4078.5,1116.61 4078.38,1116.93 4078.26,1117.26C4078.13,1116.93 4078.01,1116.61 4077.88,1116.28C4071.98,1101.1 4064.32,1087.35 4055.11,1075.43C4044.97,1062.29 4033.26,1051.77 4020.32,1044.14C4013.03,1039.85 4005.37,1036.51 3997.56,1034.22C3989.07,1031.73 3980.36,1030.47 3971.67,1030.47C3968.13,1030.47 3964.55,1030.68 3961.04,1031.1C3943.19,1033.22 3926.17,1040.72 3911.82,1052.81C3899.67,1063.03 3889.6,1076.24 3881.89,1092.06C3868.82,1118.86 3863.43,1151.79 3866.54,1185.31C3860.91,1184.17 3855.21,1183.58 3849.49,1183.58C3842.75,1183.58 3836.03,1184.4 3829.51,1186.02C3799.8,1193.38 3776.32,1216.5 3765.08,1249.45C3760.62,1262.53 3758.18,1276.75 3757.84,1291.71C3757.51,1306.36 3759.2,1321.29 3762.87,1336.08C3766.1,1349.13 3770.68,1361.19 3776.49,1371.94C3782.6,1383.25 3790.1,1393.17 3798.77,1401.42C3807.93,1410.14 3818.28,1416.92 3829.55,1421.56C3841.01,1426.27 3853.1,1428.67 3865.49,1428.67C3865.59,1428.67 3865.69,1428.66 3865.8,1428.66C3865.58,1432.65 3865.47,1436.6 3865.47,1440.51C3865.47,1470.85 3871.92,1498.21 3884.63,1521.82C3897.06,1544.92 3915.16,1563.98 3938.42,1578.46C3957.64,1590.42 3980.52,1599.23 4006.42,1604.64C4027.9,1609.12 4052.06,1611.4 4078.26,1611.4C4104.45,1611.4 4128.62,1609.12 4150.09,1604.64C4175.99,1599.23 4198.87,1590.42 4218.09,1578.46C4241.35,1563.98 4259.45,1544.92 4271.89,1521.82C4284.59,1498.21 4291.04,1470.85 4291.04,1440.51C4291.04,1436.6 4290.93,1432.65 4290.72,1428.66C4290.82,1428.66 4290.92,1428.67 4291.02,1428.67C4303.41,1428.67 4315.5,1426.27 4326.96,1421.56C4338.23,1416.92 4348.58,1410.14 4357.75,1401.42C4366.42,1393.17 4373.91,1383.25 4380.02,1371.94C4385.83,1361.19 4390.41,1349.13 4393.64,1336.08C4397.31,1321.29 4399,1306.36 4398.67,1291.71Z" style="fill:rgb(229,229,229);fill-rule:nonzero;"/>
            </g>
            <g transform="matrix(1,0,0,1,-1181.89,-492.76)">
                <path d="M3911.17,1299.33C3921.91,1342.67 3905.07,1371.53 3877.19,1378.44C3849.31,1385.35 3820.95,1367.69 3810.21,1324.35C3799.46,1281.01 3813.36,1240.27 3841.24,1233.36C3869.12,1226.45 3900.43,1255.98 3911.17,1299.33Z" style="fill:rgb(254,150,149);fill-rule:nonzero;"/>
            </g>
            <g transform="matrix(1,0,0,1,-1181.89,-492.76)">
                <path d="M4041.24,1169.81C4047.64,1223.78 4022.94,1256.08 3988.22,1260.2C3953.5,1264.32 3921.92,1238.7 3915.51,1184.72C3909.11,1130.75 3932.06,1083.65 3966.78,1079.53C4001.5,1075.41 4034.84,1115.83 4041.24,1169.81Z" style="fill:rgb(254,150,149);fill-rule:nonzero;"/>
            </g>
            <g transform="matrix(1,0,0,1,-1181.89,-492.76)">
                <path d="M4245.34,1299.33C4234.6,1342.67 4251.44,1371.53 4279.32,1378.44C4307.2,1385.35 4335.56,1367.69 4346.3,1324.35C4357.05,1281.01 4343.15,1240.27 4315.27,1233.36C4287.39,1226.45 4256.08,1255.98 4245.34,1299.33Z" style="fill:rgb(254,150,149);fill-rule:nonzero;"/>
            </g>
            <g transform="matrix(1,0,0,1,-1181.89,-492.76)">
                <path d="M4115.27,1169.81C4108.87,1223.78 4133.58,1256.08 4168.29,1260.2C4203.01,1264.32 4234.59,1238.7 4241,1184.72C4247.4,1130.75 4224.45,1083.65 4189.73,1079.53C4155.01,1075.41 4121.67,1115.83 4115.27,1169.81Z" style="fill:rgb(254,150,149);fill-rule:nonzero;"/>
            </g>
            <g transform="matrix(1,0,0,1,-1181.89,-492.76)">
                <path d="M4203.97,1460.89C4203.97,1530.32 4147.69,1552.25 4078.26,1552.25C4008.82,1552.25 3952.54,1530.32 3952.54,1460.89C3952.54,1391.46 4008.82,1292.35 4078.26,1292.35C4147.69,1292.35 4203.97,1391.46 4203.97,1460.89Z" style="fill:rgb(254,150,149);fill-rule:nonzero;"/>
            </g>
        </g>
    </g>
</svg>
