<?xml version="1.0" encoding="UTF-8" standalone="no"?>
<!DOCTYPE svg PUBLIC "-//W3C//DTD SVG 1.1//EN" "http://www.w3.org/Graphics/SVG/1.1/DTD/svg11.dtd">
<svg width="100%" height="100%" viewBox="0 0 641 2463" version="1.1" xmlns="http://www.w3.org/2000/svg" xmlns:xlink="http://www.w3.org/1999/xlink" xml:space="preserve" xmlns:serif="http://www.serif.com/" style="fill-rule:evenodd;clip-rule:evenodd;stroke-linejoin:round;stroke-miterlimit:2;">
    <g transform="matrix(1,0,0,1,-1357.95,-866.272)">
        <g transform="matrix(1,0,0,1,-2165.15,393.146)">
            <g transform="matrix(1,0,0,2.04422,-997.571,-2070.11)">
                <path d="M5049.91,2322.79C4998.04,2319.68 4946.58,2309.54 4897.45,2292.61C4887.26,2289.1 4876.24,2284.49 4871.52,2274.81C4867.11,2265.72 4869.81,2254.38 4875.99,2246.38C4882.16,2238.39 4891.26,2233.19 4900.47,2229.03C4943.93,2209.36 4993,2208.65 5040.97,2210.04C5037.48,2163.25 5034.1,2114.77 5030.87,2066.13C5008.25,2063.95 4985.63,2061.77 4963.01,2059.6C4931.27,2056.55 4895.03,2050.86 4878.09,2023.84C4875.02,2018.92 4872.73,2012.92 4874.47,2007.38C4876.58,2000.67 4883.71,1997.06 4890.27,1994.5C4932.87,1977.85 4978.93,1974.61 5024.99,1974.75C5021.67,1921.64 5018.57,1869.51 5015.75,1820.43C4975.52,1818.52 4935.28,1816.62 4895.04,1814.71C4869.84,1813.52 4841.04,1810.46 4826.42,1789.89C4824.4,1787.06 4822.68,1783.74 4822.94,1780.26C4823.24,1776.51 4825.78,1773.3 4828.59,1770.8C4838.14,1762.3 4851.23,1759.28 4863.77,1756.82C4912.37,1747.26 4961.71,1741.47 5011.2,1739.5C5003.65,1602.56 4999.02,1504.87 4999.02,1504.87L4683.21,1504.87C4683.21,1504.87 4680.8,1555.7 4676.63,1635.44C4714.91,1639.12 4752.91,1646.22 4787.61,1662.42C4802.3,1669.27 4818.19,1681.21 4816.81,1697.35C4816.51,1700.78 4815.31,1704.26 4812.77,1706.57C4809.19,1709.81 4803.89,1710.06 4799.05,1710.13C4756.91,1710.69 4714.75,1710.93 4672.6,1710.85C4670.09,1757.13 4667.19,1808.83 4663.99,1863.38C4685.97,1867.38 4708.2,1869.98 4730.5,1871.16C4745.98,1871.98 4761.61,1872.13 4776.71,1875.59C4791.82,1879.06 4806.66,1886.25 4816.05,1898.58C4819.3,1902.84 4821.89,1907.93 4821.72,1913.28C4821.48,1920.35 4816.34,1926.52 4810.14,1929.94C4803.95,1933.36 4796.8,1934.52 4789.8,1935.56C4746.46,1942.02 4702.74,1945.94 4658.95,1947.31C4656.09,1993.81 4653.04,2041.34 4649.87,2088.5C4696.04,2090.14 4742.13,2094.26 4787.87,2100.81C4796.2,2102.01 4804.75,2103.37 4812,2107.64C4819.25,2111.91 4824.99,2119.82 4824.21,2128.2C4822.88,2142.48 4805.67,2148.57 4791.56,2151.18C4742.79,2160.22 4693.57,2166.8 4644.13,2170.92C4640.97,2214.87 4637.7,2257.72 4634.37,2298.28C4684.09,2297.86 4733.85,2301.95 4782.83,2310.5C4790.66,2311.86 4799.09,2313.68 4804.28,2319.69C4810.27,2326.62 4809.94,2337.43 4805.53,2345.45C4801.13,2353.47 4793.43,2359.15 4785.47,2363.67C4765.84,2374.83 4743.55,2380.46 4721.23,2383.83C4689.99,2388.56 4658.11,2389.08 4626.74,2385.42C4624.63,2407.93 4622.49,2429.2 4620.36,2448.94L5061.88,2448.94C5057.84,2411.66 5053.84,2368.96 5049.91,2322.79Z" style="fill:rgb(255,191,145);fill-rule:nonzero;"/>
            </g>
            <g transform="matrix(1,0,0,2.04422,-997.571,-2070.11)">
                <path d="M4799.05,1710.13C4803.89,1710.06 4809.19,1709.81 4812.77,1706.57C4815.31,1704.26 4816.51,1700.78 4816.81,1697.35C4818.19,1681.21 4802.3,1669.27 4787.61,1662.42C4752.91,1646.22 4714.91,1639.12 4676.63,1635.44C4675.42,1658.35 4674.08,1683.67 4672.6,1710.85C4714.75,1710.93 4756.91,1710.69 4799.05,1710.13Z" style="fill:rgb(155,75,0);fill-rule:nonzero;"/>
            </g>
            <g transform="matrix(1,0,0,2.04422,-997.571,-2070.11)">
                <path d="M4810.14,1929.94C4816.34,1926.52 4821.48,1920.35 4821.72,1913.28C4821.89,1907.93 4819.3,1902.84 4816.05,1898.58C4806.66,1886.25 4791.82,1879.06 4776.71,1875.59C4761.61,1872.13 4745.98,1871.98 4730.5,1871.16C4708.2,1869.98 4685.97,1867.38 4663.99,1863.38C4662.38,1890.74 4660.7,1918.83 4658.95,1947.31C4702.74,1945.94 4746.46,1942.02 4789.8,1935.56C4796.8,1934.52 4803.95,1933.36 4810.14,1929.94Z" style="fill:rgb(155,75,0);fill-rule:nonzero;"/>
            </g>
            <g transform="matrix(1,0,0,2.04422,-997.571,-2070.11)">
                <path d="M4824.21,2128.2C4824.99,2119.82 4819.25,2111.91 4812,2107.64C4804.75,2103.37 4796.2,2102.01 4787.87,2100.81C4742.13,2094.26 4696.04,2090.14 4649.87,2088.5C4648,2116.21 4646.08,2143.77 4644.13,2170.92C4693.57,2166.8 4742.79,2160.22 4791.56,2151.18C4805.67,2148.57 4822.88,2142.48 4824.21,2128.2Z" style="fill:rgb(155,75,0);fill-rule:nonzero;"/>
            </g>
            <g transform="matrix(1,0,0,2.04422,-997.571,-2070.11)">
                <path d="M4721.23,2383.83C4743.55,2380.46 4765.84,2374.83 4785.47,2363.67C4793.43,2359.15 4801.13,2353.47 4805.53,2345.45C4809.94,2337.43 4810.27,2326.62 4804.28,2319.69C4799.09,2313.68 4790.66,2311.86 4782.83,2310.5C4733.85,2301.95 4684.09,2297.86 4634.37,2298.28C4631.86,2328.81 4629.31,2358.03 4626.74,2385.42C4658.11,2389.08 4689.99,2388.56 4721.23,2383.83Z" style="fill:rgb(155,75,0);fill-rule:nonzero;"/>
            </g>
            <g transform="matrix(1,0,0,2.04422,-997.571,-2070.11)">
                <path d="M4828.59,1770.8C4825.78,1773.3 4823.24,1776.51 4822.94,1780.26C4822.68,1783.74 4824.4,1787.06 4826.42,1789.89C4841.04,1810.46 4869.84,1813.52 4895.04,1814.71C4935.28,1816.62 4975.52,1818.52 5015.75,1820.43C5014.14,1792.32 5012.62,1765.22 5011.2,1739.5C4961.71,1741.47 4912.37,1747.26 4863.77,1756.82C4851.23,1759.28 4838.14,1762.3 4828.59,1770.8Z" style="fill:rgb(155,75,0);fill-rule:nonzero;"/>
            </g>
            <g transform="matrix(1,0,0,2.04422,-997.571,-2070.11)">
                <path d="M4890.27,1994.5C4883.71,1997.06 4876.58,2000.67 4874.47,2007.38C4872.73,2012.92 4875.02,2018.92 4878.09,2023.84C4895.03,2050.86 4931.27,2056.55 4963.01,2059.6C4985.63,2061.77 5008.25,2063.95 5030.87,2066.13C5028.84,2035.6 5026.88,2005.01 5024.99,1974.75C4978.93,1974.61 4932.87,1977.85 4890.27,1994.5Z" style="fill:rgb(155,75,0);fill-rule:nonzero;"/>
            </g>
            <g transform="matrix(1,0,0,2.04422,-997.571,-2070.11)">
                <path d="M4900.47,2229.03C4891.26,2233.19 4882.16,2238.39 4875.99,2246.38C4869.81,2254.38 4867.11,2265.72 4871.52,2274.81C4876.24,2284.49 4887.26,2289.1 4897.45,2292.61C4946.58,2309.54 4998.04,2319.68 5049.91,2322.79C5046.88,2287 5043.88,2249.11 5040.97,2210.04C4993,2208.65 4943.93,2209.36 4900.47,2229.03Z" style="fill:rgb(155,75,0);fill-rule:nonzero;"/>
            </g>
            <g transform="matrix(1,0,0,1,-997.571,-498.694)">
                <path d="M4714.08,1089.13L4737.43,1085.26C4741.1,1015.09 4720.61,971.82 4720.61,971.82C4704.44,1029.39 4714.08,1089.13 4714.08,1089.13Z" style="fill:rgb(219,219,219);fill-rule:nonzero;"/>
            </g>
            <g transform="matrix(1,0,0,1,-997.571,-498.694)">
                <path d="M4968.16,1089.13L4944.81,1085.26C4941.13,1015.09 4961.62,971.82 4961.62,971.82C4977.79,1029.39 4968.16,1089.13 4968.16,1089.13Z" style="fill:rgb(219,219,219);fill-rule:nonzero;"/>
            </g>
            <g transform="matrix(1,0,0,1,-997.571,-498.694)">
                <path d="M4586.95,1254.57L4604.17,1238.34C4568.09,1178.05 4526.95,1153.56 4526.95,1153.56C4545.63,1210.36 4586.95,1254.57 4586.95,1254.57Z" style="fill:rgb(219,219,219);fill-rule:nonzero;"/>
            </g>
            <g transform="matrix(1,0,0,1,-997.571,-498.694)">
                <path d="M5095.29,1254.57L5078.06,1238.34C5114.14,1178.05 5155.28,1153.56 5155.28,1153.56C5136.6,1210.36 5095.29,1254.57 5095.29,1254.57Z" style="fill:rgb(219,219,219);fill-rule:nonzero;"/>
            </g>
            <g transform="matrix(1,0,0,1,-997.571,-498.694)">
                <path d="M5161.53,1291.71C5161.19,1276.75 5158.75,1262.53 5154.29,1249.45C5143.06,1216.5 5119.57,1193.38 5089.87,1186.02C5083.35,1184.4 5076.62,1183.58 5069.88,1183.58C5064.16,1183.58 5058.46,1184.17 5052.83,1185.31C5055.94,1151.79 5050.55,1118.86 5037.49,1092.06C5029.77,1076.24 5019.7,1063.03 5007.56,1052.81C4993.21,1040.72 4976.19,1033.22 4958.33,1031.1C4954.82,1030.68 4951.24,1030.47 4947.7,1030.47C4939.01,1030.47 4930.3,1031.73 4921.81,1034.22C4914,1036.51 4906.34,1039.85 4899.05,1044.14C4886.11,1051.77 4874.4,1062.29 4864.26,1075.43C4855.05,1087.35 4847.39,1101.1 4841.49,1116.28C4841.36,1116.61 4841.24,1116.93 4841.12,1117.26C4840.99,1116.93 4840.87,1116.61 4840.74,1116.28C4834.84,1101.1 4827.18,1087.35 4817.97,1075.43C4807.83,1062.29 4796.13,1051.77 4783.18,1044.14C4775.89,1039.85 4768.23,1036.51 4760.42,1034.22C4751.93,1031.73 4743.22,1030.47 4734.53,1030.47C4730.99,1030.47 4727.41,1030.68 4723.9,1031.1C4706.05,1033.22 4689.03,1040.72 4674.68,1052.81C4662.53,1063.03 4652.46,1076.24 4644.75,1092.06C4631.68,1118.86 4626.29,1151.79 4629.4,1185.31C4623.77,1184.17 4618.07,1183.58 4612.35,1183.58C4605.61,1183.58 4598.89,1184.4 4592.37,1186.02C4562.66,1193.38 4539.18,1216.5 4527.94,1249.45C4523.48,1262.53 4521.04,1276.75 4520.71,1291.71C4520.37,1306.36 4522.06,1321.29 4525.73,1336.08C4528.96,1349.13 4533.54,1361.19 4539.35,1371.94C4545.46,1383.25 4552.96,1393.17 4561.63,1401.42C4570.79,1410.14 4581.14,1416.92 4592.41,1421.56C4603.87,1426.27 4615.96,1428.67 4628.35,1428.67C4628.45,1428.67 4628.55,1428.66 4628.66,1428.66C4628.45,1432.65 4628.33,1436.6 4628.33,1440.51C4628.33,1470.85 4634.78,1498.21 4647.49,1521.82C4659.92,1544.92 4678.02,1563.98 4701.28,1578.46C4720.5,1590.42 4743.38,1599.23 4769.29,1604.64C4790.76,1609.12 4814.92,1611.4 4841.12,1611.4C4867.31,1611.4 4891.48,1609.12 4912.95,1604.64C4938.85,1599.23 4961.73,1590.42 4980.95,1578.46C5004.22,1563.98 5022.32,1544.92 5034.75,1521.82C5047.45,1498.21 5053.9,1470.85 5053.9,1440.51C5053.9,1436.6 5053.79,1432.65 5053.58,1428.66C5053.68,1428.66 5053.78,1428.67 5053.88,1428.67L5053.89,1428.67C5066.27,1428.67 5078.36,1426.27 5089.82,1421.56C5101.09,1416.92 5111.45,1410.14 5120.61,1401.42C5129.28,1393.17 5136.77,1383.25 5142.88,1371.94C5148.69,1361.19 5153.27,1349.13 5156.5,1336.08C5160.17,1321.29 5161.86,1306.36 5161.53,1291.71Z" style="fill:rgb(255,191,145);fill-rule:nonzero;"/>
            </g>
            <g transform="matrix(1,0,0,1,-997.571,-498.694)">
                <path d="M4674.03,1299.33C4684.77,1342.67 4667.94,1371.53 4640.05,1378.44C4612.17,1385.35 4583.81,1367.69 4573.07,1324.35C4562.33,1281.01 4576.22,1240.27 4604.1,1233.36C4631.98,1226.45 4663.29,1255.98 4674.03,1299.33Z" style="fill:rgb(155,75,0);fill-rule:nonzero;"/>
            </g>
            <g transform="matrix(1,0,0,1,-997.571,-498.694)">
                <path d="M4804.1,1169.81C4810.5,1223.78 4785.8,1256.08 4751.08,1260.2C4716.36,1264.32 4684.78,1238.7 4678.37,1184.72C4671.97,1130.75 4694.93,1083.65 4729.64,1079.53C4764.36,1075.41 4797.7,1115.83 4804.1,1169.81Z" style="fill:rgb(155,75,0);fill-rule:nonzero;"/>
            </g>
            <g transform="matrix(1,0,0,1,-997.571,-498.694)">
                <path d="M5008.2,1299.33C4997.46,1342.67 5014.3,1371.53 5042.18,1378.44C5070.06,1385.35 5098.42,1367.69 5109.17,1324.35C5119.91,1281.01 5106.01,1240.27 5078.13,1233.36C5050.25,1226.45 5018.94,1255.98 5008.2,1299.33Z" style="fill:rgb(155,75,0);fill-rule:nonzero;"/>
            </g>
            <g transform="matrix(1,0,0,1,-997.571,-498.694)">
                <path d="M4878.13,1169.81C4871.73,1223.78 4896.44,1256.08 4931.16,1260.2C4965.87,1264.32 4997.46,1238.7 5003.86,1184.72C5010.26,1130.75 4987.31,1083.65 4952.59,1079.53C4917.87,1075.41 4884.53,1115.83 4878.13,1169.81Z" style="fill:rgb(155,75,0);fill-rule:nonzero;"/>
            </g>
            <g transform="matrix(1,0,0,1,-997.571,-498.694)">
                <path d="M4966.83,1460.89C4966.83,1530.32 4910.55,1552.25 4841.12,1552.25C4771.68,1552.25 4715.4,1530.32 4715.4,1460.89C4715.4,1391.46 4771.68,1292.35 4841.12,1292.35C4910.55,1292.35 4966.83,1391.46 4966.83,1460.89Z" style="fill:rgb(155,75,0);fill-rule:nonzero;"/>
            </g>
        </g>
    </g>
</svg>
