<?xml version="1.0" encoding="UTF-8" standalone="no"?>
<!DOCTYPE svg PUBLIC "-//W3C//DTD SVG 1.1//EN" "http://www.w3.org/Graphics/SVG/1.1/DTD/svg11.dtd">
<svg width="100%" height="100%" viewBox="0 0 595 2479" version="1.1" xmlns="http://www.w3.org/2000/svg" xmlns:xlink="http://www.w3.org/1999/xlink" xml:space="preserve" xmlns:serif="http://www.serif.com/" style="fill-rule:evenodd;clip-rule:evenodd;stroke-linejoin:round;stroke-miterlimit:2;">
    <g transform="matrix(1,0,0,1,-1083.59,-884.72)">
        <g transform="matrix(1,0,0,1,-3473.93,406.422)">
            <g transform="matrix(1,0,0,2.26746,-13.3569,-5873.59)">
                <path d="M4878,3524.43C4869.51,3480.56 4856.71,3437.53 4839.84,3396.15C4831.29,3375.16 4821.64,3354.44 4816.69,3332.32C4810.23,3303.42 4812.07,3273.39 4813.94,3243.84C4815.52,3218.96 4817.53,3192.75 4831.51,3172.1C4849.38,3145.7 4862.25,3161.12 4879.43,3158.96C4890.76,3157.53 4904.17,3159.07 4910.41,3168.65C4913.71,3173.71 4914.27,3180.03 4914.71,3186.05C4918.64,3238.97 4921.01,3292.2 4931.17,3344.28C4939.82,3388.64 4954.05,3431.78 4962.42,3476.2C4970.79,3520.61 4973.03,3567.51 4958,3610.14C4956.44,3614.57 4954.41,3619.27 4950.31,3621.57C4946.87,3623.5 4942.64,3623.32 4938.77,3622.6C4918.57,3618.86 4902.7,3602.34 4893.85,3583.8C4885,3565.26 4881.91,3544.6 4878,3524.43ZM5068.44,3854.79C5061.99,3852.59 5055.59,3850.22 5049.26,3847.69C5034.74,3841.88 5019.97,3834.73 5010.63,3822.19C5001.52,3809.95 4998.8,3793.21 5003.56,3778.71C5009.88,3759.48 5028.09,3746.01 5047.48,3740.22C5051,3739.17 5054.55,3738.33 5058.13,3737.68C5057.46,3729.21 5056.78,3720.65 5056.1,3712C5045.55,3716.79 5034.8,3721 5023.53,3723.7C4997.05,3730.02 4969.26,3727.52 4942.44,3722.87C4929.98,3720.71 4917.17,3717.92 4906.97,3710.44C4901.35,3706.32 4896.59,3700.62 4895.03,3693.82C4891.86,3679.94 4903.27,3666.18 4916.62,3661.2C4929.96,3656.21 4944.69,3657.56 4958.92,3658.04C4974.22,3658.56 4989.56,3657.99 5004.77,3656.33C5013.47,3655.39 5022.26,3654.06 5030.26,3650.52C5037.69,3647.23 5044.13,3642.19 5050.5,3637.12C5045.07,3561.74 5039.98,3482.89 5035.41,3407.71C5029.39,3405.56 5023.83,3402.45 5019.17,3397.99C5009.85,3389.04 5005.69,3376.14 5001.86,3363.8C4995.5,3343.26 4989.13,3322.72 4982.77,3302.19C4978.48,3288.36 4974.84,3271.44 4984.81,3260.95C4989.53,3255.98 4996.39,3253.7 5003.08,3252.25C5010.69,3250.58 5018.46,3249.74 5026.25,3249.72C5025.36,3233.76 5024.52,3218.33 5023.72,3203.52C5014.29,3203.22 5004.97,3201.79 4995.95,3198.81C4969.48,3190.05 4946.92,3164.16 4950.49,3136.51C4951.34,3129.9 4953.68,3123.38 4957.87,3118.21C4965.35,3108.98 4977.5,3105.15 4989.06,3102.43C4998.65,3100.18 5008.35,3098.36 5018.11,3096.99C5015.63,3048.44 5014.24,3019.21 5014.24,3019.21L4721.53,3019.21C4721.53,3019.21 4718.9,3074.92 4714.38,3160.21C4739.38,3160.5 4764.16,3175.27 4777.03,3197.1C4781.59,3204.83 4784.88,3213.47 4785.42,3222.43C4786.31,3237.53 4779.48,3251.84 4775.44,3266.41C4766.09,3300.17 4771.22,3338.02 4754.53,3368.82C4748.13,3380.64 4736.82,3391.61 4723.4,3390.92C4714.74,3390.48 4707.74,3385.52 4702.1,3378.77C4701,3397.3 4699.85,3416.12 4698.68,3435.12C4713.55,3436.91 4728.6,3436.44 4743.09,3432.76C4754.42,3429.89 4765.24,3425.1 4776.74,3422.94C4788.22,3420.76 4801.07,3421.61 4810.19,3428.92C4822.98,3439.18 4824.17,3457.7 4827.42,3473.77C4832.52,3499.04 4844.98,3522.16 4853.16,3546.61C4861.33,3571.07 4864.86,3599.11 4852.55,3621.76C4849.14,3628.02 4844.34,3633.87 4837.78,3636.63C4832.25,3638.96 4826.04,3638.88 4820.04,3638.7C4796.48,3638.02 4772.33,3636.28 4750.93,3626.4C4738.34,3620.58 4727.11,3612.12 4714.53,3606.29C4706.13,3602.41 4697.17,3599.78 4688.01,3598.42C4687.18,3610.41 4686.33,3622.33 4685.48,3634.17C4699.1,3635.55 4712.27,3638.87 4723.69,3646.24C4740.56,3657.15 4751.2,3675.43 4766.65,3688.28C4786,3704.4 4811.37,3710.86 4833.83,3722.26C4856.29,3733.66 4877.89,3754.06 4876.94,3779.22C4876.12,3801 4858.17,3818.83 4838.26,3827.67C4813.9,3838.47 4786.17,3839.09 4759.72,3835.9C4733.26,3832.72 4707.35,3825.93 4680.92,3822.52C4677.45,3822.07 4673.97,3821.69 4670.48,3821.36C4668.1,3847.42 4665.69,3871.86 4663.28,3894.21L5072.49,3894.21C5071.14,3881.7 5069.79,3868.53 5068.44,3854.79Z" style="fill:rgb(232,163,87);fill-rule:nonzero;"/>
            </g>
            <g transform="matrix(1,0,0,2.26746,-13.3569,-5873.59)">
                <path d="M4723.4,3390.92C4736.82,3391.61 4748.13,3380.64 4754.53,3368.82C4771.22,3338.02 4766.09,3300.17 4775.44,3266.41C4779.48,3251.84 4786.31,3237.53 4785.42,3222.43C4784.88,3213.47 4781.59,3204.83 4777.03,3197.1C4764.16,3175.27 4739.38,3160.5 4714.38,3160.21C4711.15,3221.14 4706.97,3297.17 4702.1,3378.77C4707.74,3385.52 4714.74,3390.48 4723.4,3390.92Z" style="fill:rgb(199,97,51);fill-rule:nonzero;"/>
            </g>
            <g transform="matrix(1,0,0,2.26746,-13.3569,-5873.59)">
                <path d="M4984.81,3260.95C4974.84,3271.44 4978.48,3288.36 4982.77,3302.19C4989.13,3322.72 4995.5,3343.26 5001.86,3363.8C5005.69,3376.14 5009.85,3389.04 5019.17,3397.99C5023.83,3402.45 5029.39,3405.56 5035.41,3407.71C5032.04,3352.07 5028.95,3298.44 5026.25,3249.72C5018.46,3249.74 5010.69,3250.58 5003.08,3252.25C4996.39,3253.7 4989.53,3255.98 4984.81,3260.95Z" style="fill:rgb(199,97,51);fill-rule:nonzero;"/>
            </g>
            <g transform="matrix(1,0,0,2.26746,-13.3569,-5873.59)">
                <path d="M4938.77,3622.6C4942.64,3623.32 4946.87,3623.5 4950.31,3621.57C4954.41,3619.27 4956.44,3614.57 4958,3610.14C4973.03,3567.51 4970.79,3520.61 4962.42,3476.2C4954.05,3431.78 4939.82,3388.64 4931.17,3344.28C4921.01,3292.2 4918.64,3238.97 4914.71,3186.05C4914.27,3180.03 4913.71,3173.71 4910.41,3168.65C4904.17,3159.07 4890.76,3157.53 4879.43,3158.96C4862.25,3161.12 4849.38,3145.7 4831.51,3172.1C4817.53,3192.75 4815.52,3218.96 4813.94,3243.84C4812.07,3273.39 4810.23,3303.42 4816.69,3332.32C4821.64,3354.44 4831.29,3375.16 4839.84,3396.15C4856.71,3437.53 4869.51,3480.56 4878,3524.43C4881.91,3544.6 4885,3565.26 4893.85,3583.8C4902.7,3602.34 4918.57,3618.86 4938.77,3622.6Z" style="fill:rgb(199,97,51);fill-rule:nonzero;"/>
            </g>
            <g transform="matrix(1,0,0,2.26746,-13.3569,-5873.59)">
                <path d="M4759.72,3835.9C4786.17,3839.09 4813.9,3838.47 4838.26,3827.67C4858.17,3818.83 4876.12,3801 4876.94,3779.22C4877.89,3754.06 4856.29,3733.66 4833.83,3722.26C4811.37,3710.86 4786,3704.4 4766.65,3688.28C4751.2,3675.43 4740.56,3657.15 4723.69,3646.24C4712.27,3638.87 4699.1,3635.55 4685.48,3634.17C4680.69,3700.86 4675.64,3764.89 4670.48,3821.36C4673.97,3821.69 4677.45,3822.07 4680.92,3822.52C4707.35,3825.93 4733.26,3832.72 4759.72,3835.9Z" style="fill:rgb(199,97,51);fill-rule:nonzero;"/>
            </g>
            <g transform="matrix(1,0,0,2.26746,-13.3569,-5873.59)">
                <path d="M5003.56,3778.71C4998.8,3793.21 5001.52,3809.95 5010.63,3822.19C5019.97,3834.73 5034.74,3841.88 5049.26,3847.69C5055.59,3850.22 5061.99,3852.59 5068.44,3854.79C5064.95,3819.11 5061.5,3779.58 5058.13,3737.68C5054.55,3738.33 5051,3739.17 5047.48,3740.22C5028.09,3746.01 5009.88,3759.48 5003.56,3778.71Z" style="fill:rgb(199,97,51);fill-rule:nonzero;"/>
            </g>
            <g transform="matrix(1,0,0,2.26746,-13.3569,-5873.59)">
                <path d="M4750.93,3626.4C4772.33,3636.28 4796.48,3638.02 4820.04,3638.7C4826.04,3638.88 4832.25,3638.96 4837.78,3636.63C4844.34,3633.87 4849.14,3628.02 4852.55,3621.76C4864.86,3599.11 4861.33,3571.07 4853.16,3546.61C4844.98,3522.16 4832.52,3499.04 4827.42,3473.77C4824.17,3457.7 4822.98,3439.18 4810.19,3428.92C4801.07,3421.61 4788.22,3420.76 4776.74,3422.94C4765.24,3425.1 4754.42,3429.89 4743.09,3432.76C4728.6,3436.44 4713.55,3436.91 4698.68,3435.12C4695.36,3488.99 4691.77,3544.28 4688.01,3598.42C4697.17,3599.78 4706.13,3602.41 4714.53,3606.29C4727.11,3612.12 4738.34,3620.58 4750.93,3626.4Z" style="fill:rgb(199,97,51);fill-rule:nonzero;"/>
            </g>
            <g transform="matrix(1,0,0,2.26746,-13.3569,-5873.59)">
                <path d="M4957.87,3118.21C4953.68,3123.38 4951.34,3129.9 4950.49,3136.51C4946.92,3164.16 4969.48,3190.05 4995.95,3198.81C5004.97,3201.79 5014.29,3203.22 5023.72,3203.52C5021.49,3162.46 5019.59,3126.22 5018.11,3096.99C5008.35,3098.36 4998.65,3100.18 4989.06,3102.43C4977.5,3105.15 4965.35,3108.98 4957.87,3118.21Z" style="fill:rgb(199,97,51);fill-rule:nonzero;"/>
            </g>
            <g transform="matrix(1,0,0,2.26746,-13.3569,-5873.59)">
                <path d="M5004.77,3656.33C4989.56,3657.99 4974.22,3658.56 4958.92,3658.04C4944.69,3657.56 4929.96,3656.21 4916.62,3661.2C4903.27,3666.18 4891.86,3679.94 4895.03,3693.82C4896.59,3700.62 4901.35,3706.32 4906.97,3710.44C4917.17,3717.92 4929.98,3720.71 4942.44,3722.87C4969.26,3727.52 4997.05,3730.02 5023.53,3723.7C5034.8,3721 5045.55,3716.79 5056.1,3712C5054.21,3687.62 5052.34,3662.57 5050.5,3637.12C5044.13,3642.19 5037.69,3647.23 5030.26,3650.52C5022.26,3654.06 5013.47,3655.39 5004.77,3656.33Z" style="fill:rgb(199,97,51);fill-rule:nonzero;"/>
            </g>
            <g transform="matrix(1,0,0,1,-13.3569,-2046.85)">
                <path d="M4750.14,2633.87L4771.78,2630.29C4775.19,2565.25 4756.2,2525.15 4756.2,2525.15C4741.21,2578.5 4750.14,2633.87 4750.14,2633.87Z" style="fill:rgb(219,219,219);fill-rule:nonzero;"/>
            </g>
            <g transform="matrix(1,0,0,1,-13.3569,-2046.85)">
                <path d="M4985.63,2633.87L4963.99,2630.29C4960.58,2565.25 4979.58,2525.15 4979.58,2525.15C4994.56,2578.5 4985.63,2633.87 4985.63,2633.87Z" style="fill:rgb(219,219,219);fill-rule:nonzero;"/>
            </g>
            <g transform="matrix(1,0,0,1,-13.3569,-2046.85)">
                <path d="M4632.31,2787.22L4648.28,2772.17C4614.84,2716.29 4576.7,2693.59 4576.7,2693.59C4594.02,2746.24 4632.31,2787.22 4632.31,2787.22Z" style="fill:rgb(219,219,219);fill-rule:nonzero;"/>
            </g>
            <g transform="matrix(1,0,0,1,-13.3569,-2046.85)">
                <path d="M5103.46,2787.22L5087.5,2772.17C5120.93,2716.29 5159.07,2693.59 5159.07,2693.59C5141.75,2746.24 5103.46,2787.22 5103.46,2787.22Z" style="fill:rgb(219,219,219);fill-rule:nonzero;"/>
            </g>
            <g transform="matrix(1,0,0,1,-13.3569,-2046.85)">
                <path d="M5164.86,2821.64C5164.54,2807.77 5162.29,2794.59 5158.15,2782.46C5147.74,2751.93 5125.97,2730.5 5098.44,2723.68C5092.39,2722.18 5086.16,2721.42 5079.91,2721.42C5074.61,2721.42 5069.33,2721.96 5064.12,2723.02C5067,2691.96 5062,2661.43 5049.89,2636.59C5042.74,2621.93 5033.41,2609.69 5022.15,2600.21C5008.85,2589.01 4993.07,2582.05 4976.53,2580.09C4973.27,2579.71 4969.96,2579.51 4966.68,2579.51C4958.62,2579.51 4950.55,2580.68 4942.68,2582.98C4935.44,2585.1 4928.34,2588.2 4921.58,2592.18C4909.59,2599.25 4898.74,2609 4889.34,2621.18C4880.8,2632.23 4873.7,2644.97 4868.23,2659.04C4868.12,2659.34 4868,2659.64 4867.89,2659.95C4867.77,2659.64 4867.66,2659.34 4867.54,2659.04C4862.07,2644.97 4854.97,2632.23 4846.43,2621.18C4837.03,2609 4826.19,2599.25 4814.19,2592.18C4807.43,2588.2 4800.33,2585.1 4793.09,2582.98C4785.22,2580.68 4777.15,2579.51 4769.1,2579.51C4765.82,2579.51 4762.5,2579.71 4759.24,2580.09C4742.7,2582.05 4726.92,2589.01 4713.62,2600.21C4702.36,2609.69 4693.03,2621.93 4685.88,2636.59C4673.77,2661.43 4668.78,2691.96 4671.66,2723.02C4666.44,2721.96 4661.16,2721.42 4655.86,2721.42C4649.61,2721.42 4643.38,2722.18 4637.33,2723.68C4609.8,2730.5 4588.03,2751.93 4577.62,2782.46C4573.49,2794.59 4571.23,2807.77 4570.91,2821.64C4570.61,2835.21 4572.17,2849.05 4575.57,2862.76C4578.57,2874.85 4582.82,2886.04 4588.19,2895.99C4593.86,2906.48 4600.81,2915.67 4608.84,2923.32C4617.33,2931.4 4626.93,2937.68 4637.37,2941.98C4648,2946.35 4659.2,2948.57 4670.69,2948.57L4670.97,2948.57C4670.77,2952.26 4670.67,2955.93 4670.67,2959.55C4670.67,2987.67 4676.64,3013.03 4688.42,3034.91C4699.94,3056.32 4716.72,3073.98 4738.28,3087.41C4756.09,3098.49 4777.3,3106.66 4801.31,3111.67C4821.21,3115.83 4843.61,3117.93 4867.89,3117.93C4892.16,3117.93 4914.56,3115.83 4934.46,3111.67C4958.47,3106.66 4979.68,3098.49 4997.49,3087.41C5019.05,3073.98 5035.83,3056.32 5047.35,3034.91C5059.13,3013.03 5065.1,2987.67 5065.1,2959.55C5065.1,2955.93 5065,2952.26 5064.8,2948.57L5065.09,2948.57C5076.57,2948.57 5087.78,2946.35 5098.4,2941.98C5108.84,2937.68 5118.44,2931.41 5126.93,2923.32C5134.96,2915.67 5141.91,2906.48 5147.58,2895.99C5152.96,2886.04 5157.2,2874.85 5160.2,2862.76C5163.6,2849.05 5165.17,2835.21 5164.86,2821.64Z" style="fill:rgb(232,163,87);fill-rule:nonzero;"/>
            </g>
            <g transform="matrix(1,0,0,1,-13.3569,-2046.85)">
                <path d="M4713.02,2828.7C4722.98,2868.87 4707.37,2895.62 4681.53,2902.02C4655.69,2908.42 4629.4,2892.06 4619.45,2851.89C4609.49,2811.71 4622.37,2773.96 4648.21,2767.55C4674.05,2761.15 4703.07,2788.52 4713.02,2828.7Z" style="fill:rgb(199,97,51);fill-rule:nonzero;"/>
            </g>
            <g transform="matrix(1,0,0,1,-13.3569,-2046.85)">
                <path d="M4833.58,2708.65C4839.51,2758.67 4816.61,2788.61 4784.43,2792.43C4752.25,2796.25 4722.98,2772.5 4717.05,2722.47C4711.11,2672.45 4732.39,2628.8 4764.57,2624.98C4796.75,2621.16 4827.64,2658.62 4833.58,2708.65Z" style="fill:rgb(199,97,51);fill-rule:nonzero;"/>
            </g>
            <g transform="matrix(1,0,0,1,-13.3569,-2046.85)">
                <path d="M5022.75,2828.7C5012.79,2868.87 5028.4,2895.62 5054.24,2902.02C5080.08,2908.42 5106.37,2892.06 5116.33,2851.89C5126.28,2811.71 5113.4,2773.96 5087.56,2767.55C5061.72,2761.15 5032.7,2788.52 5022.75,2828.7Z" style="fill:rgb(199,97,51);fill-rule:nonzero;"/>
            </g>
            <g transform="matrix(1,0,0,1,-13.3569,-2046.85)">
                <path d="M4902.19,2708.65C4896.26,2758.67 4919.16,2788.61 4951.34,2792.43C4983.52,2796.25 5012.79,2772.5 5018.72,2722.47C5024.66,2672.45 5003.38,2628.8 4971.2,2624.98C4939.02,2621.16 4908.13,2658.62 4902.19,2708.65Z" style="fill:rgb(199,97,51);fill-rule:nonzero;"/>
            </g>
            <g transform="matrix(1,0,0,1,-13.3569,-2046.85)">
                <path d="M4984.41,2978.43C4984.41,3042.79 4932.24,3063.11 4867.89,3063.11C4803.53,3063.11 4751.37,3042.79 4751.37,2978.43C4751.37,2914.08 4803.53,2822.23 4867.89,2822.23C4932.24,2822.23 4984.41,2914.08 4984.41,2978.43Z" style="fill:rgb(199,97,51);fill-rule:nonzero;"/>
            </g>
        </g>
    </g>
</svg>
