<?xml version="1.0" encoding="UTF-8" standalone="no"?>
<!DOCTYPE svg PUBLIC "-//W3C//DTD SVG 1.1//EN" "http://www.w3.org/Graphics/SVG/1.1/DTD/svg11.dtd">
<svg width="100%" height="100%" viewBox="0 0 595 2628" version="1.1" xmlns="http://www.w3.org/2000/svg" xmlns:xlink="http://www.w3.org/1999/xlink" xml:space="preserve" xmlns:serif="http://www.serif.com/" style="fill-rule:evenodd;clip-rule:evenodd;stroke-linejoin:round;stroke-miterlimit:2;">
    <g transform="matrix(1,0,0,1,-618.635,-510.148)">
        <g transform="matrix(1,0,0,1,19.7444,-21.5311)">
            <g transform="matrix(1,0,0,2.43857,-311.698,-6336.83)">
                <path d="M1041.24,3622.96C1047.25,3627.82 1052.75,3633.3 1057.63,3639.3C1060.71,3636.23 1063,3632.38 1064.22,3628.21C1070.83,3627.49 1074.35,3639.62 1080.65,3637.49C1082.54,3636.85 1083.74,3635.04 1085.29,3633.77C1089.55,3630.29 1095.73,3631.35 1101.23,3631.42C1106.73,3631.49 1113.57,3628.94 1113.75,3623.44C1118.66,3628.1 1123.59,3632.77 1128.51,3637.44C1133.4,3632.06 1138.28,3626.69 1143.17,3621.32C1148.66,3627.94 1154.13,3634.56 1159.61,3641.19C1163.29,3634.63 1166.97,3628.08 1170.64,3621.53C1175.58,3627.33 1180.51,3633.12 1185.44,3638.91C1189.21,3631.58 1192.25,3623.87 1194.5,3615.92C1199.9,3621.86 1205.3,3627.79 1210.7,3633.73C1214.26,3629.03 1218.53,3624.89 1223.33,3621.47C1228.53,3625.54 1233.15,3630.34 1237,3635.69C1242.31,3628.85 1247.62,3622.01 1252.91,3615.17C1260.32,3623.67 1267.73,3632.17 1275.14,3640.67C1272.25,3633.73 1280.97,3626.51 1288.39,3627.71C1295.82,3628.91 1301.32,3635.04 1306.18,3640.79C1310.34,3634.67 1314.5,3628.56 1318.66,3622.44C1323.81,3626.94 1328.96,3631.45 1334.12,3635.95C1336.69,3631.38 1339.27,3626.81 1341.84,3622.24C1349.74,3628.65 1357.63,3635.05 1365.53,3641.46C1362.66,3634.7 1367.4,3626.62 1373.98,3623.35C1378.61,3621.06 1383.81,3620.55 1389.04,3620.72C1387.92,3604.84 1386.81,3588.85 1385.71,3572.78C1367.48,3304.91 1353.95,3019.21 1353.95,3019.21L1061.24,3019.21C1061.24,3019.21 1048.06,3297.72 1030.17,3562.59C1028.81,3582.79 1027.42,3602.91 1026,3622.83C1029.36,3626.76 1032.7,3630.7 1036.05,3634.63C1038.74,3631.27 1040.55,3627.21 1041.24,3622.96Z" style="fill:rgb(96,96,96);fill-rule:nonzero;"/>
            </g>
            <g transform="matrix(1,0,0,2.43857,-311.698,-6336.83)">
                <path d="M1389.04,3620.72C1383.81,3620.55 1378.61,3621.06 1373.98,3623.35C1367.4,3626.62 1362.66,3634.7 1365.53,3641.46C1357.63,3635.05 1349.74,3628.65 1341.84,3622.24C1339.27,3626.81 1336.69,3631.38 1334.12,3635.95C1328.96,3631.45 1323.81,3626.94 1318.66,3622.44C1314.5,3628.56 1310.34,3634.67 1306.18,3640.79C1301.32,3635.04 1295.82,3628.91 1288.39,3627.71C1280.97,3626.51 1272.25,3633.73 1275.14,3640.67C1267.73,3632.17 1260.32,3623.67 1252.91,3615.17C1247.62,3622.01 1242.31,3628.85 1237,3635.69C1233.15,3630.34 1228.53,3625.54 1223.33,3621.47C1218.53,3624.89 1214.26,3629.03 1210.7,3633.73C1205.3,3627.79 1199.9,3621.86 1194.5,3615.92C1192.25,3623.87 1189.21,3631.58 1185.44,3638.91C1180.51,3633.12 1175.58,3627.33 1170.64,3621.53C1166.97,3628.08 1163.29,3634.63 1159.61,3641.19C1154.13,3634.56 1148.66,3627.94 1143.17,3621.32C1138.28,3626.69 1133.4,3632.06 1128.51,3637.44C1123.59,3632.77 1118.66,3628.1 1113.75,3623.44C1113.57,3628.94 1106.73,3631.49 1101.23,3631.42C1095.73,3631.35 1089.55,3630.29 1085.29,3633.77C1083.74,3635.04 1082.54,3636.85 1080.65,3637.49C1074.35,3639.62 1070.83,3627.49 1064.22,3628.21C1063,3632.38 1060.71,3636.23 1057.63,3639.3C1052.75,3633.3 1047.25,3627.82 1041.24,3622.96C1040.55,3627.21 1038.74,3631.27 1036.05,3634.63C1032.7,3630.7 1029.36,3626.76 1026,3622.83C1018.78,3724.48 1010.95,3820.69 1002.99,3894.21L1412.21,3894.21C1404.2,3820.18 1396.3,3723.15 1389.04,3620.72Z" style="fill:rgb(246,134,110);fill-rule:nonzero;"/>
            </g>
            <g transform="matrix(1,0,0,1,-311.698,-1993.47)">
                <path d="M1089.85,2633.87L1111.49,2630.29C1114.9,2565.26 1095.91,2525.15 1095.91,2525.15C1080.92,2578.51 1089.85,2633.87 1089.85,2633.87Z" style="fill:rgb(219,219,219);fill-rule:nonzero;"/>
            </g>
            <g transform="matrix(1,0,0,1,-311.698,-1993.47)">
                <path d="M1325.35,2633.87L1303.7,2630.29C1300.29,2565.26 1319.29,2525.15 1319.29,2525.15C1334.28,2578.51 1325.35,2633.87 1325.35,2633.87Z" style="fill:rgb(219,219,219);fill-rule:nonzero;"/>
            </g>
            <g transform="matrix(1,0,0,1,-311.698,-1993.47)">
                <path d="M972.023,2787.22L987.988,2772.17C954.55,2716.29 916.415,2693.6 916.415,2693.6C933.73,2746.24 972.023,2787.22 972.023,2787.22Z" style="fill:rgb(219,219,219);fill-rule:nonzero;"/>
            </g>
            <g transform="matrix(1,0,0,1,-311.698,-1993.47)">
                <path d="M1443.17,2787.22L1427.21,2772.17C1460.65,2716.29 1498.78,2693.6 1498.78,2693.6C1481.47,2746.24 1443.17,2787.22 1443.17,2787.22Z" style="fill:rgb(219,219,219);fill-rule:nonzero;"/>
            </g>
            <g transform="matrix(1,0,0,1,-311.698,-1993.47)">
                <path d="M1504.57,2821.64C1504.25,2807.77 1502,2794.59 1497.86,2782.47C1487.45,2751.93 1465.68,2730.5 1438.15,2723.68C1432.11,2722.18 1425.88,2721.42 1419.63,2721.42C1414.33,2721.42 1409.05,2721.96 1403.83,2723.02C1406.71,2691.96 1401.71,2661.44 1389.6,2636.6C1382.45,2621.93 1373.12,2609.69 1361.86,2600.21C1348.56,2589.01 1332.79,2582.06 1316.24,2580.09C1312.98,2579.71 1309.67,2579.51 1306.39,2579.51C1298.33,2579.51 1290.26,2580.68 1282.39,2582.98C1275.15,2585.1 1268.05,2588.2 1261.29,2592.18C1249.3,2599.25 1238.45,2609 1229.05,2621.18C1220.52,2632.23 1213.42,2644.97 1207.94,2659.05C1207.83,2659.35 1207.71,2659.65 1207.6,2659.95C1207.48,2659.65 1207.37,2659.35 1207.25,2659.05C1201.78,2644.97 1194.68,2632.23 1186.15,2621.18C1176.75,2609 1165.9,2599.25 1153.91,2592.18C1147.15,2588.2 1140.05,2585.1 1132.81,2582.98C1124.94,2580.68 1116.86,2579.51 1108.81,2579.51C1105.53,2579.51 1102.21,2579.71 1098.96,2580.09C1082.41,2582.06 1066.64,2589.01 1053.33,2600.21C1042.08,2609.69 1032.74,2621.93 1025.6,2636.6C1013.49,2661.44 1008.49,2691.96 1011.37,2723.02C1006.15,2721.96 1000.87,2721.42 995.57,2721.42C989.321,2721.42 983.089,2722.18 977.047,2723.68C949.513,2730.5 927.747,2751.93 917.333,2782.47C913.198,2794.59 910.942,2807.77 910.627,2821.64C910.319,2835.22 911.885,2849.05 915.283,2862.76C918.28,2874.86 922.528,2886.04 927.907,2895.99C933.573,2906.48 940.52,2915.67 948.555,2923.32C957.046,2931.41 966.646,2937.68 977.087,2941.98C987.709,2946.36 998.917,2948.57 1010.4,2948.57L1010.68,2948.57C1010.49,2952.27 1010.38,2955.93 1010.38,2959.55C1010.38,2987.68 1016.36,3013.03 1028.13,3034.92C1039.66,3056.33 1056.43,3073.99 1077.99,3087.41C1095.81,3098.5 1117.01,3106.66 1141.02,3111.67C1160.92,3115.83 1183.32,3117.94 1207.6,3117.94C1231.87,3117.94 1254.27,3115.83 1274.17,3111.67C1298.19,3106.66 1319.39,3098.5 1337.2,3087.41C1358.77,3073.99 1375.54,3056.33 1387.06,3034.92C1398.84,3013.03 1404.81,2987.68 1404.81,2959.55C1404.81,2955.93 1404.71,2952.27 1404.52,2948.57L1404.8,2948.57C1416.28,2948.57 1427.49,2946.36 1438.11,2941.99C1448.55,2937.69 1458.15,2931.41 1466.64,2923.32C1474.68,2915.68 1481.62,2906.48 1487.29,2895.99C1492.67,2886.04 1496.92,2874.86 1499.91,2862.76C1503.31,2849.05 1504.88,2835.22 1504.57,2821.64Z" style="fill:rgb(96,96,96);fill-rule:nonzero;"/>
            </g>
            <g transform="matrix(1,0,0,1,-311.698,-1993.47)">
                <path d="M1052.74,2828.7C1062.69,2868.87 1047.09,2895.62 1021.25,2902.02C995.405,2908.43 969.115,2892.06 959.159,2851.89C949.203,2811.72 962.081,2773.96 987.921,2767.55C1013.76,2761.15 1042.78,2788.53 1052.74,2828.7Z" style="fill:rgb(246,134,110);fill-rule:nonzero;"/>
            </g>
            <g transform="matrix(1,0,0,1,-311.698,-1993.47)">
                <path d="M1173.29,2708.65C1179.23,2758.68 1156.33,2788.62 1124.15,2792.43C1091.97,2796.25 1062.7,2772.5 1056.76,2722.48C1050.83,2672.45 1072.1,2628.8 1104.28,2624.98C1136.46,2621.17 1167.36,2658.63 1173.29,2708.65Z" style="fill:rgb(246,134,110);fill-rule:nonzero;"/>
            </g>
            <g transform="matrix(1,0,0,1,-311.698,-1993.47)">
                <path d="M1362.46,2828.7C1352.5,2868.87 1368.11,2895.62 1393.95,2902.02C1419.79,2908.43 1446.08,2892.06 1456.04,2851.89C1465.99,2811.72 1453.12,2773.96 1427.28,2767.55C1401.44,2761.15 1372.42,2788.53 1362.46,2828.7Z" style="fill:rgb(246,134,110);fill-rule:nonzero;"/>
            </g>
            <g transform="matrix(1,0,0,1,-311.698,-1993.47)">
                <path d="M1241.91,2708.65C1235.97,2758.68 1258.87,2788.62 1291.05,2792.43C1323.23,2796.25 1352.5,2772.5 1358.44,2722.48C1364.37,2672.45 1343.09,2628.8 1310.92,2624.98C1278.74,2621.17 1247.84,2658.63 1241.91,2708.65Z" style="fill:rgb(246,134,110);fill-rule:nonzero;"/>
            </g>
            <g transform="matrix(1,0,0,1,-311.698,-1993.47)">
                <path d="M1324.12,2978.44C1324.12,3042.79 1271.95,3063.12 1207.6,3063.12C1143.25,3063.12 1091.08,3042.79 1091.08,2978.44C1091.08,2914.08 1143.25,2822.23 1207.6,2822.23C1271.95,2822.23 1324.12,2914.08 1324.12,2978.44Z" style="fill:rgb(246,134,110);fill-rule:nonzero;"/>
            </g>
        </g>
    </g>
</svg>
