<?xml version="1.0" encoding="UTF-8" standalone="no"?>
<!DOCTYPE svg PUBLIC "-//W3C//DTD SVG 1.1//EN" "http://www.w3.org/Graphics/SVG/1.1/DTD/svg11.dtd">
<svg width="100%" height="100%" viewBox="0 0 595 2514" version="1.1" xmlns="http://www.w3.org/2000/svg" xmlns:xlink="http://www.w3.org/1999/xlink" xml:space="preserve" xmlns:serif="http://www.serif.com/" style="fill-rule:evenodd;clip-rule:evenodd;stroke-linejoin:round;stroke-miterlimit:2;">
    <g transform="matrix(1,0,0,1,-836.53,-541.038)">
        <g>
            <g transform="matrix(1,0,0,2.51335,-806.082,-6732.81)">
                <path d="M1794.99,3337.86C1797.91,3342.85 1800.81,3347.85 1803.73,3352.86C1807.65,3348.25 1811.57,3343.65 1815.49,3339.06C1817.38,3341.49 1819.28,3343.92 1821.18,3346.35C1823.61,3342.84 1829.29,3343.25 1832.52,3346.05C1835.75,3348.84 1837.13,3353.14 1838.39,3357.23C1841.74,3352.29 1845.43,3347.6 1849.45,3343.19C1851.99,3347.88 1854.53,3352.55 1857.07,3357.23C1859.45,3351.05 1862.89,3345.28 1867.17,3340.23C1872.02,3345.28 1876.27,3350.89 1879.84,3356.91C1890.4,3348 1905.81,3345.26 1918.79,3349.98C1919.89,3347.5 1921,3345.03 1922.11,3342.55C1924.4,3349.61 1936.1,3350.56 1939.51,3343.98C1943.18,3347.88 1946.85,3351.8 1950.53,3355.7C1952.2,3350.84 1957.54,3347.52 1962.64,3348.17C1967.74,3348.83 1972.08,3353.39 1972.47,3358.51C1975.97,3355.58 1979.47,3352.64 1982.97,3349.71C1986.78,3354.52 1990.59,3359.33 1994.4,3364.15C1995.33,3357.06 2001.09,3350.52 2008.21,3349.87C2015.33,3349.23 2022.61,3355.7 2021.77,3362.8C2024.32,3359.47 2026.87,3356.14 2029.42,3352.82C2032.59,3353.97 2035.76,3355.12 2038.93,3356.28C2037.87,3351.55 2045.39,3350.19 2049.86,3352.05C2054.32,3353.91 2060.61,3356.07 2063.03,3351.88C2065.94,3355.41 2068.84,3358.93 2071.75,3362.46C2074.3,3359.14 2076.87,3355.83 2079.43,3352.51C2084.06,3355.67 2088.22,3359.51 2091.73,3363.87C2095.68,3358.39 2099.62,3352.9 2103.56,3347.41C2101.89,3318.92 2100.31,3291.29 2098.84,3264.95C2098.35,3265.35 2097.8,3265.68 2097.2,3265.92C2093.43,3267.43 2089.4,3264.7 2086.25,3262.13C2076.27,3253.99 2066.28,3245.84 2056.29,3237.69C2052.91,3243.09 2049.53,3248.49 2046.15,3253.89C2042.5,3250.7 2038.86,3247.52 2035.21,3244.34C2029.86,3250.14 2024.53,3255.95 2019.18,3261.76C2014.72,3254.54 2010.25,3247.31 2005.79,3240.09C2005.56,3244.88 2004.01,3250.1 1999.91,3252.6C1995.82,3255.1 1989.06,3252.74 1988.99,3247.94C1984.32,3252.78 1979.64,3257.61 1974.97,3262.45C1973.75,3263.71 1972.29,3265.07 1970.55,3264.96C1968.51,3264.83 1967.2,3262.79 1966.23,3261C1962.27,3253.66 1958.32,3246.33 1954.36,3239.01C1953.15,3243.57 1950.38,3247.72 1946.63,3250.58C1942.47,3245.34 1938.45,3239.99 1934.6,3234.52C1934.22,3241.48 1928.48,3248.08 1921.52,3248.4C1914.56,3248.73 1907.94,3241.65 1909.6,3234.88C1904.29,3242.06 1897.87,3249.21 1889.23,3251.47C1880.59,3253.72 1869.6,3248.69 1868.78,3239.79C1864.23,3243.38 1859.68,3246.97 1855.14,3250.56C1850.58,3245.01 1846.02,3239.46 1841.46,3233.91C1837.93,3241.33 1833.27,3248.21 1827.7,3254.24C1823.62,3248.12 1820.13,3241.62 1817.29,3234.84L1802.22,3249.89C1795.65,3242.28 1789.07,3234.67 1782.5,3227.05C1780.49,3263.77 1778.24,3303.74 1775.79,3345.6C1777.4,3347.93 1778.75,3350.5 1780.03,3353C1785.02,3347.96 1790.01,3342.91 1794.99,3337.86Z" style="fill:rgb(145,110,78);fill-rule:nonzero;"/>
            </g>
            <g transform="matrix(1,0,0,1.4117,-806.082,-3227.11)">
                <path d="M1811.08,3140.39C1816.31,3141.13 1821.1,3144.61 1823.4,3149.37C1827.8,3145.34 1834.53,3144.05 1840.1,3146.19C1842.63,3147.15 1844.93,3148.76 1847.59,3149.23C1849.61,3149.58 1851.67,3149.24 1853.69,3148.91C1862.74,3147.42 1871.79,3145.93 1880.84,3144.44C1886.85,3143.45 1895.42,3144.36 1895.75,3150.43C1898.06,3142.83 1910.19,3140.97 1914.66,3147.54C1915.7,3149.07 1916.44,3150.96 1918.07,3151.82C1924.09,3155.01 1926.25,3141.41 1932.98,3140.37C1936.57,3144.96 1940.16,3149.54 1943.76,3154.12C1948.43,3151.89 1952.38,3148.17 1954.87,3143.65C1960.52,3147.54 1965.56,3152.32 1969.75,3157.75C1971.45,3151.55 1975.29,3145.34 1981.42,3143.4C1987.55,3141.45 1995.56,3146.08 1994.96,3152.49C1997.66,3149.23 2000.68,3145.87 2004.77,3144.83C2008.86,3143.79 2014.09,3146.35 2014.16,3150.57C2018.45,3143.15 2031.86,3144.73 2034.3,3152.94C2037.68,3142.26 2058.29,3151.29 2063.65,3141.46C2066.86,3145.17 2070.07,3148.9 2073.28,3152.62C2078.51,3146.54 2084.56,3140.91 2091.97,3137.88C2088.16,3065.33 2085.98,3019.21 2085.98,3019.21L1793.26,3019.21C1793.26,3019.21 1790.97,3067.6 1787.01,3143.24C1789.56,3143.79 1792.15,3144.73 1794.39,3145.66C1800.88,3148.35 1811.54,3147.39 1811.08,3140.39Z" style="fill:rgb(145,110,78);fill-rule:nonzero;"/>
            </g>
            <g transform="matrix(1,0,0,2.51335,-806.082,-6732.81)">
                <path d="M1784.72,3534.82C1789.11,3533.23 1791.35,3540.42 1795.57,3542.41C1798.87,3543.97 1802.63,3542.02 1806.19,3541.25C1809.75,3540.49 1814.78,3542.48 1813.99,3546.05C1816.17,3542.02 1818.34,3538 1820.51,3533.98C1823.15,3537.93 1825.98,3542.07 1830.27,3544.1C1834.56,3546.12 1840.71,3545.02 1842.49,3540.61C1844.66,3543.88 1846.83,3547.14 1848.99,3550.4C1851.37,3547.06 1853.23,3543.36 1854.49,3539.45C1859.69,3544.29 1864.9,3549.13 1870.1,3553.97C1869.28,3551.04 1871.18,3547.62 1874.11,3546.77C1877.03,3545.93 1880.47,3547.81 1881.32,3550.74C1887.84,3549.05 1894.35,3547.37 1900.86,3545.68C1904.34,3550.5 1907.82,3555.33 1911.3,3560.15C1912.97,3553.48 1923.8,3551.94 1927.26,3557.87C1928.57,3554.38 1931.12,3550.99 1934.78,3550.23C1938.42,3549.46 1942.77,3552.66 1941.98,3556.3C1947.38,3551.96 1956.8,3554.69 1959.03,3561.26C1961.63,3553.29 1975.61,3553.58 1977.87,3561.65C1978.13,3555.53 1983.71,3550.11 1989.84,3550.06C1995.96,3550.01 2001.62,3555.38 2001.89,3561.5C2005.29,3555.63 2015.92,3556.91 2017.83,3563.42C2020.27,3558.7 2026.09,3556 2031.27,3557.19C2036.46,3558.38 2040.52,3563.34 2040.65,3568.67C2044.43,3563.98 2048.22,3559.31 2052.02,3554.63C2053.04,3553.35 2054.13,3552.04 2055.61,3551.31C2061.69,3548.33 2066.82,3556.75 2068.43,3563.33C2069.84,3560.76 2071.84,3558.5 2074.23,3556.81C2077.15,3559.46 2080.05,3562.13 2082.97,3564.79C2086.38,3561.08 2089.8,3557.38 2093.21,3553.67C2095.71,3558.03 2100.78,3560.77 2105.8,3560.48C2108.49,3560.33 2111.09,3559.39 2113.78,3559.32C2114.85,3559.28 2115.88,3559.39 2116.85,3559.6C2114.46,3524.17 2112.16,3488.5 2109.96,3453.32C2107.35,3446.9 2104.74,3440.47 2102.12,3434.05C2100.64,3438.2 2099.16,3442.35 2097.68,3446.49C2091.98,3439.84 2086.81,3432.74 2082.19,3425.29C2079.96,3429.04 2077.58,3432.93 2073.84,3435.17C2070.1,3437.42 2064.58,3437.35 2062,3433.83C2059.85,3430.92 2058.69,3425.59 2055.2,3426.51C2052.89,3427.11 2052.48,3430.12 2051.72,3432.37C2050.04,3437.41 2044.16,3440.63 2039.02,3439.33C2033.88,3438.02 2030.24,3432.41 2031.15,3427.18C2026.61,3432 2021.71,3437.04 2015.3,3438.72C2008.89,3440.38 2000.71,3437.03 1999.75,3430.47C1997.49,3436.4 1990.97,3440.38 1984.65,3439.69C1978.35,3439 1972.85,3433.68 1971.93,3427.41C1967.73,3431.9 1963.52,3436.39 1959.31,3440.88C1953.2,3436.51 1948,3430.86 1944.16,3424.4C1939.17,3428.74 1934.18,3433.08 1929.2,3437.42C1927.9,3438.55 1926.49,3439.73 1924.79,3439.9C1917.94,3440.62 1919.5,3428.09 1913.96,3423.98C1911.06,3427.89 1908.17,3431.78 1905.28,3435.68C1902.85,3430.79 1900.43,3425.9 1898.01,3421.01C1896.98,3426.66 1893.08,3432.17 1887.45,3433.32C1881.84,3434.46 1875.33,3429.38 1876.49,3423.76C1872.41,3427.48 1868.33,3431.21 1864.25,3434.93C1859.36,3429.58 1855.82,3423.02 1854,3416.01C1851.1,3421.79 1845.14,3426.37 1838.68,3426.13C1832.22,3425.88 1826.16,3419.68 1827.35,3413.33C1826.22,3418.86 1824.26,3424.22 1821.56,3429.16C1815.78,3423.13 1811.44,3415.7 1809.05,3407.68C1807.21,3412.84 1805.26,3418.19 1801.32,3421.99C1797.39,3425.79 1790.83,3427.48 1786.38,3424.31C1780.88,3420.4 1780.06,3410.66 1773.41,3409.52C1772.93,3409.43 1772.45,3409.41 1771.99,3409.43C1769.65,3447.96 1767.17,3487.43 1764.57,3526.88C1769.21,3532.04 1773.2,3537.76 1776.46,3543.87C1780.76,3544.45 1780.63,3536.29 1784.72,3534.82Z" style="fill:rgb(145,110,78);fill-rule:nonzero;"/>
            </g>
            <g transform="matrix(1,0,0,2.51335,-806.082,-6732.81)">
                <path d="M2124.65,3670.04C2120.71,3666.07 2117.02,3661.84 2113.6,3657.42C2110.68,3663.34 2107.77,3669.26 2104.86,3675.18C2099.86,3673.77 2095.25,3670.98 2091.67,3667.2C2089.55,3672.99 2085.61,3678.64 2079.7,3680.44C2073.8,3682.25 2066.16,3678.35 2066.01,3672.18C2064.16,3678.31 2056.4,3681.08 2050.22,3679.38C2044.04,3677.7 2039.29,3672.79 2035.42,3667.69C2032.04,3673.02 2028.68,3678.35 2025.31,3683.68C2019.68,3678.96 2015.07,3673.02 2011.89,3666.39C2006.28,3670.1 2001.13,3674.51 1996.61,3679.5C1993.71,3676.45 1991.42,3672.8 1989.95,3668.86C1984.57,3673.44 1979.19,3678.03 1973.81,3682.61C1970.25,3677.57 1966.69,3672.53 1963.12,3667.49L1944.56,3686.07L1930.41,3666.18C1929.56,3664.97 1928.59,3663.68 1927.16,3663.27C1923.62,3662.24 1921.43,3666.84 1919.25,3669.82C1913.56,3677.62 1898.68,3674.1 1897.09,3664.57C1894.5,3668.75 1891.92,3672.93 1889.33,3677.12C1885.37,3673.09 1882.28,3668.19 1880.36,3662.87C1878.19,3666.29 1875.11,3669.11 1871.52,3670.98C1867.84,3665.86 1864.16,3660.72 1860.48,3655.59C1860.08,3658.38 1859.68,3661.17 1859.29,3663.95C1855.5,3660.84 1852.66,3656.59 1851.26,3651.89C1848.08,3654.58 1844.91,3657.26 1841.74,3659.95C1837.44,3654.65 1833.15,3649.36 1828.86,3644.07C1825.76,3648.62 1822.02,3653.19 1816.78,3654.86C1811.54,3656.54 1804.61,3653.84 1803.76,3648.4C1800.52,3652.8 1796.93,3657.46 1791.72,3659.09C1786.51,3660.73 1779.51,3657.43 1779.64,3651.98C1777.45,3656.29 1771.44,3657.2 1766.84,3655.69C1762.95,3654.41 1759.63,3651.9 1756.08,3649.84C1749.41,3741.43 1742.26,3827.24 1735.02,3894.21L2144.23,3894.21C2137.52,3832.19 2130.89,3754.01 2124.65,3670.04Z" style="fill:rgb(145,110,78);fill-rule:nonzero;"/>
            </g>
            <g transform="matrix(1,0,0,2.51335,-806.082,-6732.81)">
                <path d="M1817.29,3234.84C1820.13,3241.62 1823.62,3248.12 1827.7,3254.24C1833.27,3248.21 1837.93,3241.33 1841.46,3233.91C1846.02,3239.46 1850.58,3245.01 1855.14,3250.56C1859.68,3246.97 1864.23,3243.38 1868.78,3239.79C1869.6,3248.69 1880.59,3253.72 1889.23,3251.47C1897.87,3249.21 1904.29,3242.06 1909.6,3234.88C1907.94,3241.65 1914.56,3248.73 1921.52,3248.4C1928.48,3248.08 1934.22,3241.48 1934.6,3234.52C1938.45,3239.99 1942.47,3245.34 1946.63,3250.58C1950.38,3247.72 1953.15,3243.57 1954.36,3239.01C1958.32,3246.33 1962.27,3253.66 1966.23,3261C1967.2,3262.79 1968.51,3264.83 1970.55,3264.96C1972.29,3265.07 1973.75,3263.71 1974.97,3262.45C1979.64,3257.61 1984.32,3252.78 1988.99,3247.94C1989.06,3252.74 1995.82,3255.1 1999.91,3252.6C2004.01,3250.1 2005.56,3244.88 2005.79,3240.09C2010.25,3247.31 2014.72,3254.54 2019.18,3261.76C2024.53,3255.95 2029.86,3250.14 2035.21,3244.34C2038.86,3247.52 2042.5,3250.7 2046.15,3253.89C2049.53,3248.49 2052.91,3243.09 2056.29,3237.69C2066.28,3245.84 2076.27,3253.99 2086.25,3262.13C2089.4,3264.7 2093.43,3267.43 2097.2,3265.92C2097.8,3265.68 2098.35,3265.35 2098.84,3264.95C2096.19,3217.57 2093.87,3174.39 2091.97,3137.88C2084.56,3140.91 2078.51,3146.54 2073.28,3152.62C2070.07,3148.9 2066.86,3145.17 2063.65,3141.46C2058.29,3151.29 2037.68,3142.26 2034.3,3152.94C2031.86,3144.73 2018.45,3143.15 2014.16,3150.57C2014.09,3146.35 2008.86,3143.79 2004.77,3144.83C2000.68,3145.87 1997.66,3149.23 1994.96,3152.49C1995.56,3146.08 1987.55,3141.45 1981.42,3143.4C1975.29,3145.34 1971.45,3151.55 1969.75,3157.75C1965.56,3152.32 1960.52,3147.54 1954.87,3143.65C1952.38,3148.17 1948.43,3151.89 1943.76,3154.12C1940.16,3149.54 1936.57,3144.96 1932.98,3140.37C1926.25,3141.41 1924.09,3155.01 1918.07,3151.82C1916.44,3150.96 1915.7,3149.07 1914.66,3147.54C1910.19,3140.97 1898.06,3142.83 1895.75,3150.43C1895.42,3144.36 1886.85,3143.45 1880.84,3144.44C1871.79,3145.93 1862.74,3147.42 1853.69,3148.91C1851.67,3149.24 1849.61,3149.58 1847.59,3149.23C1844.93,3148.76 1842.63,3147.15 1840.1,3146.19C1834.53,3144.05 1827.8,3145.34 1823.4,3149.37C1821.1,3144.61 1816.31,3141.13 1811.08,3140.39C1811.54,3147.39 1800.88,3148.35 1794.39,3145.66C1792.15,3144.73 1789.56,3143.79 1787.01,3143.24C1785.68,3168.42 1784.18,3196.62 1782.5,3227.05C1789.07,3234.67 1795.65,3242.28 1802.22,3249.89L1817.29,3234.84Z" style="fill:rgb(250,239,220);fill-rule:nonzero;"/>
            </g>
            <g transform="matrix(1,0,0,2.51335,-806.082,-6732.81)">
                <path d="M1786.38,3424.31C1790.83,3427.48 1797.39,3425.79 1801.32,3421.99C1805.26,3418.19 1807.21,3412.84 1809.05,3407.68C1811.44,3415.7 1815.78,3423.13 1821.56,3429.16C1824.26,3424.22 1826.22,3418.86 1827.35,3413.33C1826.16,3419.68 1832.22,3425.88 1838.68,3426.13C1845.14,3426.37 1851.1,3421.79 1854,3416.01C1855.82,3423.02 1859.36,3429.58 1864.25,3434.93C1868.33,3431.21 1872.41,3427.48 1876.49,3423.76C1875.33,3429.38 1881.84,3434.46 1887.45,3433.32C1893.08,3432.17 1896.98,3426.66 1898.01,3421.01C1900.43,3425.9 1902.85,3430.79 1905.28,3435.68C1908.17,3431.78 1911.06,3427.89 1913.96,3423.98C1919.5,3428.09 1917.94,3440.62 1924.79,3439.9C1926.49,3439.73 1927.9,3438.55 1929.2,3437.42C1934.18,3433.08 1939.17,3428.74 1944.16,3424.4C1948,3430.86 1953.2,3436.51 1959.31,3440.88C1963.52,3436.39 1967.73,3431.9 1971.93,3427.41C1972.85,3433.68 1978.35,3439 1984.65,3439.69C1990.97,3440.38 1997.49,3436.4 1999.75,3430.47C2000.71,3437.03 2008.89,3440.38 2015.3,3438.72C2021.71,3437.04 2026.61,3432 2031.15,3427.18C2030.24,3432.41 2033.88,3438.02 2039.02,3439.33C2044.16,3440.63 2050.04,3437.41 2051.72,3432.37C2052.48,3430.12 2052.89,3427.11 2055.2,3426.51C2058.69,3425.59 2059.85,3430.92 2062,3433.83C2064.58,3437.35 2070.1,3437.42 2073.84,3435.17C2077.58,3432.93 2079.96,3429.04 2082.19,3425.29C2086.81,3432.74 2091.98,3439.84 2097.68,3446.49C2099.16,3442.35 2100.64,3438.2 2102.12,3434.05C2104.74,3440.47 2107.35,3446.9 2109.96,3453.32C2107.71,3417.27 2105.56,3381.71 2103.56,3347.41C2099.62,3352.9 2095.68,3358.39 2091.73,3363.87C2088.22,3359.51 2084.06,3355.67 2079.43,3352.51C2076.87,3355.83 2074.3,3359.14 2071.75,3362.46C2068.84,3358.93 2065.94,3355.41 2063.03,3351.88C2060.61,3356.07 2054.32,3353.91 2049.86,3352.05C2045.39,3350.19 2037.87,3351.55 2038.93,3356.28C2035.76,3355.12 2032.59,3353.97 2029.42,3352.82C2026.87,3356.14 2024.32,3359.47 2021.77,3362.8C2022.61,3355.7 2015.33,3349.23 2008.21,3349.87C2001.09,3350.52 1995.33,3357.06 1994.4,3364.15C1990.59,3359.33 1986.78,3354.52 1982.97,3349.71C1979.47,3352.64 1975.97,3355.58 1972.47,3358.51C1972.08,3353.39 1967.74,3348.83 1962.64,3348.17C1957.54,3347.52 1952.2,3350.84 1950.53,3355.7C1946.85,3351.8 1943.18,3347.88 1939.51,3343.98C1936.1,3350.56 1924.4,3349.61 1922.11,3342.55C1921,3345.03 1919.89,3347.5 1918.79,3349.98C1905.81,3345.26 1890.4,3348 1879.84,3356.91C1876.27,3350.89 1872.02,3345.28 1867.17,3340.23C1862.89,3345.28 1859.45,3351.05 1857.07,3357.23C1854.53,3352.55 1851.99,3347.88 1849.45,3343.19C1845.43,3347.6 1841.74,3352.29 1838.39,3357.23C1837.13,3353.14 1835.75,3348.84 1832.52,3346.05C1829.29,3343.25 1823.61,3342.84 1821.18,3346.35C1819.28,3343.92 1817.38,3341.49 1815.49,3339.06C1811.57,3343.65 1807.65,3348.25 1803.73,3352.86C1800.81,3347.85 1797.91,3342.85 1794.99,3337.86C1790.01,3342.91 1785.02,3347.96 1780.03,3353C1778.75,3350.5 1777.4,3347.93 1775.79,3345.6C1774.57,3366.47 1773.3,3387.8 1771.99,3409.43C1772.45,3409.41 1772.93,3409.43 1773.41,3409.52C1780.06,3410.66 1780.88,3420.4 1786.38,3424.31Z" style="fill:rgb(250,239,220);fill-rule:nonzero;"/>
            </g>
            <g transform="matrix(1,0,0,2.51335,-806.082,-6732.81)">
                <path d="M1779.64,3651.98C1779.51,3657.43 1786.51,3660.73 1791.72,3659.09C1796.93,3657.46 1800.52,3652.8 1803.76,3648.4C1804.61,3653.84 1811.54,3656.54 1816.78,3654.86C1822.02,3653.19 1825.76,3648.62 1828.86,3644.07C1833.15,3649.36 1837.44,3654.65 1841.74,3659.95C1844.91,3657.26 1848.08,3654.58 1851.26,3651.89C1852.66,3656.59 1855.5,3660.84 1859.29,3663.95C1859.68,3661.17 1860.08,3658.38 1860.48,3655.59C1864.16,3660.72 1867.84,3665.86 1871.52,3670.98C1875.11,3669.11 1878.19,3666.29 1880.36,3662.87C1882.28,3668.19 1885.37,3673.09 1889.33,3677.12C1891.92,3672.93 1894.5,3668.75 1897.09,3664.57C1898.68,3674.1 1913.56,3677.62 1919.25,3669.82C1921.43,3666.84 1923.62,3662.24 1927.16,3663.27C1928.59,3663.68 1929.56,3664.97 1930.41,3666.18L1944.56,3686.07L1963.12,3667.49C1966.69,3672.53 1970.25,3677.57 1973.81,3682.61C1979.19,3678.03 1984.57,3673.44 1989.95,3668.86C1991.42,3672.8 1993.71,3676.45 1996.61,3679.5C2001.13,3674.51 2006.28,3670.1 2011.89,3666.39C2015.07,3673.02 2019.68,3678.96 2025.31,3683.68C2028.68,3678.35 2032.04,3673.02 2035.42,3667.69C2039.29,3672.79 2044.04,3677.7 2050.22,3679.38C2056.4,3681.08 2064.16,3678.31 2066.01,3672.18C2066.16,3678.35 2073.8,3682.25 2079.7,3680.44C2085.61,3678.64 2089.55,3672.99 2091.67,3667.2C2095.25,3670.98 2099.86,3673.77 2104.86,3675.18C2107.77,3669.26 2110.68,3663.34 2113.6,3657.42C2117.02,3661.84 2120.71,3666.07 2124.65,3670.04C2121.97,3634.02 2119.36,3596.94 2116.85,3559.6C2115.88,3559.39 2114.85,3559.28 2113.78,3559.32C2111.09,3559.39 2108.49,3560.33 2105.8,3560.48C2100.78,3560.77 2095.71,3558.03 2093.21,3553.67C2089.8,3557.38 2086.38,3561.08 2082.97,3564.79C2080.05,3562.13 2077.15,3559.46 2074.23,3556.81C2071.84,3558.5 2069.84,3560.76 2068.43,3563.33C2066.82,3556.75 2061.69,3548.33 2055.61,3551.31C2054.13,3552.04 2053.04,3553.35 2052.02,3554.63C2048.22,3559.31 2044.43,3563.98 2040.65,3568.67C2040.52,3563.34 2036.46,3558.38 2031.27,3557.19C2026.09,3556 2020.27,3558.7 2017.83,3563.42C2015.92,3556.91 2005.29,3555.63 2001.89,3561.5C2001.62,3555.38 1995.96,3550.01 1989.84,3550.06C1983.71,3550.11 1978.13,3555.53 1977.87,3561.65C1975.61,3553.58 1961.63,3553.29 1959.03,3561.26C1956.8,3554.69 1947.38,3551.96 1941.98,3556.3C1942.77,3552.66 1938.42,3549.46 1934.78,3550.23C1931.12,3550.99 1928.57,3554.38 1927.26,3557.87C1923.8,3551.94 1912.97,3553.48 1911.3,3560.15C1907.82,3555.33 1904.34,3550.5 1900.86,3545.68C1894.35,3547.37 1887.84,3549.05 1881.32,3550.74C1880.47,3547.81 1877.03,3545.93 1874.11,3546.77C1871.18,3547.62 1869.28,3551.04 1870.1,3553.97C1864.9,3549.13 1859.69,3544.29 1854.49,3539.45C1853.23,3543.36 1851.37,3547.06 1848.99,3550.4C1846.83,3547.14 1844.66,3543.88 1842.49,3540.61C1840.71,3545.02 1834.56,3546.12 1830.27,3544.1C1825.98,3542.07 1823.15,3537.93 1820.51,3533.98C1818.34,3538 1816.17,3542.02 1813.99,3546.05C1814.78,3542.48 1809.75,3540.49 1806.19,3541.25C1802.63,3542.02 1798.87,3543.97 1795.57,3542.41C1791.35,3540.42 1789.11,3533.23 1784.72,3534.82C1780.63,3536.29 1780.76,3544.45 1776.46,3543.87C1773.2,3537.76 1769.21,3532.04 1764.57,3526.88C1761.86,3568.25 1759.02,3609.6 1756.08,3649.84C1759.63,3651.9 1762.95,3654.41 1766.84,3655.69C1771.44,3657.2 1777.45,3656.29 1779.64,3651.98Z" style="fill:rgb(250,239,220);fill-rule:nonzero;"/>
            </g>
            <g transform="matrix(1,0,0,1,-806.082,-1984.11)">
                <path d="M1821.88,2633.87L1843.52,2630.29C1846.93,2565.26 1827.93,2525.15 1827.93,2525.15C1812.94,2578.51 1821.88,2633.87 1821.88,2633.87Z" style="fill:rgb(219,219,219);fill-rule:nonzero;"/>
            </g>
            <g transform="matrix(1,0,0,1,-806.082,-1984.11)">
                <path d="M2057.37,2633.87L2035.73,2630.29C2032.32,2565.26 2051.31,2525.15 2051.31,2525.15C2066.3,2578.51 2057.37,2633.87 2057.37,2633.87Z" style="fill:rgb(219,219,219);fill-rule:nonzero;"/>
            </g>
            <g transform="matrix(1,0,0,1,-806.082,-1984.11)">
                <path d="M1704.05,2787.22L1720.01,2772.17C1686.57,2716.29 1648.44,2693.6 1648.44,2693.6C1665.75,2746.24 1704.05,2787.22 1704.05,2787.22Z" style="fill:rgb(219,219,219);fill-rule:nonzero;"/>
            </g>
            <g transform="matrix(1,0,0,1,-806.082,-1984.11)">
                <path d="M2175.2,2787.22L2159.23,2772.17C2192.67,2716.29 2230.81,2693.6 2230.81,2693.6C2213.49,2746.24 2175.2,2787.22 2175.2,2787.22Z" style="fill:rgb(219,219,219);fill-rule:nonzero;"/>
            </g>
            <g transform="matrix(1,0,0,1,-806.082,-1984.11)">
                <path d="M2236.59,2821.64C2236.28,2807.77 2234.02,2794.59 2229.89,2782.47C2219.47,2751.93 2197.71,2730.5 2170.17,2723.68C2164.13,2722.18 2157.9,2721.42 2151.65,2721.42C2146.35,2721.42 2141.07,2721.96 2135.85,2723.02C2138.73,2691.96 2133.73,2661.44 2121.63,2636.6C2114.48,2621.93 2105.15,2609.69 2093.89,2600.21C2080.59,2589.01 2064.81,2582.06 2048.27,2580.09C2045.01,2579.71 2041.69,2579.51 2038.41,2579.51C2030.36,2579.51 2022.29,2580.68 2014.42,2582.98C2007.17,2585.1 2000.07,2588.2 1993.32,2592.18C1981.32,2599.25 1970.48,2609 1961.07,2621.18C1952.54,2632.23 1945.44,2644.97 1939.97,2659.05C1939.85,2659.35 1939.74,2659.65 1939.62,2659.95C1939.51,2659.65 1939.39,2659.35 1939.28,2659.05C1933.8,2644.97 1926.7,2632.23 1918.17,2621.18C1908.77,2609 1897.92,2599.25 1885.93,2592.18C1879.17,2588.2 1872.07,2585.1 1864.83,2582.98C1856.96,2580.68 1848.89,2579.51 1840.83,2579.51C1837.55,2579.51 1834.24,2579.71 1830.98,2580.09C1814.44,2582.06 1798.66,2589.01 1785.36,2600.21C1774.1,2609.69 1764.77,2621.93 1757.62,2636.6C1745.51,2661.44 1740.51,2691.96 1743.39,2723.02C1738.18,2721.96 1732.89,2721.42 1727.59,2721.42C1721.35,2721.42 1715.11,2722.18 1709.07,2723.68C1681.54,2730.5 1659.77,2751.93 1649.36,2782.47C1645.22,2794.59 1642.97,2807.77 1642.65,2821.64C1642.34,2835.22 1643.91,2849.05 1647.31,2862.76C1650.3,2874.86 1654.55,2886.04 1659.93,2895.99C1665.6,2906.48 1672.54,2915.67 1680.58,2923.32C1689.07,2931.41 1698.67,2937.68 1709.11,2941.98C1719.73,2946.36 1730.94,2948.57 1742.42,2948.57L1742.71,2948.57C1742.51,2952.27 1742.41,2955.93 1742.41,2959.55C1742.41,2987.68 1748.38,3013.03 1760.16,3034.92C1771.68,3056.33 1788.46,3073.99 1810.02,3087.41C1827.83,3098.5 1849.04,3106.66 1873.05,3111.67C1892.95,3115.83 1915.35,3117.94 1939.62,3117.94C1963.9,3117.94 1986.3,3115.83 2006.2,3111.67C2030.21,3106.66 2051.41,3098.5 2069.23,3087.41C2090.79,3073.99 2107.56,3056.33 2119.09,3034.92C2130.87,3013.03 2136.84,2987.68 2136.84,2959.55C2136.84,2955.93 2136.73,2952.27 2136.54,2948.57L2136.83,2948.57C2148.31,2948.57 2159.51,2946.36 2170.13,2941.99C2180.58,2937.69 2190.18,2931.41 2198.67,2923.32C2206.7,2915.68 2213.65,2906.48 2219.31,2895.99C2224.69,2886.04 2228.94,2874.86 2231.94,2862.76C2235.34,2849.05 2236.9,2835.22 2236.59,2821.64Z" style="fill:rgb(145,110,78);fill-rule:nonzero;"/>
            </g>
            <g transform="matrix(1,0,0,1,-806.082,-1984.11)">
                <path d="M1784.76,2828.7C1794.72,2868.87 1779.11,2895.62 1753.27,2902.02C1727.43,2908.43 1701.14,2892.06 1691.18,2851.89C1681.23,2811.72 1694.1,2773.96 1719.95,2767.55C1745.79,2761.15 1774.8,2788.53 1784.76,2828.7Z" style="fill:rgb(250,239,220);fill-rule:nonzero;"/>
            </g>
            <g transform="matrix(1,0,0,1,-806.082,-1984.11)">
                <path d="M1905.32,2708.65C1911.25,2758.68 1888.35,2788.62 1856.17,2792.43C1823.99,2796.25 1794.72,2772.5 1788.79,2722.48C1782.85,2672.45 1804.13,2628.8 1836.31,2624.98C1868.48,2621.17 1899.38,2658.63 1905.32,2708.65Z" style="fill:rgb(250,239,220);fill-rule:nonzero;"/>
            </g>
            <g transform="matrix(1,0,0,1,-806.082,-1984.11)">
                <path d="M2094.48,2828.7C2084.53,2868.87 2100.13,2895.62 2125.98,2902.02C2151.82,2908.43 2178.11,2892.06 2188.06,2851.89C2198.02,2811.72 2185.14,2773.96 2159.3,2767.55C2133.46,2761.15 2104.44,2788.53 2094.48,2828.7Z" style="fill:rgb(250,239,220);fill-rule:nonzero;"/>
            </g>
            <g transform="matrix(1,0,0,1,-806.082,-1984.11)">
                <path d="M1973.93,2708.65C1967.99,2758.68 1990.9,2788.62 2023.07,2792.43C2055.25,2796.25 2084.52,2772.5 2090.46,2722.48C2096.39,2672.45 2075.12,2628.8 2042.94,2624.98C2010.76,2621.17 1979.86,2658.63 1973.93,2708.65Z" style="fill:rgb(250,239,220);fill-rule:nonzero;"/>
            </g>
            <g transform="matrix(1,0,0,1,-806.082,-1984.11)">
                <path d="M2056.14,2978.44C2056.14,3042.79 2003.97,3063.12 1939.62,3063.12C1875.27,3063.12 1823.1,3042.79 1823.1,2978.44C1823.1,2914.08 1875.27,2822.23 1939.62,2822.23C2003.97,2822.23 2056.14,2914.08 2056.14,2978.44Z" style="fill:rgb(250,239,220);fill-rule:nonzero;"/>
            </g>
        </g>
    </g>
</svg>
