<?xml version="1.0" encoding="UTF-8" standalone="no"?>
<!DOCTYPE svg PUBLIC "-//W3C//DTD SVG 1.1//EN" "http://www.w3.org/Graphics/SVG/1.1/DTD/svg11.dtd">
<svg width="100%" height="100%" viewBox="0 0 595 2506" version="1.1" xmlns="http://www.w3.org/2000/svg" xmlns:xlink="http://www.w3.org/1999/xlink" xml:space="preserve" xmlns:serif="http://www.serif.com/" style="fill-rule:evenodd;clip-rule:evenodd;stroke-linejoin:round;stroke-miterlimit:2;">
    <g transform="matrix(1,0,0,1,-2175.46,-698.926)">
        <g transform="matrix(1,0,0,1,-420.359,63.5071)">
            <g>
                <g transform="matrix(1,0,0,2.72864,221.018,-7485.46)">
                    <path d="M2510.84,3623.5C2512.25,3624.88 2513.79,3626.32 2515.74,3626.6C2521.96,3627.49 2524.2,3616.83 2530.44,3616.13C2535.93,3615.51 2538.86,3622.79 2544.01,3624.78C2554.85,3628.97 2563.5,3608.14 2574.44,3612.07C2578.36,3613.48 2580.78,3617.83 2584.82,3618.83C2592.66,3620.77 2600.51,3609.08 2607.34,3613.38C2611.2,3615.81 2612.95,3622.72 2617.36,3621.57C2618.89,3621.17 2619.93,3619.81 2621.23,3618.91C2627.5,3614.58 2635.1,3622.07 2639.02,3628.6C2655.7,3622.72 2672.72,3617.83 2689.96,3613.95C2694.23,3618.72 2698.49,3623.49 2702.76,3628.25C2711.06,3619.54 2723.9,3615.23 2735.68,3617.73C2737.99,3618.22 2740.24,3618.96 2742.5,3619.69C2748.39,3621.61 2754.28,3623.53 2760.18,3625.45C2761.91,3626.01 2763.7,3626.58 2765.5,3626.38C2768.94,3626.02 2771.42,3623.08 2774.1,3620.9C2783.04,3613.63 2797.64,3614.8 2805.32,3623.39C2808.67,3623.57 2809.8,3618.32 2813.04,3617.43C2817.52,3616.2 2819.31,3623.48 2823.48,3625.5C2827.37,3627.39 2831.86,3623.94 2833.86,3620.12C2835.85,3616.28 2836.72,3611.73 2839.73,3608.65C2842.88,3605.43 2847.74,3604.63 2852.2,3605.6C2847.59,3539.82 2843.25,3472.19 2839.31,3407.32C2838.73,3407.88 2838.15,3408.45 2837.57,3409.01C2833.72,3404.99 2829.88,3400.98 2826.04,3396.97C2819.69,3400.89 2810.41,3398.88 2806.25,3392.69C2803.43,3398.31 2800.23,3404.32 2794.57,3407.05C2788.91,3409.79 2780.32,3406.88 2779.97,3400.6C2776.55,3405.55 2773.12,3410.51 2769.69,3415.47C2765.51,3410.66 2761.33,3405.85 2757.15,3401.04C2755.24,3403.69 2753.33,3406.34 2751.42,3408.98C2747.27,3407.3 2743.91,3403.8 2742.39,3399.6C2742.53,3405.83 2734.44,3410.51 2729.1,3407.28C2729.11,3413.95 2719.94,3417.3 2713.96,3414.38C2707.97,3411.46 2704.71,3405.01 2701.86,3398.99C2690.83,3408.24 2675.55,3410 2661.23,3411.39C2655.85,3411.91 2650.47,3412.43 2645.09,3412.95C2633.66,3414.06 2618.17,3412.24 2616.45,3400.88C2612.98,3410.81 2598.33,3414.46 2590.59,3407.34C2584.29,3401.54 2581.21,3390.1 2572.66,3390.45C2566.04,3390.73 2561.83,3398.67 2555.24,3399.31C2552.09,3399.61 2549.08,3398.15 2546.02,3397.36C2538.52,3395.42 2530.62,3397.48 2522.88,3397.28C2515.75,3397.09 2507.61,3393.73 2505.52,3387.2C2501.24,3458.66 2496.44,3534.11 2491.32,3607.21C2491.88,3606.82 2492.45,3606.44 2493.02,3606.08C2498.96,3611.88 2504.9,3617.69 2510.84,3623.5Z" style="fill:rgb(114,84,76);fill-rule:nonzero;"/>
                </g>
                <g transform="matrix(1,0,0,1.34378,221.018,-2927.67)">
                    <path d="M2522.73,3238.71C2527.4,3241.98 2528.61,3249.46 2534.08,3251.06C2542,3253.36 2549.1,3240.64 2556.68,3243.92C2559.01,3244.93 2560.57,3247.3 2562.96,3248.22C2565.02,3249 2567.34,3248.54 2569.5,3248.07C2576.8,3246.48 2584.1,3244.9 2591.4,3243.31C2593.05,3244.67 2594.69,3246.03 2596.35,3247.38C2604.01,3244.2 2612.42,3242.83 2620.7,3243.45C2625.89,3243.83 2632.16,3246.14 2632.7,3251.33C2634.33,3248.98 2636.59,3247.09 2639.19,3245.93C2641.34,3247.52 2643.49,3249.12 2645.64,3250.71C2648.97,3244.47 2658.64,3242.92 2663.76,3247.8C2666.13,3246.6 2668.52,3245.4 2670.89,3244.2C2672.94,3247.25 2675.85,3249.71 2679.21,3251.19C2681.41,3248.01 2683.62,3244.83 2685.83,3241.66C2688.38,3242.33 2690.64,3244.05 2691.97,3246.32C2696.26,3243.25 2701.63,3241.69 2706.9,3242C2718.85,3242.69 2729.72,3252.42 2741.45,3250.05C2746.13,3249.1 2750.65,3246.24 2755.31,3247.25C2758.94,3248.04 2761.69,3251.03 2765.15,3252.37C2777.63,3257.19 2790.72,3239.12 2803.04,3244.32C2807.12,3246.04 2810.28,3250.19 2814.7,3250.38C2817.81,3250.5 2820.57,3248.61 2823.39,3247.31C2825.51,3246.33 2827.71,3245.69 2829.94,3245.36C2828.88,3226.19 2827.87,3207.8 2826.94,3190.36C2821.44,3088.28 2818.17,3019.21 2818.17,3019.21L2525.45,3019.21C2525.45,3019.21 2522.24,3087.28 2516.81,3188.12C2515.96,3203.86 2515.07,3220.39 2514.12,3237.6C2517.09,3236.7 2520.06,3236.84 2522.73,3238.71Z" style="fill:rgb(114,84,76);fill-rule:nonzero;"/>
                </g>
                <g transform="matrix(1,0,0,2.72864,221.018,-7485.46)">
                    <path d="M2863.13,3750.92C2860.09,3748.1 2857.03,3745.28 2853.98,3742.46C2847.63,3754.13 2838.66,3767.42 2825.38,3767.13C2816.18,3766.93 2808.62,3759.99 2802.82,3752.85C2801.2,3750.85 2799.38,3748.66 2796.84,3748.32C2793.76,3747.92 2791.16,3750.37 2788.52,3752.01C2785.89,3753.66 2781.56,3754.06 2780.43,3751.17C2776.62,3756.79 2772.44,3762.71 2766.16,3765.3C2760.1,3767.79 2751.62,3765.44 2749.77,3759.3C2750.72,3764.17 2744.47,3768.46 2739.42,3767.33C2734.12,3766.14 2730.41,3761.51 2727.14,3757.18C2722.24,3760.95 2717.33,3764.72 2712.42,3768.49C2710.59,3759.53 2697.67,3760.45 2688.81,3762.68C2675.55,3766.01 2661.75,3767.13 2648.14,3765.99C2644.42,3765.67 2640.68,3765.18 2637.13,3764.02C2634.16,3763.06 2631.35,3761.64 2628.34,3760.8C2622.15,3759.07 2615.53,3759.88 2609.2,3758.8C2602.87,3757.72 2596.13,3753.67 2595.46,3747.28C2587.53,3756.03 2570.23,3751.5 2567.6,3739.99C2559.6,3747.06 2549.06,3754.62 2539.2,3750.5C2536.03,3749.18 2533.38,3746.73 2530.11,3745.67C2525.45,3744.16 2520.44,3745.68 2515.54,3745.9C2510.66,3746.12 2504.76,3744.04 2503.92,3739.22C2499.4,3746.43 2489.35,3747.07 2480.82,3746.86C2476.39,3801.35 2471.81,3851.6 2467.21,3894.21L2876.42,3894.21C2871.92,3852.66 2867.46,3803.86 2863.13,3750.92Z" style="fill:rgb(114,84,76);fill-rule:nonzero;"/>
                </g>
                <g transform="matrix(1,0,0,2.72864,221.018,-7485.46)">
                    <path d="M2503.92,3739.22C2504.76,3744.04 2510.66,3746.12 2515.54,3745.9C2520.44,3745.68 2525.45,3744.16 2530.11,3745.67C2533.38,3746.73 2536.03,3749.18 2539.2,3750.5C2549.06,3754.62 2559.6,3747.06 2567.6,3739.99C2570.23,3751.5 2587.53,3756.03 2595.46,3747.28C2596.13,3753.67 2602.87,3757.72 2609.2,3758.8C2615.53,3759.88 2622.15,3759.07 2628.34,3760.8C2631.35,3761.64 2634.16,3763.06 2637.13,3764.02C2640.68,3765.18 2644.42,3765.67 2648.14,3765.99C2661.75,3767.13 2675.55,3766.01 2688.81,3762.68C2697.67,3760.45 2710.59,3759.53 2712.42,3768.49C2717.33,3764.72 2722.24,3760.95 2727.14,3757.18C2730.41,3761.51 2734.12,3766.14 2739.42,3767.33C2744.47,3768.46 2750.72,3764.17 2749.77,3759.3C2751.62,3765.44 2760.1,3767.79 2766.16,3765.3C2772.44,3762.71 2776.62,3756.79 2780.43,3751.17C2781.56,3754.06 2785.89,3753.66 2788.52,3752.01C2791.16,3750.37 2793.76,3747.92 2796.84,3748.32C2799.38,3748.66 2801.2,3750.85 2802.82,3752.85C2808.62,3759.99 2816.18,3766.93 2825.38,3767.13C2838.66,3767.42 2847.63,3754.13 2853.98,3742.46C2857.03,3745.28 2860.09,3748.1 2863.13,3750.92C2859.38,3704.93 2855.71,3655.81 2852.2,3605.6C2847.74,3604.63 2842.88,3605.43 2839.73,3608.65C2836.72,3611.73 2835.85,3616.28 2833.86,3620.12C2831.86,3623.94 2827.37,3627.39 2823.48,3625.5C2819.31,3623.48 2817.52,3616.2 2813.04,3617.43C2809.8,3618.32 2808.67,3623.57 2805.32,3623.39C2797.64,3614.8 2783.04,3613.63 2774.1,3620.9C2771.42,3623.08 2768.94,3626.02 2765.5,3626.38C2763.7,3626.58 2761.91,3626.01 2760.18,3625.45C2754.28,3623.53 2748.39,3621.61 2742.5,3619.69C2740.24,3618.96 2737.99,3618.22 2735.68,3617.73C2723.9,3615.23 2711.06,3619.54 2702.76,3628.25C2698.49,3623.49 2694.23,3618.72 2689.96,3613.95C2672.72,3617.83 2655.7,3622.72 2639.02,3628.6C2635.1,3622.07 2627.5,3614.58 2621.23,3618.91C2619.93,3619.81 2618.89,3621.17 2617.36,3621.57C2612.95,3622.72 2611.2,3615.81 2607.34,3613.38C2600.51,3609.08 2592.66,3620.77 2584.82,3618.83C2580.78,3617.83 2578.36,3613.48 2574.44,3612.07C2563.5,3608.14 2554.85,3628.97 2544.01,3624.78C2538.86,3622.79 2535.93,3615.51 2530.44,3616.13C2524.2,3616.83 2521.96,3627.49 2515.74,3626.6C2513.79,3626.32 2512.25,3624.88 2510.84,3623.5C2504.9,3617.69 2498.96,3611.88 2493.02,3606.08C2492.45,3606.44 2491.88,3606.82 2491.32,3607.21C2487.94,3655.38 2484.43,3702.53 2480.82,3746.86C2489.35,3747.07 2499.4,3746.43 2503.92,3739.22Z" style="fill:rgb(236,164,143);fill-rule:nonzero;"/>
                </g>
                <g transform="matrix(1,0,0,2.72864,221.018,-7485.46)">
                    <path d="M2522.88,3397.28C2530.62,3397.48 2538.52,3395.42 2546.02,3397.36C2549.08,3398.15 2552.09,3399.61 2555.24,3399.31C2561.83,3398.67 2566.04,3390.73 2572.66,3390.45C2581.21,3390.1 2584.29,3401.54 2590.59,3407.34C2598.33,3414.46 2612.98,3410.81 2616.45,3400.88C2618.17,3412.24 2633.66,3414.06 2645.09,3412.95C2650.47,3412.43 2655.85,3411.91 2661.23,3411.39C2675.55,3410 2690.83,3408.24 2701.86,3398.99C2704.71,3405.01 2707.97,3411.46 2713.96,3414.38C2719.94,3417.3 2729.11,3413.95 2729.1,3407.28C2734.44,3410.51 2742.53,3405.83 2742.39,3399.6C2743.91,3403.8 2747.27,3407.3 2751.42,3408.98C2753.33,3406.34 2755.24,3403.69 2757.15,3401.04C2761.33,3405.85 2765.51,3410.66 2769.69,3415.47C2773.12,3410.51 2776.55,3405.55 2779.97,3400.6C2780.32,3406.88 2788.91,3409.79 2794.57,3407.05C2800.23,3404.32 2803.43,3398.31 2806.25,3392.69C2810.41,3398.88 2819.69,3400.89 2826.04,3396.97C2829.88,3400.98 2833.72,3404.99 2837.57,3409.01C2838.15,3408.45 2838.73,3407.88 2839.31,3407.32C2838.24,3389.46 2837.18,3371.82 2836.16,3354.49L2836.16,3354.48C2833.92,3316.3 2831.83,3279.58 2829.94,3245.36C2827.71,3245.69 2825.51,3246.33 2823.39,3247.31C2820.57,3248.61 2817.81,3250.5 2814.7,3250.38C2810.28,3250.19 2807.12,3246.04 2803.04,3244.32C2790.72,3239.12 2777.63,3257.19 2765.15,3252.37C2761.69,3251.03 2758.94,3248.04 2755.31,3247.25C2750.65,3246.24 2746.13,3249.1 2741.45,3250.05C2729.72,3252.42 2718.85,3242.69 2706.9,3242C2701.63,3241.69 2696.26,3243.25 2691.97,3246.32C2690.64,3244.05 2688.38,3242.33 2685.83,3241.66C2683.62,3244.83 2681.41,3248.01 2679.21,3251.19C2675.85,3249.71 2672.94,3247.25 2670.89,3244.2C2668.52,3245.4 2666.13,3246.6 2663.76,3247.8C2658.64,3242.92 2648.97,3244.47 2645.64,3250.71C2643.49,3249.12 2641.34,3247.52 2639.19,3245.93C2636.59,3247.09 2634.33,3248.98 2632.7,3251.33C2632.16,3246.14 2625.89,3243.83 2620.7,3243.45C2612.42,3242.83 2604.01,3244.2 2596.35,3247.38C2594.69,3246.03 2593.05,3244.67 2591.4,3243.31C2584.1,3244.9 2576.8,3246.48 2569.5,3248.07C2567.34,3248.54 2565.02,3249 2562.96,3248.22C2560.57,3247.3 2559.01,3244.93 2556.68,3243.92C2549.1,3240.64 2542,3253.36 2534.08,3251.06C2528.61,3249.46 2527.4,3241.98 2522.73,3238.71C2520.06,3236.84 2517.09,3236.7 2514.12,3237.6C2511.96,3276.75 2509.54,3319.36 2506.92,3363.82C2506.46,3371.56 2506,3379.35 2505.52,3387.2C2507.61,3393.73 2515.75,3397.09 2522.88,3397.28Z" style="fill:rgb(236,164,143);fill-rule:nonzero;"/>
                </g>
                <g transform="matrix(1,0,0,1,221.018,-1889.73)">
                    <path d="M2554.07,2633.87L2575.71,2630.29C2579.12,2565.25 2560.12,2525.15 2560.12,2525.15C2545.14,2578.5 2554.07,2633.87 2554.07,2633.87Z" style="fill:rgb(219,219,219);fill-rule:nonzero;"/>
                </g>
                <g transform="matrix(1,0,0,1,221.018,-1889.73)">
                    <path d="M2789.56,2633.87L2767.92,2630.29C2764.51,2565.25 2783.5,2525.15 2783.5,2525.15C2798.49,2578.5 2789.56,2633.87 2789.56,2633.87Z" style="fill:rgb(219,219,219);fill-rule:nonzero;"/>
                </g>
                <g transform="matrix(1,0,0,1,221.018,-1889.73)">
                    <path d="M2436.24,2787.22L2452.2,2772.17C2418.76,2716.29 2380.63,2693.59 2380.63,2693.59C2397.95,2746.24 2436.24,2787.22 2436.24,2787.22Z" style="fill:rgb(219,219,219);fill-rule:nonzero;"/>
                </g>
                <g transform="matrix(1,0,0,1,221.018,-1889.73)">
                    <path d="M2907.39,2787.22L2891.42,2772.17C2924.86,2716.29 2963,2693.59 2963,2693.59C2945.68,2746.24 2907.39,2787.22 2907.39,2787.22Z" style="fill:rgb(219,219,219);fill-rule:nonzero;"/>
                </g>
                <g transform="matrix(1,0,0,1,221.018,-1889.73)">
                    <path d="M2968.78,2821.64C2968.47,2807.77 2966.21,2794.59 2962.08,2782.46C2951.67,2751.93 2929.9,2730.5 2902.36,2723.68C2896.32,2722.18 2890.09,2721.42 2883.84,2721.42C2878.54,2721.42 2873.26,2721.96 2868.04,2723.02C2870.92,2691.96 2865.92,2661.43 2853.82,2636.59C2846.67,2621.93 2837.34,2609.69 2826.08,2600.21C2812.78,2589.01 2797,2582.05 2780.46,2580.09C2777.2,2579.71 2773.88,2579.51 2770.6,2579.51C2762.55,2579.51 2754.48,2580.68 2746.61,2582.98C2739.36,2585.1 2732.26,2588.2 2725.51,2592.18C2713.51,2599.25 2702.67,2609 2693.27,2621.18C2684.73,2632.23 2677.63,2644.97 2672.16,2659.04C2672.04,2659.34 2671.93,2659.64 2671.81,2659.95C2671.7,2659.64 2671.58,2659.34 2671.47,2659.04C2666,2644.97 2658.89,2632.23 2650.36,2621.18C2640.96,2609 2630.11,2599.25 2618.12,2592.18C2611.36,2588.2 2604.26,2585.1 2597.02,2582.98C2589.15,2580.68 2581.08,2579.51 2573.02,2579.51C2569.74,2579.51 2566.43,2579.71 2563.17,2580.09C2546.63,2582.05 2530.85,2589.01 2517.55,2600.21C2506.29,2609.69 2496.96,2621.93 2489.81,2636.59C2477.7,2661.43 2472.7,2691.96 2475.58,2723.02C2470.37,2721.96 2465.08,2721.42 2459.79,2721.42C2453.54,2721.42 2447.3,2722.18 2441.26,2723.68C2413.73,2730.5 2391.96,2751.93 2381.55,2782.46C2377.41,2794.59 2375.16,2807.77 2374.84,2821.64C2374.53,2835.21 2376.1,2849.05 2379.5,2862.76C2382.5,2874.85 2386.74,2886.04 2392.12,2895.99C2397.79,2906.48 2404.73,2915.67 2412.77,2923.32C2421.26,2931.4 2430.86,2937.68 2441.3,2941.98C2451.92,2946.35 2463.13,2948.57 2474.61,2948.57L2474.9,2948.57C2474.7,2952.26 2474.6,2955.93 2474.6,2959.55C2474.6,2987.67 2480.57,3013.03 2492.35,3034.91C2503.87,3056.32 2520.65,3073.98 2542.21,3087.41C2560.02,3098.49 2581.23,3106.66 2605.24,3111.67C2625.14,3115.83 2647.54,3117.93 2671.81,3117.93C2696.09,3117.93 2718.49,3115.83 2738.39,3111.67C2762.4,3106.66 2783.61,3098.49 2801.42,3087.41C2822.98,3073.98 2839.76,3056.32 2851.28,3034.91C2863.06,3013.03 2869.03,2987.67 2869.03,2959.55C2869.03,2955.93 2868.93,2952.26 2868.73,2948.57L2869.02,2948.57C2880.5,2948.57 2891.7,2946.35 2902.32,2941.98C2912.77,2937.68 2922.37,2931.41 2930.86,2923.32C2938.89,2915.67 2945.84,2906.48 2951.5,2895.99C2956.88,2886.04 2961.13,2874.85 2964.13,2862.76C2967.53,2849.05 2969.09,2835.21 2968.78,2821.64Z" style="fill:rgb(114,84,76);fill-rule:nonzero;"/>
                </g>
                <g transform="matrix(1,0,0,1,221.018,-1889.73)">
                    <path d="M2516.95,2828.7C2526.91,2868.87 2511.3,2895.62 2485.46,2902.02C2459.62,2908.42 2433.33,2892.06 2423.37,2851.89C2413.42,2811.71 2426.3,2773.96 2452.14,2767.55C2477.98,2761.15 2507,2788.52 2516.95,2828.7Z" style="fill:rgb(236,164,143);fill-rule:nonzero;"/>
                </g>
                <g transform="matrix(1,0,0,1,221.018,-1889.73)">
                    <path d="M2637.51,2708.65C2643.44,2758.67 2620.54,2788.61 2588.36,2792.43C2556.18,2796.25 2526.91,2772.5 2520.98,2722.47C2515.04,2672.45 2536.32,2628.8 2568.5,2624.98C2600.67,2621.16 2631.57,2658.62 2637.51,2708.65Z" style="fill:rgb(236,164,143);fill-rule:nonzero;"/>
                </g>
                <g transform="matrix(1,0,0,1,221.018,-1889.73)">
                    <path d="M2826.68,2828.7C2816.72,2868.87 2832.33,2895.62 2858.17,2902.02C2884.01,2908.42 2910.3,2892.06 2920.25,2851.89C2930.21,2811.71 2917.33,2773.96 2891.49,2767.55C2865.65,2761.15 2836.63,2788.52 2826.68,2828.7Z" style="fill:rgb(236,164,143);fill-rule:nonzero;"/>
                </g>
                <g transform="matrix(1,0,0,1,221.018,-1889.73)">
                    <path d="M2706.12,2708.65C2700.19,2758.67 2723.09,2788.61 2755.27,2792.43C2787.44,2796.25 2816.71,2772.5 2822.65,2722.47C2828.58,2672.45 2807.31,2628.8 2775.13,2624.98C2742.95,2621.16 2712.05,2658.62 2706.12,2708.65Z" style="fill:rgb(236,164,143);fill-rule:nonzero;"/>
                </g>
                <g transform="matrix(1,0,0,1,221.018,-1889.73)">
                    <path d="M2788.33,2978.43C2788.33,3042.79 2736.17,3063.11 2671.81,3063.11C2607.46,3063.11 2555.29,3042.79 2555.29,2978.43C2555.29,2914.08 2607.46,2822.23 2671.81,2822.23C2736.17,2822.23 2788.33,2914.08 2788.33,2978.43Z" style="fill:rgb(236,164,143);fill-rule:nonzero;"/>
                </g>
            </g>
        </g>
    </g>
</svg>
