<?xml version="1.0" encoding="UTF-8" standalone="no"?>
<!DOCTYPE svg PUBLIC "-//W3C//DTD SVG 1.1//EN" "http://www.w3.org/Graphics/SVG/1.1/DTD/svg11.dtd">
<svg width="100%" height="100%" viewBox="0 0 595 2360" version="1.1" xmlns="http://www.w3.org/2000/svg" xmlns:xlink="http://www.w3.org/1999/xlink" xml:space="preserve" xmlns:serif="http://www.serif.com/" style="fill-rule:evenodd;clip-rule:evenodd;stroke-linejoin:round;stroke-miterlimit:2;">
    <g transform="matrix(1,0,0,1,-3235.72,-825.671)">
        <g transform="matrix(1,0,0,1,-188.902,69.1706)">
            <g transform="matrix(1,0,0,2.13169,317.792,-5185.45)">
                <path d="M3263.58,3188.26C3266.09,3185.23 3269.54,3182.99 3273.32,3181.91C3276.89,3185.09 3280.47,3188.27 3284.04,3191.44C3287.64,3188.24 3291.23,3185.05 3294.83,3181.84C3303.09,3185.67 3311.35,3189.5 3319.61,3193.32C3329.19,3183.19 3346.38,3181.45 3357.8,3189.45C3362.82,3181.15 3378.27,3184.19 3379.76,3193.77C3387.09,3189.21 3398.22,3193.21 3400.96,3201.39C3405.2,3196.92 3409.44,3192.45 3413.67,3187.98C3419.49,3191.46 3424.22,3196.73 3427.05,3202.88C3431.11,3197.6 3435.16,3192.31 3439.21,3187.03C3442.57,3189.47 3445.92,3191.92 3449.28,3194.37C3452.05,3192.57 3454.83,3190.77 3457.61,3188.97C3462.91,3194.34 3468.23,3199.7 3473.53,3205.07C3475.47,3201.01 3478.35,3197.42 3481.89,3194.66C3487.21,3199.77 3492.53,3204.88 3497.84,3209.99C3501.16,3203.77 3504.48,3197.54 3507.79,3191.33C3513.2,3194.4 3518.11,3198.34 3522.27,3202.96C3524.49,3200.63 3526.72,3198.3 3528.95,3195.97C3532.92,3199.43 3536.88,3202.89 3540.85,3206.34C3540.36,3202.49 3545.05,3199.91 3548.93,3200.12C3552.52,3200.29 3556,3201.81 3559.57,3201.75C3553.71,3093.46 3550.19,3019.21 3550.19,3019.21L3257.48,3019.21C3257.48,3019.21 3254.42,3083.9 3249.25,3180.6C3249.69,3180.36 3250.14,3180.12 3250.6,3179.9C3254.93,3182.68 3259.26,3185.47 3263.58,3188.26Z" style="fill:rgb(250,239,220);fill-rule:nonzero;"/>
            </g>
            <g transform="matrix(1,0,0,2.13169,317.792,-5185.45)">
                <path d="M3559.57,3201.75C3556,3201.81 3552.52,3200.29 3548.93,3200.12C3545.05,3199.91 3540.36,3202.49 3540.85,3206.34C3536.88,3202.89 3532.92,3199.43 3528.95,3195.97C3526.72,3198.3 3524.49,3200.63 3522.27,3202.96C3518.11,3198.34 3513.2,3194.4 3507.79,3191.33C3504.48,3197.54 3501.16,3203.77 3497.84,3209.99C3492.53,3204.88 3487.21,3199.77 3481.89,3194.66C3478.35,3197.42 3475.47,3201.01 3473.53,3205.07C3468.23,3199.7 3462.91,3194.34 3457.61,3188.97C3454.83,3190.77 3452.05,3192.57 3449.28,3194.37C3445.92,3191.92 3442.57,3189.47 3439.21,3187.03C3435.16,3192.31 3431.11,3197.6 3427.05,3202.88C3424.22,3196.73 3419.49,3191.46 3413.67,3187.98C3409.44,3192.45 3405.2,3196.92 3400.96,3201.39C3398.22,3193.21 3387.09,3189.21 3379.76,3193.77C3378.27,3184.19 3362.82,3181.15 3357.8,3189.45C3346.38,3181.45 3329.19,3183.19 3319.61,3193.32C3311.35,3189.5 3303.09,3185.67 3294.83,3181.84C3291.23,3185.05 3287.64,3188.24 3284.04,3191.44C3280.47,3188.27 3276.89,3185.09 3273.32,3181.91C3269.54,3182.99 3266.09,3185.23 3263.58,3188.26C3259.26,3185.47 3254.93,3182.68 3250.6,3179.9C3250.14,3180.12 3249.69,3180.36 3249.25,3180.6C3238.68,3377.92 3219.32,3708.47 3199.23,3894.21L3608.45,3894.21C3589.06,3714.96 3570.34,3400.83 3559.57,3201.75Z" style="fill:rgb(236,163,144);fill-rule:nonzero;"/>
            </g>
            <g transform="matrix(1,0,0,1,317.792,-1768.65)">
                <path d="M3286.09,2633.87L3307.73,2630.29C3311.14,2565.25 3292.15,2525.15 3292.15,2525.15C3277.16,2578.5 3286.09,2633.87 3286.09,2633.87Z" style="fill:rgb(219,219,219);fill-rule:nonzero;"/>
            </g>
            <g transform="matrix(1,0,0,1,317.792,-1768.65)">
                <path d="M3521.58,2633.87L3499.94,2630.29C3496.53,2565.25 3515.53,2525.15 3515.53,2525.15C3530.52,2578.5 3521.58,2633.87 3521.58,2633.87Z" style="fill:rgb(219,219,219);fill-rule:nonzero;"/>
            </g>
            <g transform="matrix(1,0,0,1,317.792,-1768.65)">
                <path d="M3168.26,2787.22L3184.23,2772.17C3150.79,2716.29 3112.65,2693.59 3112.65,2693.59C3129.97,2746.24 3168.26,2787.22 3168.26,2787.22Z" style="fill:rgb(219,219,219);fill-rule:nonzero;"/>
            </g>
            <g transform="matrix(1,0,0,1,317.792,-1768.65)">
                <path d="M3639.41,2787.22L3623.45,2772.17C3656.89,2716.29 3695.02,2693.59 3695.02,2693.59C3677.71,2746.24 3639.41,2787.22 3639.41,2787.22Z" style="fill:rgb(219,219,219);fill-rule:nonzero;"/>
            </g>
            <g transform="matrix(1,0,0,1,317.792,-1768.65)">
                <path d="M3700.81,2821.64C3700.49,2807.77 3698.24,2794.59 3694.1,2782.46C3683.69,2751.93 3661.92,2730.5 3634.39,2723.68C3628.35,2722.18 3622.11,2721.42 3615.87,2721.42C3610.57,2721.42 3605.29,2721.96 3600.07,2723.02C3602.95,2691.96 3597.95,2661.43 3585.84,2636.59C3578.69,2621.93 3569.36,2609.69 3558.1,2600.21C3544.8,2589.01 3529.02,2582.05 3512.48,2580.09C3509.22,2579.71 3505.91,2579.51 3502.63,2579.51C3494.57,2579.51 3486.5,2580.68 3478.63,2582.98C3471.39,2585.1 3464.29,2588.2 3457.53,2592.18C3445.54,2599.25 3434.69,2609 3425.29,2621.18C3416.76,2632.23 3409.66,2644.97 3404.18,2659.04C3404.07,2659.34 3403.95,2659.64 3403.84,2659.95C3403.72,2659.64 3403.61,2659.34 3403.49,2659.04C3398.02,2644.97 3390.92,2632.23 3382.39,2621.18C3372.99,2609 3362.14,2599.25 3350.14,2592.18C3343.39,2588.2 3336.29,2585.1 3329.04,2582.98C3321.17,2580.68 3313.1,2579.51 3305.05,2579.51C3301.77,2579.51 3298.45,2579.71 3295.2,2580.09C3278.65,2582.05 3262.87,2589.01 3249.57,2600.21C3238.32,2609.69 3228.98,2621.93 3221.83,2636.59C3209.73,2661.43 3204.73,2691.96 3207.61,2723.02C3202.39,2721.96 3197.11,2721.42 3191.81,2721.42C3185.56,2721.42 3179.33,2722.18 3173.29,2723.68C3145.75,2730.5 3123.99,2751.93 3113.57,2782.46C3109.44,2794.59 3107.18,2807.77 3106.87,2821.64C3106.56,2835.21 3108.12,2849.05 3111.52,2862.76C3114.52,2874.85 3118.77,2886.04 3124.15,2895.99C3129.81,2906.48 3136.76,2915.67 3144.79,2923.32C3153.29,2931.4 3162.88,2937.68 3173.33,2941.98C3183.95,2946.35 3195.16,2948.57 3206.64,2948.57L3206.92,2948.57C3206.72,2952.26 3206.62,2955.93 3206.62,2959.55C3206.62,2987.67 3212.59,3013.03 3224.37,3034.91C3235.89,3056.32 3252.67,3073.98 3274.23,3087.41C3292.04,3098.49 3313.25,3106.66 3337.26,3111.67C3357.16,3115.83 3379.56,3117.93 3403.84,3117.93C3428.11,3117.93 3450.51,3115.83 3470.41,3111.67C3494.42,3106.66 3515.63,3098.49 3533.44,3087.41C3555,3073.98 3571.78,3056.32 3583.3,3034.91C3595.08,3013.03 3601.05,2987.67 3601.05,2959.55C3601.05,2955.93 3600.95,2952.26 3600.75,2948.57L3601.04,2948.57C3612.52,2948.57 3623.73,2946.35 3634.35,2941.98C3644.79,2937.68 3654.39,2931.41 3662.88,2923.32C3670.92,2915.67 3677.86,2906.48 3683.53,2895.99C3688.91,2886.04 3693.16,2874.85 3696.15,2862.76C3699.55,2849.05 3701.12,2835.21 3700.81,2821.64Z" style="fill:rgb(250,239,220);fill-rule:nonzero;"/>
            </g>
            <g transform="matrix(1,0,0,1,317.792,-1768.65)">
                <path d="M3248.98,2828.7C3258.93,2868.87 3243.33,2895.62 3217.49,2902.02C3191.64,2908.42 3165.35,2892.06 3155.4,2851.89C3145.44,2811.71 3158.32,2773.96 3184.16,2767.55C3210,2761.15 3239.02,2788.52 3248.98,2828.7Z" style="fill:rgb(236,163,144);fill-rule:nonzero;"/>
            </g>
            <g transform="matrix(1,0,0,1,317.792,-1768.65)">
                <path d="M3369.53,2708.65C3375.47,2758.67 3352.56,2788.61 3320.39,2792.43C3288.21,2796.25 3258.94,2772.5 3253,2722.47C3247.07,2672.45 3268.34,2628.8 3300.52,2624.98C3332.7,2621.16 3363.6,2658.62 3369.53,2708.65Z" style="fill:rgb(236,163,144);fill-rule:nonzero;"/>
            </g>
            <g transform="matrix(1,0,0,1,317.792,-1768.65)">
                <path d="M3558.7,2828.7C3548.74,2868.87 3564.35,2895.62 3590.19,2902.02C3616.03,2908.42 3642.32,2892.06 3652.28,2851.89C3662.23,2811.71 3649.36,2773.96 3623.51,2767.55C3597.67,2761.15 3568.66,2788.52 3558.7,2828.7Z" style="fill:rgb(236,163,144);fill-rule:nonzero;"/>
            </g>
            <g transform="matrix(1,0,0,1,317.792,-1768.65)">
                <path d="M3438.14,2708.65C3432.21,2758.67 3455.11,2788.61 3487.29,2792.43C3519.47,2796.25 3548.74,2772.5 3554.67,2722.47C3560.61,2672.45 3539.33,2628.8 3507.16,2624.98C3474.98,2621.16 3444.08,2658.62 3438.14,2708.65Z" style="fill:rgb(236,163,144);fill-rule:nonzero;"/>
            </g>
            <g transform="matrix(1,0,0,1,317.792,-1768.65)">
                <path d="M3520.36,2978.43C3520.36,3042.79 3468.19,3063.11 3403.84,3063.11C3339.49,3063.11 3287.32,3042.79 3287.32,2978.43C3287.32,2914.08 3339.49,2822.23 3403.84,2822.23C3468.19,2822.23 3520.36,2914.08 3520.36,2978.43Z" style="fill:rgb(236,163,144);fill-rule:nonzero;"/>
            </g>
        </g>
    </g>
</svg>
